G04 #@! TF.FileFunction,Copper,L1,Top,Signal*
%FSLAX46Y46*%
G04 Gerber Fmt 4.6, Leading zero omitted, Abs format (unit mm)*
G04 Created by KiCad (PCBNEW 4.0.4-stable) date 04/22/19 13:39:38*
%MOMM*%
%LPD*%
G01*
G04 APERTURE LIST*
%ADD10C,0.100000*%
%ADD11R,1.600000X2.000000*%
%ADD12R,1.700000X1.700000*%
%ADD13O,1.700000X1.700000*%
%ADD14R,1.700000X2.000000*%
%ADD15R,1.700000X0.900000*%
%ADD16O,2.500000X0.900000*%
%ADD17O,0.900000X2.500000*%
%ADD18R,6.000000X6.000000*%
%ADD19R,0.350000X2.000000*%
%ADD20R,1.000000X2.750000*%
%ADD21R,2.750000X1.000000*%
%ADD22C,0.600000*%
%ADD23C,0.250000*%
%ADD24C,0.200000*%
G04 APERTURE END LIST*
D10*
D11*
X103835200Y-113480600D03*
X103835200Y-109480600D03*
X108407200Y-109480600D03*
X108407200Y-113480600D03*
D12*
X99009200Y-118338600D03*
D13*
X101549200Y-118338600D03*
X104089200Y-118338600D03*
X106629200Y-118338600D03*
X109169200Y-118338600D03*
D14*
X99263200Y-109480600D03*
X99263200Y-113480600D03*
D15*
X94691200Y-113180600D03*
X94691200Y-109780600D03*
X112979200Y-113180600D03*
X112979200Y-109780600D03*
D16*
X112835200Y-86418600D03*
X112835200Y-87688600D03*
X112835200Y-88958600D03*
X112835200Y-90228600D03*
X112835200Y-91498600D03*
X112835200Y-92768600D03*
X112835200Y-94038600D03*
X112835200Y-95308600D03*
X112835200Y-96578600D03*
X112835200Y-97848600D03*
X112835200Y-99118600D03*
X112835200Y-100388600D03*
X112835200Y-101658600D03*
X112835200Y-102928600D03*
D17*
X109550200Y-104418600D03*
X108280200Y-104418600D03*
X107010200Y-104418600D03*
X105740200Y-104418600D03*
X104470200Y-104418600D03*
X103200200Y-104418600D03*
X101930200Y-104418600D03*
X100660200Y-104418600D03*
X99390200Y-104418600D03*
X98120200Y-104418600D03*
D16*
X94835200Y-102928600D03*
X94835200Y-101658600D03*
X94835200Y-100388600D03*
X94835200Y-99118600D03*
X94835200Y-97848600D03*
X94835200Y-96578600D03*
X94835200Y-95308600D03*
X94835200Y-94038600D03*
X94835200Y-92768600D03*
X94835200Y-91498600D03*
X94835200Y-90228600D03*
X94835200Y-88958600D03*
X94835200Y-87688600D03*
X94835200Y-86418600D03*
D18*
X103535200Y-94118600D03*
D12*
X92989400Y-105168700D03*
D13*
X92989400Y-107708700D03*
D12*
X113779300Y-107213400D03*
D13*
X111239300Y-107213400D03*
D19*
X110124000Y-64770000D03*
X109424000Y-64770000D03*
X108724000Y-64770000D03*
X108024000Y-64770000D03*
X107324000Y-64770000D03*
X106624000Y-64770000D03*
X105924000Y-64770000D03*
X105224000Y-64770000D03*
X104524000Y-64770000D03*
X103824000Y-64770000D03*
X103124000Y-64770000D03*
X102424000Y-64770000D03*
D20*
X110395000Y-138725000D03*
X110395000Y-144485000D03*
X114395000Y-144485000D03*
X114395000Y-138725000D03*
X92615000Y-127295000D03*
X92615000Y-133055000D03*
X96615000Y-133055000D03*
X96615000Y-127295000D03*
D21*
X106385000Y-121825000D03*
X100625000Y-121825000D03*
X100625000Y-125825000D03*
X106385000Y-125825000D03*
D20*
X110395000Y-127295000D03*
X110395000Y-133055000D03*
X114395000Y-133055000D03*
X114395000Y-127295000D03*
X101505000Y-133645000D03*
X101505000Y-139405000D03*
X105505000Y-139405000D03*
X105505000Y-133645000D03*
D22*
X102108000Y-114300000D03*
X102870000Y-119316500D03*
X99136200Y-109194600D03*
X98120200Y-91033600D03*
X105029000Y-107061000D03*
X108407200Y-113480600D03*
X103835200Y-109448600D03*
X108788200Y-86969600D03*
X98247200Y-86969600D03*
X96774000Y-104648000D03*
X97790000Y-106426000D03*
X99263200Y-113480600D03*
X95326200Y-89001600D03*
X107975400Y-107784900D03*
X103886000Y-58978800D03*
X110845600Y-57454800D03*
X104216200Y-68732400D03*
X115468400Y-88392000D03*
X116179600Y-87909400D03*
X105232200Y-66929000D03*
X96672400Y-99136200D03*
X108204000Y-56667400D03*
X92913200Y-95402400D03*
X104013000Y-56565800D03*
X110172500Y-123253500D03*
X109550200Y-104418600D03*
X109220000Y-102362000D03*
X110109000Y-121793000D03*
X105918000Y-116967000D03*
X104013000Y-116840000D03*
X100838000Y-116713000D03*
X97028000Y-110617000D03*
X93980000Y-143510000D03*
X109169200Y-100050600D03*
X114300000Y-141605000D03*
X92710000Y-130175000D03*
X105473500Y-123888500D03*
X110490000Y-130175000D03*
X105410000Y-136525000D03*
D23*
X105505000Y-139405000D02*
X104752500Y-139405000D01*
X96615000Y-134588000D02*
X96615000Y-133055000D01*
X98933000Y-136906000D02*
X96615000Y-134588000D01*
X98933000Y-139890500D02*
X98933000Y-136906000D01*
X100520500Y-141478000D02*
X98933000Y-139890500D01*
X102679500Y-141478000D02*
X100520500Y-141478000D01*
X104752500Y-139405000D02*
X102679500Y-141478000D01*
X108521500Y-125412500D02*
X108521500Y-122555000D01*
X102057200Y-114249200D02*
X102057200Y-111702600D01*
X102108000Y-114300000D02*
X102057200Y-114249200D01*
X102870000Y-119761000D02*
X102870000Y-119316500D01*
X103124000Y-120015000D02*
X102870000Y-119761000D01*
X106932602Y-120015000D02*
X103124000Y-120015000D01*
X108458000Y-121540398D02*
X106932602Y-120015000D01*
X108458000Y-122491500D02*
X108458000Y-121540398D01*
X108521500Y-122555000D02*
X108458000Y-122491500D01*
X106385000Y-125825000D02*
X108109000Y-125825000D01*
X112512500Y-125412500D02*
X114395000Y-127295000D01*
X108521500Y-125412500D02*
X112512500Y-125412500D01*
X108109000Y-125825000D02*
X108521500Y-125412500D01*
X114300000Y-135255000D02*
X115570000Y-135255000D01*
X115570000Y-135255000D02*
X116205000Y-134620000D01*
X116205000Y-134620000D02*
X116205000Y-128270000D01*
X116205000Y-128270000D02*
X115230000Y-127295000D01*
X115230000Y-127295000D02*
X114395000Y-127295000D01*
X106385000Y-125825000D02*
X106385000Y-131740000D01*
X106385000Y-131740000D02*
X105505000Y-132620000D01*
X105505000Y-132620000D02*
X105505000Y-133645000D01*
X114395000Y-138725000D02*
X115865000Y-138725000D01*
X115570000Y-144145000D02*
X114735000Y-144145000D01*
X116205000Y-143510000D02*
X115570000Y-144145000D01*
X116205000Y-139065000D02*
X116205000Y-143510000D01*
X115865000Y-138725000D02*
X116205000Y-139065000D01*
X114735000Y-144145000D02*
X114395000Y-144485000D01*
X113665000Y-136525000D02*
X113665000Y-135890000D01*
X114395000Y-135160000D02*
X114395000Y-133055000D01*
X113665000Y-135890000D02*
X114300000Y-135255000D01*
X114300000Y-135255000D02*
X114395000Y-135160000D01*
X107315000Y-136525000D02*
X113665000Y-136525000D01*
X114300000Y-137160000D02*
X114300000Y-138630000D01*
X113665000Y-136525000D02*
X114300000Y-137160000D01*
X114300000Y-138630000D02*
X114395000Y-138725000D01*
X105505000Y-139405000D02*
X105705000Y-139405000D01*
X105705000Y-139405000D02*
X107315000Y-137795000D01*
X106340000Y-133645000D02*
X105505000Y-133645000D01*
X107315000Y-134620000D02*
X106340000Y-133645000D01*
X107315000Y-137795000D02*
X107315000Y-136525000D01*
X107315000Y-136525000D02*
X107315000Y-134620000D01*
X96615000Y-127295000D02*
X99155000Y-127295000D01*
X99155000Y-127295000D02*
X100625000Y-125825000D01*
X96615000Y-133055000D02*
X96615000Y-132810000D01*
X96615000Y-132810000D02*
X94615000Y-130810000D01*
X94615000Y-130810000D02*
X94615000Y-128905000D01*
X94615000Y-128905000D02*
X96225000Y-127295000D01*
X96225000Y-127295000D02*
X96615000Y-127295000D01*
X108024000Y-64770000D02*
X108024000Y-73662200D01*
X100736400Y-89662000D02*
X98120200Y-89662000D01*
X103174800Y-87223600D02*
X100736400Y-89662000D01*
X103174800Y-78511400D02*
X103174800Y-87223600D01*
X108024000Y-73662200D02*
X103174800Y-78511400D01*
X99263200Y-109480600D02*
X100692200Y-109480600D01*
X100692200Y-109480600D02*
X102057200Y-110845600D01*
X102057200Y-110845600D02*
X102057200Y-111702600D01*
X102057200Y-111702600D02*
X103835200Y-113480600D01*
X99136200Y-109194600D02*
X99263200Y-109321600D01*
X99263200Y-109321600D02*
X99263200Y-109480600D01*
X94835200Y-87688600D02*
X97188200Y-87688600D01*
X98120200Y-88620600D02*
X98120200Y-89662000D01*
X98120200Y-89662000D02*
X98120200Y-91033600D01*
X97188200Y-87688600D02*
X98120200Y-88620600D01*
X94835200Y-86418600D02*
X92768600Y-86418600D01*
X107324000Y-67783600D02*
X107324000Y-64770000D01*
X106172000Y-68935600D02*
X107324000Y-67783600D01*
X106172000Y-70205600D02*
X106172000Y-68935600D01*
X104190800Y-72186800D02*
X106172000Y-70205600D01*
X95859600Y-72186800D02*
X104190800Y-72186800D01*
X92252800Y-75793600D02*
X95859600Y-72186800D01*
X92252800Y-85902800D02*
X92252800Y-75793600D01*
X92768600Y-86418600D02*
X92252800Y-85902800D01*
X112979200Y-113180600D02*
X114403400Y-113180600D01*
X114808000Y-108242100D02*
X113779300Y-107213400D01*
X114808000Y-112776000D02*
X114808000Y-108242100D01*
X114403400Y-113180600D02*
X114808000Y-112776000D01*
X103835200Y-109480600D02*
X104641400Y-109480600D01*
X105029000Y-109093000D02*
X105029000Y-107061000D01*
X104641400Y-109480600D02*
X105029000Y-109093000D01*
X95275400Y-107213400D02*
X93484700Y-107213400D01*
X93484700Y-107213400D02*
X92989400Y-107708700D01*
X106908600Y-64770000D02*
X106908600Y-56134000D01*
X106908600Y-56134000D02*
X106451400Y-55676800D01*
X107324000Y-64770000D02*
X106908600Y-64770000D01*
X106908600Y-64770000D02*
X106624000Y-64770000D01*
X110124000Y-64770000D02*
X109424000Y-64770000D01*
X102424000Y-64770000D02*
X102424000Y-55995800D01*
X102424000Y-55995800D02*
X102743000Y-55676800D01*
X102743000Y-55676800D02*
X106451400Y-55676800D01*
X109956600Y-56007000D02*
X109956600Y-64602600D01*
X106451400Y-55676800D02*
X109626400Y-55676800D01*
X109626400Y-55676800D02*
X109956600Y-56007000D01*
X109956600Y-64602600D02*
X110124000Y-64770000D01*
X108707200Y-113180600D02*
X108407200Y-113480600D01*
X103835200Y-109448600D02*
X103835200Y-109480600D01*
X99009200Y-118338600D02*
X99009200Y-117576600D01*
X99009200Y-117576600D02*
X100914200Y-115671600D01*
X100914200Y-115671600D02*
X104597200Y-115671600D01*
X104597200Y-115671600D02*
X105613200Y-114655600D01*
X105613200Y-114655600D02*
X105613200Y-111258600D01*
X105613200Y-111258600D02*
X103835200Y-109480600D01*
X98120200Y-104418600D02*
X98070200Y-104418600D01*
X98070200Y-104418600D02*
X95275400Y-107213400D01*
X95275400Y-107213400D02*
X93294200Y-109194600D01*
X93294200Y-109194600D02*
X93294200Y-111783600D01*
X93294200Y-111783600D02*
X94691200Y-113180600D01*
X112979200Y-113180600D02*
X108707200Y-113180600D01*
X99009200Y-118338600D02*
X98755200Y-118338600D01*
X98755200Y-118338600D02*
X94691200Y-114274600D01*
X94691200Y-114274600D02*
X94691200Y-113180600D01*
X112835200Y-86418600D02*
X109720200Y-86418600D01*
X109169200Y-86969600D02*
X108788200Y-86969600D01*
X109720200Y-86418600D02*
X109169200Y-86969600D01*
X94835200Y-86418600D02*
X98036200Y-86418600D01*
X98247200Y-86629600D02*
X98247200Y-86969600D01*
X98036200Y-86418600D02*
X98247200Y-86629600D01*
X94691200Y-109780600D02*
X94691200Y-109524800D01*
X94691200Y-109524800D02*
X97790000Y-106426000D01*
X96324600Y-88958600D02*
X94835200Y-88958600D01*
X96520000Y-89154000D02*
X96324600Y-88958600D01*
X97282000Y-89154000D02*
X96520000Y-89154000D01*
X97282000Y-92202000D02*
X97282000Y-89154000D01*
X98806000Y-93726000D02*
X97282000Y-92202000D01*
X98806000Y-101092000D02*
X98806000Y-93726000D01*
X97028000Y-102870000D02*
X98806000Y-101092000D01*
X97028000Y-104394000D02*
X97028000Y-102870000D01*
X96774000Y-104648000D02*
X97028000Y-104394000D01*
X94691200Y-109780600D02*
X94691200Y-109423200D01*
X98342200Y-113480600D02*
X97231200Y-112369600D01*
X97231200Y-112369600D02*
X97231200Y-112320600D01*
X94691200Y-109780600D02*
X97231200Y-112320600D01*
X99263200Y-113480600D02*
X98342200Y-113480600D01*
X95326200Y-89001600D02*
X95283200Y-88958600D01*
X95283200Y-88958600D02*
X94835200Y-88958600D01*
X112835200Y-102928600D02*
X112835200Y-104182400D01*
X112547400Y-106553000D02*
X112547400Y-109348800D01*
X112420400Y-106426000D02*
X112547400Y-106553000D01*
X112420400Y-104597200D02*
X112420400Y-106426000D01*
X112835200Y-104182400D02*
X112420400Y-104597200D01*
X112547400Y-109348800D02*
X112979200Y-109780600D01*
X109169200Y-118338600D02*
X109169200Y-117322600D01*
X107359200Y-109480600D02*
X108407200Y-109480600D01*
X107010200Y-109829600D02*
X107359200Y-109480600D01*
X107010200Y-115290600D02*
X107010200Y-109829600D01*
X107264200Y-115544600D02*
X107010200Y-115290600D01*
X107391200Y-115544600D02*
X107264200Y-115544600D01*
X109169200Y-117322600D02*
X107391200Y-115544600D01*
X112979200Y-103072600D02*
X112835200Y-102928600D01*
X108407200Y-109480600D02*
X112679200Y-109480600D01*
X112679200Y-109480600D02*
X112979200Y-109780600D01*
X108064300Y-107696000D02*
X110756700Y-107696000D01*
X107975400Y-107784900D02*
X108064300Y-107696000D01*
X110756700Y-107696000D02*
X111239300Y-107213400D01*
X112835200Y-87688600D02*
X115181200Y-87688600D01*
X103824000Y-63006200D02*
X103824000Y-64770000D01*
X103733600Y-62915800D02*
X103824000Y-63006200D01*
X103733600Y-59131200D02*
X103733600Y-62915800D01*
X103886000Y-58978800D02*
X103733600Y-59131200D01*
X114503200Y-57454800D02*
X110845600Y-57454800D01*
X116255800Y-59207400D02*
X114503200Y-57454800D01*
X116255800Y-86614000D02*
X116255800Y-59207400D01*
X115181200Y-87688600D02*
X116255800Y-86614000D01*
X112835200Y-96578600D02*
X114825600Y-96578600D01*
X104524000Y-66170000D02*
X104524000Y-64770000D01*
X104597200Y-66243200D02*
X104524000Y-66170000D01*
X104597200Y-68351400D02*
X104597200Y-66243200D01*
X104216200Y-68732400D02*
X104597200Y-68351400D01*
X115493800Y-88417400D02*
X115468400Y-88392000D01*
X115493800Y-95910400D02*
X115493800Y-88417400D01*
X114825600Y-96578600D02*
X115493800Y-95910400D01*
X114978000Y-97848600D02*
X116179600Y-96647000D01*
X116179600Y-96647000D02*
X116179600Y-87909400D01*
X105232200Y-66929000D02*
X105224000Y-66920800D01*
X105224000Y-64770000D02*
X105224000Y-66920800D01*
X114978000Y-97848600D02*
X112835200Y-97848600D01*
X108724000Y-64770000D02*
X108724000Y-57187400D01*
X96654800Y-99118600D02*
X94835200Y-99118600D01*
X96672400Y-99136200D02*
X96654800Y-99118600D01*
X108724000Y-57187400D02*
X108204000Y-56667400D01*
X103124000Y-64770000D02*
X103124000Y-67716400D01*
X91338400Y-102031800D02*
X94462000Y-102031800D01*
X91084400Y-101777800D02*
X91338400Y-102031800D01*
X91084400Y-75590400D02*
X91084400Y-101777800D01*
X95834200Y-70840600D02*
X91084400Y-75590400D01*
X99999800Y-70840600D02*
X95834200Y-70840600D01*
X103124000Y-67716400D02*
X99999800Y-70840600D01*
X94462000Y-102031800D02*
X94835200Y-101658600D01*
X105924000Y-64770000D02*
X105924000Y-58476800D01*
X93007000Y-95308600D02*
X94835200Y-95308600D01*
X92913200Y-95402400D02*
X93007000Y-95308600D01*
X105924000Y-58476800D02*
X104013000Y-56565800D01*
X114358600Y-101658600D02*
X115570000Y-102870000D01*
X115570000Y-102870000D02*
X115570000Y-115570000D01*
X115570000Y-115570000D02*
X114300000Y-116840000D01*
X114300000Y-116840000D02*
X113030000Y-116840000D01*
X113030000Y-116840000D02*
X112395000Y-117475000D01*
X112395000Y-117475000D02*
X112395000Y-120523000D01*
X114358600Y-101658600D02*
X112835200Y-101658600D01*
X111442500Y-121475500D02*
X112395000Y-120523000D01*
X111442500Y-121983500D02*
X111442500Y-121475500D01*
X110172500Y-123253500D02*
X111442500Y-121983500D01*
X109220000Y-102362000D02*
X108280200Y-103301800D01*
X108280200Y-104418600D02*
X108280200Y-103301800D01*
X99390200Y-104418600D02*
X99390200Y-106222800D01*
X109347000Y-121793000D02*
X110109000Y-121793000D01*
X107950000Y-120396000D02*
X109347000Y-121793000D01*
X107950000Y-117475000D02*
X107950000Y-120396000D01*
X107315000Y-116840000D02*
X107950000Y-117475000D01*
X106045000Y-116840000D02*
X107315000Y-116840000D01*
X105918000Y-116967000D02*
X106045000Y-116840000D01*
X100965000Y-116840000D02*
X104013000Y-116840000D01*
X100838000Y-116713000D02*
X100965000Y-116840000D01*
X97409000Y-110236000D02*
X97028000Y-110617000D01*
X97409000Y-108204000D02*
X97409000Y-110236000D01*
X99390200Y-106222800D02*
X97409000Y-108204000D01*
X92583000Y-124714000D02*
X92519500Y-124777500D01*
X93662500Y-142557500D02*
X93662500Y-127317500D01*
X93662500Y-127317500D02*
X93662500Y-125920500D01*
X93662500Y-125920500D02*
X92519500Y-124777500D01*
X94835200Y-102928600D02*
X91508400Y-102928600D01*
X94488000Y-120904000D02*
X92583000Y-122809000D01*
X94488000Y-117348000D02*
X94488000Y-120904000D01*
X90932000Y-113792000D02*
X94488000Y-117348000D01*
X90932000Y-103505000D02*
X90932000Y-113792000D01*
X91508400Y-102928600D02*
X90932000Y-103505000D01*
X92583000Y-122809000D02*
X92583000Y-124714000D01*
X93662500Y-143192500D02*
X93662500Y-142557500D01*
X93980000Y-143510000D02*
X93662500Y-143192500D01*
X110705900Y-104432100D02*
X110705900Y-103098600D01*
X110705900Y-103098600D02*
X110566200Y-102958900D01*
X107111800Y-107061000D02*
X108902500Y-107061000D01*
X110705900Y-105664000D02*
X110705900Y-104432100D01*
X110705900Y-104432100D02*
X110705900Y-104394000D01*
X109943900Y-106426000D02*
X110705900Y-105664000D01*
X109537500Y-106426000D02*
X109943900Y-106426000D01*
X108902500Y-107061000D02*
X109537500Y-106426000D01*
X104089200Y-118338600D02*
X104089200Y-117830600D01*
X104089200Y-117830600D02*
X106248200Y-115671600D01*
X106248200Y-115671600D02*
X106248200Y-107924600D01*
X106248200Y-107924600D02*
X107111800Y-107061000D01*
X107111800Y-107061000D02*
X107137200Y-107035600D01*
X109974200Y-90228600D02*
X112835200Y-90228600D01*
X108280200Y-100177600D02*
X108280200Y-91922600D01*
X110566200Y-102463600D02*
X108280200Y-100177600D01*
X110566200Y-102958900D02*
X110566200Y-102463600D01*
X108280200Y-91922600D02*
X109974200Y-90228600D01*
X110566200Y-102971600D02*
X110566200Y-102958900D01*
X112835200Y-91498600D02*
X109847200Y-91498600D01*
X108788200Y-99669600D02*
X109169200Y-100050600D01*
X108788200Y-92557600D02*
X108788200Y-99669600D01*
X109847200Y-91498600D02*
X108788200Y-92557600D01*
X112395000Y-141605000D02*
X114300000Y-141605000D01*
X110395000Y-144485000D02*
X111420000Y-144485000D01*
X112395000Y-140335000D02*
X110785000Y-138725000D01*
X112395000Y-143510000D02*
X112395000Y-141605000D01*
X112395000Y-141605000D02*
X112395000Y-140335000D01*
X111420000Y-144485000D02*
X112395000Y-143510000D01*
X110785000Y-138725000D02*
X110395000Y-138725000D01*
X92710000Y-130175000D02*
X92710000Y-127390000D01*
X92710000Y-127390000D02*
X92615000Y-127295000D01*
X92615000Y-133055000D02*
X92615000Y-130270000D01*
X92615000Y-130270000D02*
X92710000Y-130175000D01*
X106385000Y-121825000D02*
X106385000Y-122977000D01*
X106385000Y-122977000D02*
X105473500Y-123888500D01*
X100625000Y-121825000D02*
X102267000Y-121825000D01*
X102267000Y-121825000D02*
X106385000Y-121825000D01*
X110490000Y-130175000D02*
X110490000Y-127390000D01*
X110490000Y-127390000D02*
X110395000Y-127295000D01*
X110395000Y-133055000D02*
X110395000Y-130270000D01*
X110395000Y-130270000D02*
X110490000Y-130175000D01*
X105410000Y-136525000D02*
X104775000Y-136525000D01*
X104775000Y-136525000D02*
X102870000Y-134620000D01*
X102480000Y-134620000D02*
X101505000Y-133645000D01*
X102870000Y-134620000D02*
X102480000Y-134620000D01*
X101505000Y-139405000D02*
X101895000Y-139405000D01*
X101895000Y-139405000D02*
X104775000Y-136525000D01*
D24*
G36*
X96219479Y-89454520D02*
X96286586Y-89499359D01*
X96357360Y-89546649D01*
X96520000Y-89579000D01*
X96857000Y-89579000D01*
X96857000Y-92202000D01*
X96879527Y-92315249D01*
X96889351Y-92364641D01*
X96981480Y-92502520D01*
X98381000Y-93902041D01*
X98381000Y-100915959D01*
X96727480Y-102569480D01*
X96635351Y-102707359D01*
X96635351Y-102707360D01*
X96603000Y-102870000D01*
X96603000Y-104069455D01*
X96434571Y-104139048D01*
X96265641Y-104307683D01*
X96174104Y-104528129D01*
X96173896Y-104766824D01*
X96265048Y-104987429D01*
X96433683Y-105156359D01*
X96654129Y-105247896D01*
X96892824Y-105248104D01*
X97113429Y-105156952D01*
X97282359Y-104988317D01*
X97370200Y-104776772D01*
X97370200Y-105268600D01*
X97446425Y-105551807D01*
X97625226Y-105784286D01*
X97697523Y-105825919D01*
X97671176Y-105825896D01*
X97450571Y-105917048D01*
X97281641Y-106085683D01*
X97190104Y-106306129D01*
X97190000Y-106424960D01*
X94598276Y-109016684D01*
X94557859Y-109024723D01*
X93841200Y-109024723D01*
X93730027Y-109045642D01*
X93627921Y-109111345D01*
X93559422Y-109211597D01*
X93535323Y-109330600D01*
X93535323Y-110230600D01*
X93556242Y-110341773D01*
X93621945Y-110443879D01*
X93722197Y-110512378D01*
X93841200Y-110536477D01*
X94846037Y-110536477D01*
X96837744Y-112528185D01*
X96838551Y-112532241D01*
X96930680Y-112670120D01*
X98041679Y-113781120D01*
X98070739Y-113800537D01*
X98107323Y-113824982D01*
X98107323Y-114480600D01*
X98128242Y-114591773D01*
X98193945Y-114693879D01*
X98294197Y-114762378D01*
X98413200Y-114786477D01*
X100113200Y-114786477D01*
X100224373Y-114765558D01*
X100326479Y-114699855D01*
X100394978Y-114599603D01*
X100419077Y-114480600D01*
X100419077Y-112480600D01*
X100398158Y-112369427D01*
X100332455Y-112267321D01*
X100232203Y-112198822D01*
X100113200Y-112174723D01*
X98413200Y-112174723D01*
X98302027Y-112195642D01*
X98199921Y-112261345D01*
X98131422Y-112361597D01*
X98107323Y-112480600D01*
X98107323Y-112644682D01*
X97624656Y-112162016D01*
X97623849Y-112157960D01*
X97564461Y-112069080D01*
X97531720Y-112020079D01*
X95829422Y-110317782D01*
X95847077Y-110230600D01*
X95847077Y-109330600D01*
X95826158Y-109219427D01*
X95760455Y-109117321D01*
X95724373Y-109092667D01*
X97791039Y-107026001D01*
X97908824Y-107026104D01*
X98040097Y-106971863D01*
X97108480Y-107903480D01*
X97016351Y-108041359D01*
X97016351Y-108041360D01*
X96984000Y-108204000D01*
X96984000Y-110016961D01*
X96909176Y-110016896D01*
X96688571Y-110108048D01*
X96519641Y-110276683D01*
X96428104Y-110497129D01*
X96427896Y-110735824D01*
X96519048Y-110956429D01*
X96687683Y-111125359D01*
X96908129Y-111216896D01*
X97146824Y-111217104D01*
X97367429Y-111125952D01*
X97536359Y-110957317D01*
X97627896Y-110736871D01*
X97628000Y-110618041D01*
X97709520Y-110536521D01*
X97801648Y-110398641D01*
X97801649Y-110398640D01*
X97834000Y-110236000D01*
X97834000Y-108480600D01*
X98107323Y-108480600D01*
X98107323Y-110480600D01*
X98128242Y-110591773D01*
X98193945Y-110693879D01*
X98294197Y-110762378D01*
X98413200Y-110786477D01*
X100113200Y-110786477D01*
X100224373Y-110765558D01*
X100326479Y-110699855D01*
X100394978Y-110599603D01*
X100419077Y-110480600D01*
X100419077Y-109905600D01*
X100516160Y-109905600D01*
X101632200Y-111021641D01*
X101632200Y-113927181D01*
X101599641Y-113959683D01*
X101508104Y-114180129D01*
X101507896Y-114418824D01*
X101599048Y-114639429D01*
X101767683Y-114808359D01*
X101988129Y-114899896D01*
X102226824Y-114900104D01*
X102447429Y-114808952D01*
X102616359Y-114640317D01*
X102707896Y-114419871D01*
X102708104Y-114181176D01*
X102616952Y-113960571D01*
X102482200Y-113825583D01*
X102482200Y-112728640D01*
X102729323Y-112975764D01*
X102729323Y-114480600D01*
X102750242Y-114591773D01*
X102815945Y-114693879D01*
X102916197Y-114762378D01*
X103035200Y-114786477D01*
X104635200Y-114786477D01*
X104746373Y-114765558D01*
X104848479Y-114699855D01*
X104916978Y-114599603D01*
X104941077Y-114480600D01*
X104941077Y-112480600D01*
X104920158Y-112369427D01*
X104854455Y-112267321D01*
X104754203Y-112198822D01*
X104635200Y-112174723D01*
X103130363Y-112174723D01*
X102482200Y-111526560D01*
X102482200Y-110845600D01*
X102460186Y-110734928D01*
X102449849Y-110682959D01*
X102357721Y-110545080D01*
X101418241Y-109605600D01*
X102735200Y-109605600D01*
X102735200Y-110540274D01*
X102780872Y-110650537D01*
X102865264Y-110734928D01*
X102975527Y-110780600D01*
X103710200Y-110780600D01*
X103785200Y-110705600D01*
X103785200Y-109530600D01*
X103885200Y-109530600D01*
X103885200Y-110705600D01*
X103960200Y-110780600D01*
X104694873Y-110780600D01*
X104805136Y-110734928D01*
X104889528Y-110650537D01*
X104935200Y-110540274D01*
X104935200Y-109605600D01*
X104860200Y-109530600D01*
X103885200Y-109530600D01*
X103785200Y-109530600D01*
X102810200Y-109530600D01*
X102735200Y-109605600D01*
X101418241Y-109605600D01*
X100992720Y-109180080D01*
X100854841Y-109087951D01*
X100827857Y-109082584D01*
X100692200Y-109055600D01*
X100419077Y-109055600D01*
X100419077Y-108480600D01*
X100407849Y-108420926D01*
X102735200Y-108420926D01*
X102735200Y-109355600D01*
X102810200Y-109430600D01*
X103785200Y-109430600D01*
X103785200Y-108255600D01*
X103885200Y-108255600D01*
X103885200Y-109430600D01*
X104860200Y-109430600D01*
X104935200Y-109355600D01*
X104935200Y-108420926D01*
X104889528Y-108310663D01*
X104805136Y-108226272D01*
X104694873Y-108180600D01*
X103960200Y-108180600D01*
X103885200Y-108255600D01*
X103785200Y-108255600D01*
X103710200Y-108180600D01*
X102975527Y-108180600D01*
X102865264Y-108226272D01*
X102780872Y-108310663D01*
X102735200Y-108420926D01*
X100407849Y-108420926D01*
X100398158Y-108369427D01*
X100332455Y-108267321D01*
X100232203Y-108198822D01*
X100113200Y-108174723D01*
X98413200Y-108174723D01*
X98302027Y-108195642D01*
X98199921Y-108261345D01*
X98131422Y-108361597D01*
X98107323Y-108480600D01*
X97834000Y-108480600D01*
X97834000Y-108380040D01*
X99690720Y-106523320D01*
X99782849Y-106385441D01*
X99815200Y-106222800D01*
X99815200Y-105849676D01*
X99920530Y-105779296D01*
X100025200Y-105622647D01*
X100129870Y-105779296D01*
X100373187Y-105941876D01*
X100660200Y-105998966D01*
X100947213Y-105941876D01*
X101190530Y-105779296D01*
X101295200Y-105622647D01*
X101399870Y-105779296D01*
X101643187Y-105941876D01*
X101930200Y-105998966D01*
X102217213Y-105941876D01*
X102460530Y-105779296D01*
X102565200Y-105622647D01*
X102669870Y-105779296D01*
X102913187Y-105941876D01*
X103200200Y-105998966D01*
X103487213Y-105941876D01*
X103730530Y-105779296D01*
X103835200Y-105622647D01*
X103939870Y-105779296D01*
X104183187Y-105941876D01*
X104470200Y-105998966D01*
X104757213Y-105941876D01*
X105000530Y-105779296D01*
X105105200Y-105622647D01*
X105209870Y-105779296D01*
X105453187Y-105941876D01*
X105740200Y-105998966D01*
X106027213Y-105941876D01*
X106270530Y-105779296D01*
X106375200Y-105622647D01*
X106479870Y-105779296D01*
X106723187Y-105941876D01*
X107010200Y-105998966D01*
X107297213Y-105941876D01*
X107540530Y-105779296D01*
X107645200Y-105622647D01*
X107749870Y-105779296D01*
X107993187Y-105941876D01*
X108280200Y-105998966D01*
X108567213Y-105941876D01*
X108810530Y-105779296D01*
X108915200Y-105622647D01*
X109019870Y-105779296D01*
X109263187Y-105941876D01*
X109550200Y-105998966D01*
X109824444Y-105944416D01*
X109767860Y-106001000D01*
X109537500Y-106001000D01*
X109374859Y-106033351D01*
X109236980Y-106125479D01*
X108726460Y-106636000D01*
X107264895Y-106636000D01*
X107137200Y-106610601D01*
X106974559Y-106642951D01*
X106836680Y-106735080D01*
X106811283Y-106760477D01*
X106811280Y-106760479D01*
X105947680Y-107624080D01*
X105855551Y-107761959D01*
X105850988Y-107784900D01*
X105823200Y-107924600D01*
X105823200Y-115495560D01*
X104608566Y-116710194D01*
X104521952Y-116500571D01*
X104353317Y-116331641D01*
X104132871Y-116240104D01*
X103894176Y-116239896D01*
X103673571Y-116331048D01*
X103589472Y-116415000D01*
X101364070Y-116415000D01*
X101346952Y-116373571D01*
X101178317Y-116204641D01*
X100957871Y-116113104D01*
X100719176Y-116112896D01*
X100498571Y-116204048D01*
X100329641Y-116372683D01*
X100238104Y-116593129D01*
X100237896Y-116831824D01*
X100329048Y-117052429D01*
X100497683Y-117221359D01*
X100718129Y-117312896D01*
X100956824Y-117313104D01*
X101073245Y-117265000D01*
X101092066Y-117265000D01*
X100736027Y-117502897D01*
X100486739Y-117875984D01*
X100399200Y-118316070D01*
X100399200Y-118361130D01*
X100486739Y-118801216D01*
X100736027Y-119174303D01*
X101109114Y-119423591D01*
X101549200Y-119511130D01*
X101989286Y-119423591D01*
X102270070Y-119235978D01*
X102269896Y-119435324D01*
X102361048Y-119655929D01*
X102445000Y-119740028D01*
X102445000Y-119761000D01*
X102463173Y-119852360D01*
X102477351Y-119923641D01*
X102569480Y-120061520D01*
X102823479Y-120315520D01*
X102890586Y-120360359D01*
X102961360Y-120407649D01*
X103124000Y-120440000D01*
X106756562Y-120440000D01*
X107335685Y-121019123D01*
X105010000Y-121019123D01*
X104898827Y-121040042D01*
X104796721Y-121105745D01*
X104728222Y-121205997D01*
X104704123Y-121325000D01*
X104704123Y-121400000D01*
X102305877Y-121400000D01*
X102305877Y-121325000D01*
X102284958Y-121213827D01*
X102219255Y-121111721D01*
X102119003Y-121043222D01*
X102000000Y-121019123D01*
X99250000Y-121019123D01*
X99138827Y-121040042D01*
X99036721Y-121105745D01*
X98968222Y-121205997D01*
X98944123Y-121325000D01*
X98944123Y-122325000D01*
X98965042Y-122436173D01*
X99030745Y-122538279D01*
X99130997Y-122606778D01*
X99250000Y-122630877D01*
X102000000Y-122630877D01*
X102111173Y-122609958D01*
X102213279Y-122544255D01*
X102281778Y-122444003D01*
X102305877Y-122325000D01*
X102305877Y-122250000D01*
X104704123Y-122250000D01*
X104704123Y-122325000D01*
X104725042Y-122436173D01*
X104790745Y-122538279D01*
X104890997Y-122606778D01*
X105010000Y-122630877D01*
X105960000Y-122630877D01*
X105960000Y-122800959D01*
X105472461Y-123288499D01*
X105354676Y-123288396D01*
X105134071Y-123379548D01*
X104965141Y-123548183D01*
X104873604Y-123768629D01*
X104873396Y-124007324D01*
X104964548Y-124227929D01*
X105133183Y-124396859D01*
X105353629Y-124488396D01*
X105592324Y-124488604D01*
X105812929Y-124397452D01*
X105981859Y-124228817D01*
X106073396Y-124008371D01*
X106073500Y-123889541D01*
X106685521Y-123277520D01*
X106777649Y-123139641D01*
X106810000Y-122977000D01*
X106810000Y-122630877D01*
X107760000Y-122630877D01*
X107871173Y-122609958D01*
X107973279Y-122544255D01*
X108033000Y-122456850D01*
X108033000Y-122491500D01*
X108045631Y-122555000D01*
X108065351Y-122654141D01*
X108096500Y-122700758D01*
X108096500Y-125236460D01*
X108056705Y-125276255D01*
X108044958Y-125213827D01*
X107979255Y-125111721D01*
X107879003Y-125043222D01*
X107760000Y-125019123D01*
X105010000Y-125019123D01*
X104898827Y-125040042D01*
X104796721Y-125105745D01*
X104728222Y-125205997D01*
X104704123Y-125325000D01*
X104704123Y-126325000D01*
X104725042Y-126436173D01*
X104790745Y-126538279D01*
X104890997Y-126606778D01*
X105010000Y-126630877D01*
X105960000Y-126630877D01*
X105960000Y-131563960D01*
X105559837Y-131964123D01*
X105005000Y-131964123D01*
X104893827Y-131985042D01*
X104791721Y-132050745D01*
X104723222Y-132150997D01*
X104699123Y-132270000D01*
X104699123Y-135020000D01*
X104720042Y-135131173D01*
X104785745Y-135233279D01*
X104885997Y-135301778D01*
X105005000Y-135325877D01*
X106005000Y-135325877D01*
X106116173Y-135304958D01*
X106218279Y-135239255D01*
X106286778Y-135139003D01*
X106310877Y-135020000D01*
X106310877Y-134216917D01*
X106890000Y-134796041D01*
X106890000Y-137618960D01*
X106310877Y-138198083D01*
X106310877Y-138030000D01*
X106289958Y-137918827D01*
X106224255Y-137816721D01*
X106124003Y-137748222D01*
X106005000Y-137724123D01*
X105005000Y-137724123D01*
X104893827Y-137745042D01*
X104791721Y-137810745D01*
X104723222Y-137910997D01*
X104699123Y-138030000D01*
X104699123Y-138990617D01*
X104589859Y-139012351D01*
X104451980Y-139104479D01*
X102503460Y-141053000D01*
X102134756Y-141053000D01*
X102218279Y-140999255D01*
X102286778Y-140899003D01*
X102310877Y-140780000D01*
X102310877Y-139590163D01*
X104951040Y-136950000D01*
X104986470Y-136950000D01*
X105069683Y-137033359D01*
X105290129Y-137124896D01*
X105528824Y-137125104D01*
X105749429Y-137033952D01*
X105918359Y-136865317D01*
X106009896Y-136644871D01*
X106010104Y-136406176D01*
X105918952Y-136185571D01*
X105750317Y-136016641D01*
X105529871Y-135925104D01*
X105291176Y-135924896D01*
X105070571Y-136016048D01*
X104986472Y-136100000D01*
X104951040Y-136100000D01*
X103170520Y-134319480D01*
X103032641Y-134227351D01*
X103005657Y-134221984D01*
X102870000Y-134195000D01*
X102656041Y-134195000D01*
X102310877Y-133849836D01*
X102310877Y-132270000D01*
X102289958Y-132158827D01*
X102224255Y-132056721D01*
X102124003Y-131988222D01*
X102005000Y-131964123D01*
X101005000Y-131964123D01*
X100893827Y-131985042D01*
X100791721Y-132050745D01*
X100723222Y-132150997D01*
X100699123Y-132270000D01*
X100699123Y-135020000D01*
X100720042Y-135131173D01*
X100785745Y-135233279D01*
X100885997Y-135301778D01*
X101005000Y-135325877D01*
X102005000Y-135325877D01*
X102116173Y-135304958D01*
X102218279Y-135239255D01*
X102286778Y-135139003D01*
X102310877Y-135020000D01*
X102310877Y-135008317D01*
X102317360Y-135012649D01*
X102480000Y-135045000D01*
X102693960Y-135045000D01*
X104173960Y-136525000D01*
X102310877Y-138388083D01*
X102310877Y-138030000D01*
X102289958Y-137918827D01*
X102224255Y-137816721D01*
X102124003Y-137748222D01*
X102005000Y-137724123D01*
X101005000Y-137724123D01*
X100893827Y-137745042D01*
X100791721Y-137810745D01*
X100723222Y-137910997D01*
X100699123Y-138030000D01*
X100699123Y-140780000D01*
X100720042Y-140891173D01*
X100785745Y-140993279D01*
X100873150Y-141053000D01*
X100696540Y-141053000D01*
X99358000Y-139714460D01*
X99358000Y-136906000D01*
X99325649Y-136743360D01*
X99325649Y-136743359D01*
X99233520Y-136605480D01*
X97297257Y-134669217D01*
X97328279Y-134649255D01*
X97396778Y-134549003D01*
X97420877Y-134430000D01*
X97420877Y-131680000D01*
X97399958Y-131568827D01*
X97334255Y-131466721D01*
X97234003Y-131398222D01*
X97115000Y-131374123D01*
X96115000Y-131374123D01*
X96003827Y-131395042D01*
X95901721Y-131460745D01*
X95887540Y-131481500D01*
X95040000Y-130633960D01*
X95040000Y-129081040D01*
X95809123Y-128311917D01*
X95809123Y-128670000D01*
X95830042Y-128781173D01*
X95895745Y-128883279D01*
X95995997Y-128951778D01*
X96115000Y-128975877D01*
X97115000Y-128975877D01*
X97226173Y-128954958D01*
X97328279Y-128889255D01*
X97396778Y-128789003D01*
X97420877Y-128670000D01*
X97420877Y-127720000D01*
X99155000Y-127720000D01*
X99290657Y-127693016D01*
X99317641Y-127687649D01*
X99455520Y-127595520D01*
X100420163Y-126630877D01*
X102000000Y-126630877D01*
X102111173Y-126609958D01*
X102213279Y-126544255D01*
X102281778Y-126444003D01*
X102305877Y-126325000D01*
X102305877Y-125325000D01*
X102284958Y-125213827D01*
X102219255Y-125111721D01*
X102119003Y-125043222D01*
X102000000Y-125019123D01*
X99250000Y-125019123D01*
X99138827Y-125040042D01*
X99036721Y-125105745D01*
X98968222Y-125205997D01*
X98944123Y-125325000D01*
X98944123Y-126325000D01*
X98965042Y-126436173D01*
X99030745Y-126538279D01*
X99130997Y-126606778D01*
X99223458Y-126625502D01*
X98978960Y-126870000D01*
X97420877Y-126870000D01*
X97420877Y-125920000D01*
X97399958Y-125808827D01*
X97334255Y-125706721D01*
X97234003Y-125638222D01*
X97115000Y-125614123D01*
X96115000Y-125614123D01*
X96003827Y-125635042D01*
X95901721Y-125700745D01*
X95833222Y-125800997D01*
X95809123Y-125920000D01*
X95809123Y-127109837D01*
X94314480Y-128604480D01*
X94222351Y-128742359D01*
X94222351Y-128742360D01*
X94190000Y-128905000D01*
X94190000Y-130810000D01*
X94216984Y-130945657D01*
X94222351Y-130972641D01*
X94314480Y-131110520D01*
X95809123Y-132605163D01*
X95809123Y-134430000D01*
X95830042Y-134541173D01*
X95895745Y-134643279D01*
X95995997Y-134711778D01*
X96115000Y-134735877D01*
X96219414Y-134735877D01*
X96222351Y-134750641D01*
X96314480Y-134888520D01*
X98508000Y-137082040D01*
X98508000Y-139890500D01*
X98518314Y-139942351D01*
X98540351Y-140053141D01*
X98632480Y-140191020D01*
X100219980Y-141778520D01*
X100357859Y-141870649D01*
X100384843Y-141876016D01*
X100520500Y-141903000D01*
X102679500Y-141903000D01*
X102815157Y-141876016D01*
X102842141Y-141870649D01*
X102980020Y-141778520D01*
X104699123Y-140059418D01*
X104699123Y-140780000D01*
X104720042Y-140891173D01*
X104785745Y-140993279D01*
X104885997Y-141061778D01*
X105005000Y-141085877D01*
X106005000Y-141085877D01*
X106116173Y-141064958D01*
X106218279Y-140999255D01*
X106286778Y-140899003D01*
X106310877Y-140780000D01*
X106310877Y-139400163D01*
X107615520Y-138095520D01*
X107707649Y-137957641D01*
X107740000Y-137795000D01*
X107740000Y-137350000D01*
X109589123Y-137350000D01*
X109589123Y-140100000D01*
X109610042Y-140211173D01*
X109675745Y-140313279D01*
X109775997Y-140381778D01*
X109895000Y-140405877D01*
X110895000Y-140405877D01*
X111006173Y-140384958D01*
X111108279Y-140319255D01*
X111176778Y-140219003D01*
X111200877Y-140100000D01*
X111200877Y-139741917D01*
X111970000Y-140511040D01*
X111970000Y-143333959D01*
X111243960Y-144060000D01*
X111200877Y-144060000D01*
X111200877Y-143110000D01*
X111179958Y-142998827D01*
X111114255Y-142896721D01*
X111014003Y-142828222D01*
X110895000Y-142804123D01*
X109895000Y-142804123D01*
X109783827Y-142825042D01*
X109681721Y-142890745D01*
X109613222Y-142990997D01*
X109589123Y-143110000D01*
X109589123Y-145860000D01*
X109610042Y-145971173D01*
X109675745Y-146073279D01*
X109775997Y-146141778D01*
X109895000Y-146165877D01*
X110895000Y-146165877D01*
X111006173Y-146144958D01*
X111108279Y-146079255D01*
X111176778Y-145979003D01*
X111200877Y-145860000D01*
X111200877Y-144910000D01*
X111420000Y-144910000D01*
X111555657Y-144883016D01*
X111582641Y-144877649D01*
X111720520Y-144785520D01*
X112695520Y-143810521D01*
X112787648Y-143672641D01*
X112787649Y-143672640D01*
X112820000Y-143510000D01*
X112820000Y-142030000D01*
X113876470Y-142030000D01*
X113959683Y-142113359D01*
X114180129Y-142204896D01*
X114418824Y-142205104D01*
X114639429Y-142113952D01*
X114808359Y-141945317D01*
X114899896Y-141724871D01*
X114900104Y-141486176D01*
X114808952Y-141265571D01*
X114640317Y-141096641D01*
X114419871Y-141005104D01*
X114181176Y-141004896D01*
X113960571Y-141096048D01*
X113876472Y-141180000D01*
X112820000Y-141180000D01*
X112820000Y-140335000D01*
X112796927Y-140219003D01*
X112787649Y-140172359D01*
X112695520Y-140034480D01*
X111200877Y-138539837D01*
X111200877Y-137350000D01*
X111179958Y-137238827D01*
X111114255Y-137136721D01*
X111014003Y-137068222D01*
X110895000Y-137044123D01*
X109895000Y-137044123D01*
X109783827Y-137065042D01*
X109681721Y-137130745D01*
X109613222Y-137230997D01*
X109589123Y-137350000D01*
X107740000Y-137350000D01*
X107740000Y-136950000D01*
X113488960Y-136950000D01*
X113676843Y-137137884D01*
X113613222Y-137230997D01*
X113589123Y-137350000D01*
X113589123Y-140100000D01*
X113610042Y-140211173D01*
X113675745Y-140313279D01*
X113775997Y-140381778D01*
X113895000Y-140405877D01*
X114895000Y-140405877D01*
X115006173Y-140384958D01*
X115108279Y-140319255D01*
X115176778Y-140219003D01*
X115200877Y-140100000D01*
X115200877Y-139150000D01*
X115688960Y-139150000D01*
X115780000Y-139241041D01*
X115780000Y-143333959D01*
X115393960Y-143720000D01*
X115200877Y-143720000D01*
X115200877Y-143110000D01*
X115179958Y-142998827D01*
X115114255Y-142896721D01*
X115014003Y-142828222D01*
X114895000Y-142804123D01*
X113895000Y-142804123D01*
X113783827Y-142825042D01*
X113681721Y-142890745D01*
X113613222Y-142990997D01*
X113589123Y-143110000D01*
X113589123Y-145860000D01*
X113610042Y-145971173D01*
X113675745Y-146073279D01*
X113775997Y-146141778D01*
X113895000Y-146165877D01*
X114895000Y-146165877D01*
X115006173Y-146144958D01*
X115108279Y-146079255D01*
X115176778Y-145979003D01*
X115200877Y-145860000D01*
X115200877Y-144570000D01*
X115570000Y-144570000D01*
X115705657Y-144543016D01*
X115732641Y-144537649D01*
X115870520Y-144445520D01*
X116465000Y-143851041D01*
X116465000Y-144743068D01*
X116293412Y-145605697D01*
X115825691Y-146305691D01*
X115125697Y-146773412D01*
X114263068Y-146945000D01*
X92746932Y-146945000D01*
X91884303Y-146773412D01*
X91184309Y-146305691D01*
X90716588Y-145605697D01*
X90545000Y-144743068D01*
X90545000Y-144612756D01*
X102231757Y-144612756D01*
X102444445Y-145127500D01*
X102837928Y-145521670D01*
X103352301Y-145735257D01*
X103909256Y-145735743D01*
X104424000Y-145523055D01*
X104818170Y-145129572D01*
X105031757Y-144615199D01*
X105032243Y-144058244D01*
X104819555Y-143543500D01*
X104426072Y-143149330D01*
X103911699Y-142935743D01*
X103354744Y-142935257D01*
X102840000Y-143147945D01*
X102445830Y-143541428D01*
X102232243Y-144055801D01*
X102231757Y-144612756D01*
X90545000Y-144612756D01*
X90545000Y-120021454D01*
X90616035Y-120127765D01*
X91203838Y-120520523D01*
X91897200Y-120658441D01*
X92590562Y-120520523D01*
X93178365Y-120127765D01*
X93571123Y-119539962D01*
X93709041Y-118846600D01*
X93571123Y-118153238D01*
X93178365Y-117565435D01*
X92590562Y-117172677D01*
X91897200Y-117034759D01*
X91203838Y-117172677D01*
X90616035Y-117565435D01*
X90545000Y-117671746D01*
X90545000Y-113963095D01*
X90631480Y-114092520D01*
X94063000Y-117524041D01*
X94063000Y-120727960D01*
X92282480Y-122508480D01*
X92190351Y-122646359D01*
X92190351Y-122646360D01*
X92158000Y-122809000D01*
X92158000Y-124568242D01*
X92126851Y-124614859D01*
X92094501Y-124777500D01*
X92126851Y-124940141D01*
X92218980Y-125078020D01*
X92755083Y-125614123D01*
X92115000Y-125614123D01*
X92003827Y-125635042D01*
X91901721Y-125700745D01*
X91833222Y-125800997D01*
X91809123Y-125920000D01*
X91809123Y-128670000D01*
X91830042Y-128781173D01*
X91895745Y-128883279D01*
X91995997Y-128951778D01*
X92115000Y-128975877D01*
X92285000Y-128975877D01*
X92285000Y-129751470D01*
X92201641Y-129834683D01*
X92110104Y-130055129D01*
X92109896Y-130293824D01*
X92190000Y-130487691D01*
X92190000Y-131374123D01*
X92115000Y-131374123D01*
X92003827Y-131395042D01*
X91901721Y-131460745D01*
X91833222Y-131560997D01*
X91809123Y-131680000D01*
X91809123Y-134430000D01*
X91830042Y-134541173D01*
X91895745Y-134643279D01*
X91995997Y-134711778D01*
X92115000Y-134735877D01*
X93115000Y-134735877D01*
X93226173Y-134714958D01*
X93237500Y-134707669D01*
X93237500Y-143192500D01*
X93264484Y-143328157D01*
X93269851Y-143355141D01*
X93361980Y-143493020D01*
X93379999Y-143511039D01*
X93379896Y-143628824D01*
X93471048Y-143849429D01*
X93639683Y-144018359D01*
X93860129Y-144109896D01*
X94098824Y-144110104D01*
X94319429Y-144018952D01*
X94488359Y-143850317D01*
X94579896Y-143629871D01*
X94580104Y-143391176D01*
X94488952Y-143170571D01*
X94320317Y-143001641D01*
X94099871Y-142910104D01*
X94087500Y-142910093D01*
X94087500Y-125920500D01*
X94055149Y-125757860D01*
X94055149Y-125757859D01*
X93963020Y-125619980D01*
X93008000Y-124664960D01*
X93008000Y-122985040D01*
X94788520Y-121204520D01*
X94880649Y-121066641D01*
X94913000Y-120904000D01*
X94913000Y-118463600D01*
X97859200Y-118463600D01*
X97859200Y-119248274D01*
X97904872Y-119358537D01*
X97989264Y-119442928D01*
X98099527Y-119488600D01*
X98884200Y-119488600D01*
X98959200Y-119413600D01*
X98959200Y-118388600D01*
X99059200Y-118388600D01*
X99059200Y-119413600D01*
X99134200Y-119488600D01*
X99918873Y-119488600D01*
X100029136Y-119442928D01*
X100113528Y-119358537D01*
X100159200Y-119248274D01*
X100159200Y-118463600D01*
X100084200Y-118388600D01*
X99059200Y-118388600D01*
X98959200Y-118388600D01*
X97934200Y-118388600D01*
X97859200Y-118463600D01*
X94913000Y-118463600D01*
X94913000Y-117428926D01*
X97859200Y-117428926D01*
X97859200Y-118213600D01*
X97934200Y-118288600D01*
X98959200Y-118288600D01*
X98959200Y-117263600D01*
X99059200Y-117263600D01*
X99059200Y-118288600D01*
X100084200Y-118288600D01*
X100159200Y-118213600D01*
X100159200Y-117428926D01*
X100113528Y-117318663D01*
X100029136Y-117234272D01*
X99918873Y-117188600D01*
X99134200Y-117188600D01*
X99059200Y-117263600D01*
X98959200Y-117263600D01*
X98884200Y-117188600D01*
X98099527Y-117188600D01*
X97989264Y-117234272D01*
X97904872Y-117318663D01*
X97859200Y-117428926D01*
X94913000Y-117428926D01*
X94913000Y-117348000D01*
X94880649Y-117185360D01*
X94843419Y-117129641D01*
X94788520Y-117047479D01*
X91357000Y-113615960D01*
X91357000Y-113305600D01*
X93541200Y-113305600D01*
X93541200Y-113690274D01*
X93586872Y-113800537D01*
X93671264Y-113884928D01*
X93781527Y-113930600D01*
X94566200Y-113930600D01*
X94641200Y-113855600D01*
X94641200Y-113230600D01*
X94741200Y-113230600D01*
X94741200Y-113855600D01*
X94816200Y-113930600D01*
X95600873Y-113930600D01*
X95711136Y-113884928D01*
X95795528Y-113800537D01*
X95841200Y-113690274D01*
X95841200Y-113305600D01*
X95766200Y-113230600D01*
X94741200Y-113230600D01*
X94641200Y-113230600D01*
X93616200Y-113230600D01*
X93541200Y-113305600D01*
X91357000Y-113305600D01*
X91357000Y-112670926D01*
X93541200Y-112670926D01*
X93541200Y-113055600D01*
X93616200Y-113130600D01*
X94641200Y-113130600D01*
X94641200Y-112505600D01*
X94741200Y-112505600D01*
X94741200Y-113130600D01*
X95766200Y-113130600D01*
X95841200Y-113055600D01*
X95841200Y-112670926D01*
X95795528Y-112560663D01*
X95711136Y-112476272D01*
X95600873Y-112430600D01*
X94816200Y-112430600D01*
X94741200Y-112505600D01*
X94641200Y-112505600D01*
X94566200Y-112430600D01*
X93781527Y-112430600D01*
X93671264Y-112476272D01*
X93586872Y-112560663D01*
X93541200Y-112670926D01*
X91357000Y-112670926D01*
X91357000Y-107937814D01*
X91862454Y-107937814D01*
X92030517Y-108343566D01*
X92346460Y-108662188D01*
X92760285Y-108835650D01*
X92939400Y-108782617D01*
X92939400Y-107758700D01*
X93039400Y-107758700D01*
X93039400Y-108782617D01*
X93218515Y-108835650D01*
X93632340Y-108662188D01*
X93948283Y-108343566D01*
X94116346Y-107937814D01*
X94063237Y-107758700D01*
X93039400Y-107758700D01*
X92939400Y-107758700D01*
X91915563Y-107758700D01*
X91862454Y-107937814D01*
X91357000Y-107937814D01*
X91357000Y-107479586D01*
X91862454Y-107479586D01*
X91915563Y-107658700D01*
X92939400Y-107658700D01*
X92939400Y-106634783D01*
X93039400Y-106634783D01*
X93039400Y-107658700D01*
X94063237Y-107658700D01*
X94116346Y-107479586D01*
X93948283Y-107073834D01*
X93632340Y-106755212D01*
X93218515Y-106581750D01*
X93039400Y-106634783D01*
X92939400Y-106634783D01*
X92760285Y-106581750D01*
X92346460Y-106755212D01*
X92030517Y-107073834D01*
X91862454Y-107479586D01*
X91357000Y-107479586D01*
X91357000Y-104318700D01*
X91833523Y-104318700D01*
X91833523Y-106018700D01*
X91854442Y-106129873D01*
X91920145Y-106231979D01*
X92020397Y-106300478D01*
X92139400Y-106324577D01*
X93839400Y-106324577D01*
X93950573Y-106303658D01*
X94052679Y-106237955D01*
X94121178Y-106137703D01*
X94145277Y-106018700D01*
X94145277Y-104318700D01*
X94124358Y-104207527D01*
X94058655Y-104105421D01*
X93958403Y-104036922D01*
X93839400Y-104012823D01*
X92139400Y-104012823D01*
X92028227Y-104033742D01*
X91926121Y-104099445D01*
X91857622Y-104199697D01*
X91833523Y-104318700D01*
X91357000Y-104318700D01*
X91357000Y-103681040D01*
X91684441Y-103353600D01*
X93404124Y-103353600D01*
X93474504Y-103458930D01*
X93717821Y-103621510D01*
X94004834Y-103678600D01*
X95665566Y-103678600D01*
X95952579Y-103621510D01*
X96195896Y-103458930D01*
X96358476Y-103215613D01*
X96415566Y-102928600D01*
X96358476Y-102641587D01*
X96195896Y-102398270D01*
X96039247Y-102293600D01*
X96195896Y-102188930D01*
X96358476Y-101945613D01*
X96415566Y-101658600D01*
X96358476Y-101371587D01*
X96195896Y-101128270D01*
X96039247Y-101023600D01*
X96195896Y-100918930D01*
X96358476Y-100675613D01*
X96415566Y-100388600D01*
X96358476Y-100101587D01*
X96195896Y-99858270D01*
X96039247Y-99753600D01*
X96195896Y-99648930D01*
X96252252Y-99564588D01*
X96332083Y-99644559D01*
X96552529Y-99736096D01*
X96791224Y-99736304D01*
X97011829Y-99645152D01*
X97180759Y-99476517D01*
X97272296Y-99256071D01*
X97272504Y-99017376D01*
X97181352Y-98796771D01*
X97012717Y-98627841D01*
X96792271Y-98536304D01*
X96553576Y-98536096D01*
X96332971Y-98627248D01*
X96266503Y-98693600D01*
X96266276Y-98693600D01*
X96195896Y-98588270D01*
X96039247Y-98483600D01*
X96195896Y-98378930D01*
X96358476Y-98135613D01*
X96415566Y-97848600D01*
X96358476Y-97561587D01*
X96195896Y-97318270D01*
X96039247Y-97213600D01*
X96195896Y-97108930D01*
X96358476Y-96865613D01*
X96415566Y-96578600D01*
X96358476Y-96291587D01*
X96195896Y-96048270D01*
X96039247Y-95943600D01*
X96195896Y-95838930D01*
X96358476Y-95595613D01*
X96415566Y-95308600D01*
X96358476Y-95021587D01*
X96195896Y-94778270D01*
X96039247Y-94673600D01*
X96195896Y-94568930D01*
X96358476Y-94325613D01*
X96415566Y-94038600D01*
X96358476Y-93751587D01*
X96195896Y-93508270D01*
X96039247Y-93403600D01*
X96195896Y-93298930D01*
X96358476Y-93055613D01*
X96415566Y-92768600D01*
X96358476Y-92481587D01*
X96195896Y-92238270D01*
X96039247Y-92133600D01*
X96195896Y-92028930D01*
X96358476Y-91785613D01*
X96415566Y-91498600D01*
X96358476Y-91211587D01*
X96195896Y-90968270D01*
X96039247Y-90863600D01*
X96195896Y-90758930D01*
X96358476Y-90515613D01*
X96415566Y-90228600D01*
X96358476Y-89941587D01*
X96195896Y-89698270D01*
X96039247Y-89593600D01*
X96195896Y-89488930D01*
X96219125Y-89454166D01*
X96219479Y-89454520D01*
X96219479Y-89454520D01*
G37*
X96219479Y-89454520D02*
X96286586Y-89499359D01*
X96357360Y-89546649D01*
X96520000Y-89579000D01*
X96857000Y-89579000D01*
X96857000Y-92202000D01*
X96879527Y-92315249D01*
X96889351Y-92364641D01*
X96981480Y-92502520D01*
X98381000Y-93902041D01*
X98381000Y-100915959D01*
X96727480Y-102569480D01*
X96635351Y-102707359D01*
X96635351Y-102707360D01*
X96603000Y-102870000D01*
X96603000Y-104069455D01*
X96434571Y-104139048D01*
X96265641Y-104307683D01*
X96174104Y-104528129D01*
X96173896Y-104766824D01*
X96265048Y-104987429D01*
X96433683Y-105156359D01*
X96654129Y-105247896D01*
X96892824Y-105248104D01*
X97113429Y-105156952D01*
X97282359Y-104988317D01*
X97370200Y-104776772D01*
X97370200Y-105268600D01*
X97446425Y-105551807D01*
X97625226Y-105784286D01*
X97697523Y-105825919D01*
X97671176Y-105825896D01*
X97450571Y-105917048D01*
X97281641Y-106085683D01*
X97190104Y-106306129D01*
X97190000Y-106424960D01*
X94598276Y-109016684D01*
X94557859Y-109024723D01*
X93841200Y-109024723D01*
X93730027Y-109045642D01*
X93627921Y-109111345D01*
X93559422Y-109211597D01*
X93535323Y-109330600D01*
X93535323Y-110230600D01*
X93556242Y-110341773D01*
X93621945Y-110443879D01*
X93722197Y-110512378D01*
X93841200Y-110536477D01*
X94846037Y-110536477D01*
X96837744Y-112528185D01*
X96838551Y-112532241D01*
X96930680Y-112670120D01*
X98041679Y-113781120D01*
X98070739Y-113800537D01*
X98107323Y-113824982D01*
X98107323Y-114480600D01*
X98128242Y-114591773D01*
X98193945Y-114693879D01*
X98294197Y-114762378D01*
X98413200Y-114786477D01*
X100113200Y-114786477D01*
X100224373Y-114765558D01*
X100326479Y-114699855D01*
X100394978Y-114599603D01*
X100419077Y-114480600D01*
X100419077Y-112480600D01*
X100398158Y-112369427D01*
X100332455Y-112267321D01*
X100232203Y-112198822D01*
X100113200Y-112174723D01*
X98413200Y-112174723D01*
X98302027Y-112195642D01*
X98199921Y-112261345D01*
X98131422Y-112361597D01*
X98107323Y-112480600D01*
X98107323Y-112644682D01*
X97624656Y-112162016D01*
X97623849Y-112157960D01*
X97564461Y-112069080D01*
X97531720Y-112020079D01*
X95829422Y-110317782D01*
X95847077Y-110230600D01*
X95847077Y-109330600D01*
X95826158Y-109219427D01*
X95760455Y-109117321D01*
X95724373Y-109092667D01*
X97791039Y-107026001D01*
X97908824Y-107026104D01*
X98040097Y-106971863D01*
X97108480Y-107903480D01*
X97016351Y-108041359D01*
X97016351Y-108041360D01*
X96984000Y-108204000D01*
X96984000Y-110016961D01*
X96909176Y-110016896D01*
X96688571Y-110108048D01*
X96519641Y-110276683D01*
X96428104Y-110497129D01*
X96427896Y-110735824D01*
X96519048Y-110956429D01*
X96687683Y-111125359D01*
X96908129Y-111216896D01*
X97146824Y-111217104D01*
X97367429Y-111125952D01*
X97536359Y-110957317D01*
X97627896Y-110736871D01*
X97628000Y-110618041D01*
X97709520Y-110536521D01*
X97801648Y-110398641D01*
X97801649Y-110398640D01*
X97834000Y-110236000D01*
X97834000Y-108480600D01*
X98107323Y-108480600D01*
X98107323Y-110480600D01*
X98128242Y-110591773D01*
X98193945Y-110693879D01*
X98294197Y-110762378D01*
X98413200Y-110786477D01*
X100113200Y-110786477D01*
X100224373Y-110765558D01*
X100326479Y-110699855D01*
X100394978Y-110599603D01*
X100419077Y-110480600D01*
X100419077Y-109905600D01*
X100516160Y-109905600D01*
X101632200Y-111021641D01*
X101632200Y-113927181D01*
X101599641Y-113959683D01*
X101508104Y-114180129D01*
X101507896Y-114418824D01*
X101599048Y-114639429D01*
X101767683Y-114808359D01*
X101988129Y-114899896D01*
X102226824Y-114900104D01*
X102447429Y-114808952D01*
X102616359Y-114640317D01*
X102707896Y-114419871D01*
X102708104Y-114181176D01*
X102616952Y-113960571D01*
X102482200Y-113825583D01*
X102482200Y-112728640D01*
X102729323Y-112975764D01*
X102729323Y-114480600D01*
X102750242Y-114591773D01*
X102815945Y-114693879D01*
X102916197Y-114762378D01*
X103035200Y-114786477D01*
X104635200Y-114786477D01*
X104746373Y-114765558D01*
X104848479Y-114699855D01*
X104916978Y-114599603D01*
X104941077Y-114480600D01*
X104941077Y-112480600D01*
X104920158Y-112369427D01*
X104854455Y-112267321D01*
X104754203Y-112198822D01*
X104635200Y-112174723D01*
X103130363Y-112174723D01*
X102482200Y-111526560D01*
X102482200Y-110845600D01*
X102460186Y-110734928D01*
X102449849Y-110682959D01*
X102357721Y-110545080D01*
X101418241Y-109605600D01*
X102735200Y-109605600D01*
X102735200Y-110540274D01*
X102780872Y-110650537D01*
X102865264Y-110734928D01*
X102975527Y-110780600D01*
X103710200Y-110780600D01*
X103785200Y-110705600D01*
X103785200Y-109530600D01*
X103885200Y-109530600D01*
X103885200Y-110705600D01*
X103960200Y-110780600D01*
X104694873Y-110780600D01*
X104805136Y-110734928D01*
X104889528Y-110650537D01*
X104935200Y-110540274D01*
X104935200Y-109605600D01*
X104860200Y-109530600D01*
X103885200Y-109530600D01*
X103785200Y-109530600D01*
X102810200Y-109530600D01*
X102735200Y-109605600D01*
X101418241Y-109605600D01*
X100992720Y-109180080D01*
X100854841Y-109087951D01*
X100827857Y-109082584D01*
X100692200Y-109055600D01*
X100419077Y-109055600D01*
X100419077Y-108480600D01*
X100407849Y-108420926D01*
X102735200Y-108420926D01*
X102735200Y-109355600D01*
X102810200Y-109430600D01*
X103785200Y-109430600D01*
X103785200Y-108255600D01*
X103885200Y-108255600D01*
X103885200Y-109430600D01*
X104860200Y-109430600D01*
X104935200Y-109355600D01*
X104935200Y-108420926D01*
X104889528Y-108310663D01*
X104805136Y-108226272D01*
X104694873Y-108180600D01*
X103960200Y-108180600D01*
X103885200Y-108255600D01*
X103785200Y-108255600D01*
X103710200Y-108180600D01*
X102975527Y-108180600D01*
X102865264Y-108226272D01*
X102780872Y-108310663D01*
X102735200Y-108420926D01*
X100407849Y-108420926D01*
X100398158Y-108369427D01*
X100332455Y-108267321D01*
X100232203Y-108198822D01*
X100113200Y-108174723D01*
X98413200Y-108174723D01*
X98302027Y-108195642D01*
X98199921Y-108261345D01*
X98131422Y-108361597D01*
X98107323Y-108480600D01*
X97834000Y-108480600D01*
X97834000Y-108380040D01*
X99690720Y-106523320D01*
X99782849Y-106385441D01*
X99815200Y-106222800D01*
X99815200Y-105849676D01*
X99920530Y-105779296D01*
X100025200Y-105622647D01*
X100129870Y-105779296D01*
X100373187Y-105941876D01*
X100660200Y-105998966D01*
X100947213Y-105941876D01*
X101190530Y-105779296D01*
X101295200Y-105622647D01*
X101399870Y-105779296D01*
X101643187Y-105941876D01*
X101930200Y-105998966D01*
X102217213Y-105941876D01*
X102460530Y-105779296D01*
X102565200Y-105622647D01*
X102669870Y-105779296D01*
X102913187Y-105941876D01*
X103200200Y-105998966D01*
X103487213Y-105941876D01*
X103730530Y-105779296D01*
X103835200Y-105622647D01*
X103939870Y-105779296D01*
X104183187Y-105941876D01*
X104470200Y-105998966D01*
X104757213Y-105941876D01*
X105000530Y-105779296D01*
X105105200Y-105622647D01*
X105209870Y-105779296D01*
X105453187Y-105941876D01*
X105740200Y-105998966D01*
X106027213Y-105941876D01*
X106270530Y-105779296D01*
X106375200Y-105622647D01*
X106479870Y-105779296D01*
X106723187Y-105941876D01*
X107010200Y-105998966D01*
X107297213Y-105941876D01*
X107540530Y-105779296D01*
X107645200Y-105622647D01*
X107749870Y-105779296D01*
X107993187Y-105941876D01*
X108280200Y-105998966D01*
X108567213Y-105941876D01*
X108810530Y-105779296D01*
X108915200Y-105622647D01*
X109019870Y-105779296D01*
X109263187Y-105941876D01*
X109550200Y-105998966D01*
X109824444Y-105944416D01*
X109767860Y-106001000D01*
X109537500Y-106001000D01*
X109374859Y-106033351D01*
X109236980Y-106125479D01*
X108726460Y-106636000D01*
X107264895Y-106636000D01*
X107137200Y-106610601D01*
X106974559Y-106642951D01*
X106836680Y-106735080D01*
X106811283Y-106760477D01*
X106811280Y-106760479D01*
X105947680Y-107624080D01*
X105855551Y-107761959D01*
X105850988Y-107784900D01*
X105823200Y-107924600D01*
X105823200Y-115495560D01*
X104608566Y-116710194D01*
X104521952Y-116500571D01*
X104353317Y-116331641D01*
X104132871Y-116240104D01*
X103894176Y-116239896D01*
X103673571Y-116331048D01*
X103589472Y-116415000D01*
X101364070Y-116415000D01*
X101346952Y-116373571D01*
X101178317Y-116204641D01*
X100957871Y-116113104D01*
X100719176Y-116112896D01*
X100498571Y-116204048D01*
X100329641Y-116372683D01*
X100238104Y-116593129D01*
X100237896Y-116831824D01*
X100329048Y-117052429D01*
X100497683Y-117221359D01*
X100718129Y-117312896D01*
X100956824Y-117313104D01*
X101073245Y-117265000D01*
X101092066Y-117265000D01*
X100736027Y-117502897D01*
X100486739Y-117875984D01*
X100399200Y-118316070D01*
X100399200Y-118361130D01*
X100486739Y-118801216D01*
X100736027Y-119174303D01*
X101109114Y-119423591D01*
X101549200Y-119511130D01*
X101989286Y-119423591D01*
X102270070Y-119235978D01*
X102269896Y-119435324D01*
X102361048Y-119655929D01*
X102445000Y-119740028D01*
X102445000Y-119761000D01*
X102463173Y-119852360D01*
X102477351Y-119923641D01*
X102569480Y-120061520D01*
X102823479Y-120315520D01*
X102890586Y-120360359D01*
X102961360Y-120407649D01*
X103124000Y-120440000D01*
X106756562Y-120440000D01*
X107335685Y-121019123D01*
X105010000Y-121019123D01*
X104898827Y-121040042D01*
X104796721Y-121105745D01*
X104728222Y-121205997D01*
X104704123Y-121325000D01*
X104704123Y-121400000D01*
X102305877Y-121400000D01*
X102305877Y-121325000D01*
X102284958Y-121213827D01*
X102219255Y-121111721D01*
X102119003Y-121043222D01*
X102000000Y-121019123D01*
X99250000Y-121019123D01*
X99138827Y-121040042D01*
X99036721Y-121105745D01*
X98968222Y-121205997D01*
X98944123Y-121325000D01*
X98944123Y-122325000D01*
X98965042Y-122436173D01*
X99030745Y-122538279D01*
X99130997Y-122606778D01*
X99250000Y-122630877D01*
X102000000Y-122630877D01*
X102111173Y-122609958D01*
X102213279Y-122544255D01*
X102281778Y-122444003D01*
X102305877Y-122325000D01*
X102305877Y-122250000D01*
X104704123Y-122250000D01*
X104704123Y-122325000D01*
X104725042Y-122436173D01*
X104790745Y-122538279D01*
X104890997Y-122606778D01*
X105010000Y-122630877D01*
X105960000Y-122630877D01*
X105960000Y-122800959D01*
X105472461Y-123288499D01*
X105354676Y-123288396D01*
X105134071Y-123379548D01*
X104965141Y-123548183D01*
X104873604Y-123768629D01*
X104873396Y-124007324D01*
X104964548Y-124227929D01*
X105133183Y-124396859D01*
X105353629Y-124488396D01*
X105592324Y-124488604D01*
X105812929Y-124397452D01*
X105981859Y-124228817D01*
X106073396Y-124008371D01*
X106073500Y-123889541D01*
X106685521Y-123277520D01*
X106777649Y-123139641D01*
X106810000Y-122977000D01*
X106810000Y-122630877D01*
X107760000Y-122630877D01*
X107871173Y-122609958D01*
X107973279Y-122544255D01*
X108033000Y-122456850D01*
X108033000Y-122491500D01*
X108045631Y-122555000D01*
X108065351Y-122654141D01*
X108096500Y-122700758D01*
X108096500Y-125236460D01*
X108056705Y-125276255D01*
X108044958Y-125213827D01*
X107979255Y-125111721D01*
X107879003Y-125043222D01*
X107760000Y-125019123D01*
X105010000Y-125019123D01*
X104898827Y-125040042D01*
X104796721Y-125105745D01*
X104728222Y-125205997D01*
X104704123Y-125325000D01*
X104704123Y-126325000D01*
X104725042Y-126436173D01*
X104790745Y-126538279D01*
X104890997Y-126606778D01*
X105010000Y-126630877D01*
X105960000Y-126630877D01*
X105960000Y-131563960D01*
X105559837Y-131964123D01*
X105005000Y-131964123D01*
X104893827Y-131985042D01*
X104791721Y-132050745D01*
X104723222Y-132150997D01*
X104699123Y-132270000D01*
X104699123Y-135020000D01*
X104720042Y-135131173D01*
X104785745Y-135233279D01*
X104885997Y-135301778D01*
X105005000Y-135325877D01*
X106005000Y-135325877D01*
X106116173Y-135304958D01*
X106218279Y-135239255D01*
X106286778Y-135139003D01*
X106310877Y-135020000D01*
X106310877Y-134216917D01*
X106890000Y-134796041D01*
X106890000Y-137618960D01*
X106310877Y-138198083D01*
X106310877Y-138030000D01*
X106289958Y-137918827D01*
X106224255Y-137816721D01*
X106124003Y-137748222D01*
X106005000Y-137724123D01*
X105005000Y-137724123D01*
X104893827Y-137745042D01*
X104791721Y-137810745D01*
X104723222Y-137910997D01*
X104699123Y-138030000D01*
X104699123Y-138990617D01*
X104589859Y-139012351D01*
X104451980Y-139104479D01*
X102503460Y-141053000D01*
X102134756Y-141053000D01*
X102218279Y-140999255D01*
X102286778Y-140899003D01*
X102310877Y-140780000D01*
X102310877Y-139590163D01*
X104951040Y-136950000D01*
X104986470Y-136950000D01*
X105069683Y-137033359D01*
X105290129Y-137124896D01*
X105528824Y-137125104D01*
X105749429Y-137033952D01*
X105918359Y-136865317D01*
X106009896Y-136644871D01*
X106010104Y-136406176D01*
X105918952Y-136185571D01*
X105750317Y-136016641D01*
X105529871Y-135925104D01*
X105291176Y-135924896D01*
X105070571Y-136016048D01*
X104986472Y-136100000D01*
X104951040Y-136100000D01*
X103170520Y-134319480D01*
X103032641Y-134227351D01*
X103005657Y-134221984D01*
X102870000Y-134195000D01*
X102656041Y-134195000D01*
X102310877Y-133849836D01*
X102310877Y-132270000D01*
X102289958Y-132158827D01*
X102224255Y-132056721D01*
X102124003Y-131988222D01*
X102005000Y-131964123D01*
X101005000Y-131964123D01*
X100893827Y-131985042D01*
X100791721Y-132050745D01*
X100723222Y-132150997D01*
X100699123Y-132270000D01*
X100699123Y-135020000D01*
X100720042Y-135131173D01*
X100785745Y-135233279D01*
X100885997Y-135301778D01*
X101005000Y-135325877D01*
X102005000Y-135325877D01*
X102116173Y-135304958D01*
X102218279Y-135239255D01*
X102286778Y-135139003D01*
X102310877Y-135020000D01*
X102310877Y-135008317D01*
X102317360Y-135012649D01*
X102480000Y-135045000D01*
X102693960Y-135045000D01*
X104173960Y-136525000D01*
X102310877Y-138388083D01*
X102310877Y-138030000D01*
X102289958Y-137918827D01*
X102224255Y-137816721D01*
X102124003Y-137748222D01*
X102005000Y-137724123D01*
X101005000Y-137724123D01*
X100893827Y-137745042D01*
X100791721Y-137810745D01*
X100723222Y-137910997D01*
X100699123Y-138030000D01*
X100699123Y-140780000D01*
X100720042Y-140891173D01*
X100785745Y-140993279D01*
X100873150Y-141053000D01*
X100696540Y-141053000D01*
X99358000Y-139714460D01*
X99358000Y-136906000D01*
X99325649Y-136743360D01*
X99325649Y-136743359D01*
X99233520Y-136605480D01*
X97297257Y-134669217D01*
X97328279Y-134649255D01*
X97396778Y-134549003D01*
X97420877Y-134430000D01*
X97420877Y-131680000D01*
X97399958Y-131568827D01*
X97334255Y-131466721D01*
X97234003Y-131398222D01*
X97115000Y-131374123D01*
X96115000Y-131374123D01*
X96003827Y-131395042D01*
X95901721Y-131460745D01*
X95887540Y-131481500D01*
X95040000Y-130633960D01*
X95040000Y-129081040D01*
X95809123Y-128311917D01*
X95809123Y-128670000D01*
X95830042Y-128781173D01*
X95895745Y-128883279D01*
X95995997Y-128951778D01*
X96115000Y-128975877D01*
X97115000Y-128975877D01*
X97226173Y-128954958D01*
X97328279Y-128889255D01*
X97396778Y-128789003D01*
X97420877Y-128670000D01*
X97420877Y-127720000D01*
X99155000Y-127720000D01*
X99290657Y-127693016D01*
X99317641Y-127687649D01*
X99455520Y-127595520D01*
X100420163Y-126630877D01*
X102000000Y-126630877D01*
X102111173Y-126609958D01*
X102213279Y-126544255D01*
X102281778Y-126444003D01*
X102305877Y-126325000D01*
X102305877Y-125325000D01*
X102284958Y-125213827D01*
X102219255Y-125111721D01*
X102119003Y-125043222D01*
X102000000Y-125019123D01*
X99250000Y-125019123D01*
X99138827Y-125040042D01*
X99036721Y-125105745D01*
X98968222Y-125205997D01*
X98944123Y-125325000D01*
X98944123Y-126325000D01*
X98965042Y-126436173D01*
X99030745Y-126538279D01*
X99130997Y-126606778D01*
X99223458Y-126625502D01*
X98978960Y-126870000D01*
X97420877Y-126870000D01*
X97420877Y-125920000D01*
X97399958Y-125808827D01*
X97334255Y-125706721D01*
X97234003Y-125638222D01*
X97115000Y-125614123D01*
X96115000Y-125614123D01*
X96003827Y-125635042D01*
X95901721Y-125700745D01*
X95833222Y-125800997D01*
X95809123Y-125920000D01*
X95809123Y-127109837D01*
X94314480Y-128604480D01*
X94222351Y-128742359D01*
X94222351Y-128742360D01*
X94190000Y-128905000D01*
X94190000Y-130810000D01*
X94216984Y-130945657D01*
X94222351Y-130972641D01*
X94314480Y-131110520D01*
X95809123Y-132605163D01*
X95809123Y-134430000D01*
X95830042Y-134541173D01*
X95895745Y-134643279D01*
X95995997Y-134711778D01*
X96115000Y-134735877D01*
X96219414Y-134735877D01*
X96222351Y-134750641D01*
X96314480Y-134888520D01*
X98508000Y-137082040D01*
X98508000Y-139890500D01*
X98518314Y-139942351D01*
X98540351Y-140053141D01*
X98632480Y-140191020D01*
X100219980Y-141778520D01*
X100357859Y-141870649D01*
X100384843Y-141876016D01*
X100520500Y-141903000D01*
X102679500Y-141903000D01*
X102815157Y-141876016D01*
X102842141Y-141870649D01*
X102980020Y-141778520D01*
X104699123Y-140059418D01*
X104699123Y-140780000D01*
X104720042Y-140891173D01*
X104785745Y-140993279D01*
X104885997Y-141061778D01*
X105005000Y-141085877D01*
X106005000Y-141085877D01*
X106116173Y-141064958D01*
X106218279Y-140999255D01*
X106286778Y-140899003D01*
X106310877Y-140780000D01*
X106310877Y-139400163D01*
X107615520Y-138095520D01*
X107707649Y-137957641D01*
X107740000Y-137795000D01*
X107740000Y-137350000D01*
X109589123Y-137350000D01*
X109589123Y-140100000D01*
X109610042Y-140211173D01*
X109675745Y-140313279D01*
X109775997Y-140381778D01*
X109895000Y-140405877D01*
X110895000Y-140405877D01*
X111006173Y-140384958D01*
X111108279Y-140319255D01*
X111176778Y-140219003D01*
X111200877Y-140100000D01*
X111200877Y-139741917D01*
X111970000Y-140511040D01*
X111970000Y-143333959D01*
X111243960Y-144060000D01*
X111200877Y-144060000D01*
X111200877Y-143110000D01*
X111179958Y-142998827D01*
X111114255Y-142896721D01*
X111014003Y-142828222D01*
X110895000Y-142804123D01*
X109895000Y-142804123D01*
X109783827Y-142825042D01*
X109681721Y-142890745D01*
X109613222Y-142990997D01*
X109589123Y-143110000D01*
X109589123Y-145860000D01*
X109610042Y-145971173D01*
X109675745Y-146073279D01*
X109775997Y-146141778D01*
X109895000Y-146165877D01*
X110895000Y-146165877D01*
X111006173Y-146144958D01*
X111108279Y-146079255D01*
X111176778Y-145979003D01*
X111200877Y-145860000D01*
X111200877Y-144910000D01*
X111420000Y-144910000D01*
X111555657Y-144883016D01*
X111582641Y-144877649D01*
X111720520Y-144785520D01*
X112695520Y-143810521D01*
X112787648Y-143672641D01*
X112787649Y-143672640D01*
X112820000Y-143510000D01*
X112820000Y-142030000D01*
X113876470Y-142030000D01*
X113959683Y-142113359D01*
X114180129Y-142204896D01*
X114418824Y-142205104D01*
X114639429Y-142113952D01*
X114808359Y-141945317D01*
X114899896Y-141724871D01*
X114900104Y-141486176D01*
X114808952Y-141265571D01*
X114640317Y-141096641D01*
X114419871Y-141005104D01*
X114181176Y-141004896D01*
X113960571Y-141096048D01*
X113876472Y-141180000D01*
X112820000Y-141180000D01*
X112820000Y-140335000D01*
X112796927Y-140219003D01*
X112787649Y-140172359D01*
X112695520Y-140034480D01*
X111200877Y-138539837D01*
X111200877Y-137350000D01*
X111179958Y-137238827D01*
X111114255Y-137136721D01*
X111014003Y-137068222D01*
X110895000Y-137044123D01*
X109895000Y-137044123D01*
X109783827Y-137065042D01*
X109681721Y-137130745D01*
X109613222Y-137230997D01*
X109589123Y-137350000D01*
X107740000Y-137350000D01*
X107740000Y-136950000D01*
X113488960Y-136950000D01*
X113676843Y-137137884D01*
X113613222Y-137230997D01*
X113589123Y-137350000D01*
X113589123Y-140100000D01*
X113610042Y-140211173D01*
X113675745Y-140313279D01*
X113775997Y-140381778D01*
X113895000Y-140405877D01*
X114895000Y-140405877D01*
X115006173Y-140384958D01*
X115108279Y-140319255D01*
X115176778Y-140219003D01*
X115200877Y-140100000D01*
X115200877Y-139150000D01*
X115688960Y-139150000D01*
X115780000Y-139241041D01*
X115780000Y-143333959D01*
X115393960Y-143720000D01*
X115200877Y-143720000D01*
X115200877Y-143110000D01*
X115179958Y-142998827D01*
X115114255Y-142896721D01*
X115014003Y-142828222D01*
X114895000Y-142804123D01*
X113895000Y-142804123D01*
X113783827Y-142825042D01*
X113681721Y-142890745D01*
X113613222Y-142990997D01*
X113589123Y-143110000D01*
X113589123Y-145860000D01*
X113610042Y-145971173D01*
X113675745Y-146073279D01*
X113775997Y-146141778D01*
X113895000Y-146165877D01*
X114895000Y-146165877D01*
X115006173Y-146144958D01*
X115108279Y-146079255D01*
X115176778Y-145979003D01*
X115200877Y-145860000D01*
X115200877Y-144570000D01*
X115570000Y-144570000D01*
X115705657Y-144543016D01*
X115732641Y-144537649D01*
X115870520Y-144445520D01*
X116465000Y-143851041D01*
X116465000Y-144743068D01*
X116293412Y-145605697D01*
X115825691Y-146305691D01*
X115125697Y-146773412D01*
X114263068Y-146945000D01*
X92746932Y-146945000D01*
X91884303Y-146773412D01*
X91184309Y-146305691D01*
X90716588Y-145605697D01*
X90545000Y-144743068D01*
X90545000Y-144612756D01*
X102231757Y-144612756D01*
X102444445Y-145127500D01*
X102837928Y-145521670D01*
X103352301Y-145735257D01*
X103909256Y-145735743D01*
X104424000Y-145523055D01*
X104818170Y-145129572D01*
X105031757Y-144615199D01*
X105032243Y-144058244D01*
X104819555Y-143543500D01*
X104426072Y-143149330D01*
X103911699Y-142935743D01*
X103354744Y-142935257D01*
X102840000Y-143147945D01*
X102445830Y-143541428D01*
X102232243Y-144055801D01*
X102231757Y-144612756D01*
X90545000Y-144612756D01*
X90545000Y-120021454D01*
X90616035Y-120127765D01*
X91203838Y-120520523D01*
X91897200Y-120658441D01*
X92590562Y-120520523D01*
X93178365Y-120127765D01*
X93571123Y-119539962D01*
X93709041Y-118846600D01*
X93571123Y-118153238D01*
X93178365Y-117565435D01*
X92590562Y-117172677D01*
X91897200Y-117034759D01*
X91203838Y-117172677D01*
X90616035Y-117565435D01*
X90545000Y-117671746D01*
X90545000Y-113963095D01*
X90631480Y-114092520D01*
X94063000Y-117524041D01*
X94063000Y-120727960D01*
X92282480Y-122508480D01*
X92190351Y-122646359D01*
X92190351Y-122646360D01*
X92158000Y-122809000D01*
X92158000Y-124568242D01*
X92126851Y-124614859D01*
X92094501Y-124777500D01*
X92126851Y-124940141D01*
X92218980Y-125078020D01*
X92755083Y-125614123D01*
X92115000Y-125614123D01*
X92003827Y-125635042D01*
X91901721Y-125700745D01*
X91833222Y-125800997D01*
X91809123Y-125920000D01*
X91809123Y-128670000D01*
X91830042Y-128781173D01*
X91895745Y-128883279D01*
X91995997Y-128951778D01*
X92115000Y-128975877D01*
X92285000Y-128975877D01*
X92285000Y-129751470D01*
X92201641Y-129834683D01*
X92110104Y-130055129D01*
X92109896Y-130293824D01*
X92190000Y-130487691D01*
X92190000Y-131374123D01*
X92115000Y-131374123D01*
X92003827Y-131395042D01*
X91901721Y-131460745D01*
X91833222Y-131560997D01*
X91809123Y-131680000D01*
X91809123Y-134430000D01*
X91830042Y-134541173D01*
X91895745Y-134643279D01*
X91995997Y-134711778D01*
X92115000Y-134735877D01*
X93115000Y-134735877D01*
X93226173Y-134714958D01*
X93237500Y-134707669D01*
X93237500Y-143192500D01*
X93264484Y-143328157D01*
X93269851Y-143355141D01*
X93361980Y-143493020D01*
X93379999Y-143511039D01*
X93379896Y-143628824D01*
X93471048Y-143849429D01*
X93639683Y-144018359D01*
X93860129Y-144109896D01*
X94098824Y-144110104D01*
X94319429Y-144018952D01*
X94488359Y-143850317D01*
X94579896Y-143629871D01*
X94580104Y-143391176D01*
X94488952Y-143170571D01*
X94320317Y-143001641D01*
X94099871Y-142910104D01*
X94087500Y-142910093D01*
X94087500Y-125920500D01*
X94055149Y-125757860D01*
X94055149Y-125757859D01*
X93963020Y-125619980D01*
X93008000Y-124664960D01*
X93008000Y-122985040D01*
X94788520Y-121204520D01*
X94880649Y-121066641D01*
X94913000Y-120904000D01*
X94913000Y-118463600D01*
X97859200Y-118463600D01*
X97859200Y-119248274D01*
X97904872Y-119358537D01*
X97989264Y-119442928D01*
X98099527Y-119488600D01*
X98884200Y-119488600D01*
X98959200Y-119413600D01*
X98959200Y-118388600D01*
X99059200Y-118388600D01*
X99059200Y-119413600D01*
X99134200Y-119488600D01*
X99918873Y-119488600D01*
X100029136Y-119442928D01*
X100113528Y-119358537D01*
X100159200Y-119248274D01*
X100159200Y-118463600D01*
X100084200Y-118388600D01*
X99059200Y-118388600D01*
X98959200Y-118388600D01*
X97934200Y-118388600D01*
X97859200Y-118463600D01*
X94913000Y-118463600D01*
X94913000Y-117428926D01*
X97859200Y-117428926D01*
X97859200Y-118213600D01*
X97934200Y-118288600D01*
X98959200Y-118288600D01*
X98959200Y-117263600D01*
X99059200Y-117263600D01*
X99059200Y-118288600D01*
X100084200Y-118288600D01*
X100159200Y-118213600D01*
X100159200Y-117428926D01*
X100113528Y-117318663D01*
X100029136Y-117234272D01*
X99918873Y-117188600D01*
X99134200Y-117188600D01*
X99059200Y-117263600D01*
X98959200Y-117263600D01*
X98884200Y-117188600D01*
X98099527Y-117188600D01*
X97989264Y-117234272D01*
X97904872Y-117318663D01*
X97859200Y-117428926D01*
X94913000Y-117428926D01*
X94913000Y-117348000D01*
X94880649Y-117185360D01*
X94843419Y-117129641D01*
X94788520Y-117047479D01*
X91357000Y-113615960D01*
X91357000Y-113305600D01*
X93541200Y-113305600D01*
X93541200Y-113690274D01*
X93586872Y-113800537D01*
X93671264Y-113884928D01*
X93781527Y-113930600D01*
X94566200Y-113930600D01*
X94641200Y-113855600D01*
X94641200Y-113230600D01*
X94741200Y-113230600D01*
X94741200Y-113855600D01*
X94816200Y-113930600D01*
X95600873Y-113930600D01*
X95711136Y-113884928D01*
X95795528Y-113800537D01*
X95841200Y-113690274D01*
X95841200Y-113305600D01*
X95766200Y-113230600D01*
X94741200Y-113230600D01*
X94641200Y-113230600D01*
X93616200Y-113230600D01*
X93541200Y-113305600D01*
X91357000Y-113305600D01*
X91357000Y-112670926D01*
X93541200Y-112670926D01*
X93541200Y-113055600D01*
X93616200Y-113130600D01*
X94641200Y-113130600D01*
X94641200Y-112505600D01*
X94741200Y-112505600D01*
X94741200Y-113130600D01*
X95766200Y-113130600D01*
X95841200Y-113055600D01*
X95841200Y-112670926D01*
X95795528Y-112560663D01*
X95711136Y-112476272D01*
X95600873Y-112430600D01*
X94816200Y-112430600D01*
X94741200Y-112505600D01*
X94641200Y-112505600D01*
X94566200Y-112430600D01*
X93781527Y-112430600D01*
X93671264Y-112476272D01*
X93586872Y-112560663D01*
X93541200Y-112670926D01*
X91357000Y-112670926D01*
X91357000Y-107937814D01*
X91862454Y-107937814D01*
X92030517Y-108343566D01*
X92346460Y-108662188D01*
X92760285Y-108835650D01*
X92939400Y-108782617D01*
X92939400Y-107758700D01*
X93039400Y-107758700D01*
X93039400Y-108782617D01*
X93218515Y-108835650D01*
X93632340Y-108662188D01*
X93948283Y-108343566D01*
X94116346Y-107937814D01*
X94063237Y-107758700D01*
X93039400Y-107758700D01*
X92939400Y-107758700D01*
X91915563Y-107758700D01*
X91862454Y-107937814D01*
X91357000Y-107937814D01*
X91357000Y-107479586D01*
X91862454Y-107479586D01*
X91915563Y-107658700D01*
X92939400Y-107658700D01*
X92939400Y-106634783D01*
X93039400Y-106634783D01*
X93039400Y-107658700D01*
X94063237Y-107658700D01*
X94116346Y-107479586D01*
X93948283Y-107073834D01*
X93632340Y-106755212D01*
X93218515Y-106581750D01*
X93039400Y-106634783D01*
X92939400Y-106634783D01*
X92760285Y-106581750D01*
X92346460Y-106755212D01*
X92030517Y-107073834D01*
X91862454Y-107479586D01*
X91357000Y-107479586D01*
X91357000Y-104318700D01*
X91833523Y-104318700D01*
X91833523Y-106018700D01*
X91854442Y-106129873D01*
X91920145Y-106231979D01*
X92020397Y-106300478D01*
X92139400Y-106324577D01*
X93839400Y-106324577D01*
X93950573Y-106303658D01*
X94052679Y-106237955D01*
X94121178Y-106137703D01*
X94145277Y-106018700D01*
X94145277Y-104318700D01*
X94124358Y-104207527D01*
X94058655Y-104105421D01*
X93958403Y-104036922D01*
X93839400Y-104012823D01*
X92139400Y-104012823D01*
X92028227Y-104033742D01*
X91926121Y-104099445D01*
X91857622Y-104199697D01*
X91833523Y-104318700D01*
X91357000Y-104318700D01*
X91357000Y-103681040D01*
X91684441Y-103353600D01*
X93404124Y-103353600D01*
X93474504Y-103458930D01*
X93717821Y-103621510D01*
X94004834Y-103678600D01*
X95665566Y-103678600D01*
X95952579Y-103621510D01*
X96195896Y-103458930D01*
X96358476Y-103215613D01*
X96415566Y-102928600D01*
X96358476Y-102641587D01*
X96195896Y-102398270D01*
X96039247Y-102293600D01*
X96195896Y-102188930D01*
X96358476Y-101945613D01*
X96415566Y-101658600D01*
X96358476Y-101371587D01*
X96195896Y-101128270D01*
X96039247Y-101023600D01*
X96195896Y-100918930D01*
X96358476Y-100675613D01*
X96415566Y-100388600D01*
X96358476Y-100101587D01*
X96195896Y-99858270D01*
X96039247Y-99753600D01*
X96195896Y-99648930D01*
X96252252Y-99564588D01*
X96332083Y-99644559D01*
X96552529Y-99736096D01*
X96791224Y-99736304D01*
X97011829Y-99645152D01*
X97180759Y-99476517D01*
X97272296Y-99256071D01*
X97272504Y-99017376D01*
X97181352Y-98796771D01*
X97012717Y-98627841D01*
X96792271Y-98536304D01*
X96553576Y-98536096D01*
X96332971Y-98627248D01*
X96266503Y-98693600D01*
X96266276Y-98693600D01*
X96195896Y-98588270D01*
X96039247Y-98483600D01*
X96195896Y-98378930D01*
X96358476Y-98135613D01*
X96415566Y-97848600D01*
X96358476Y-97561587D01*
X96195896Y-97318270D01*
X96039247Y-97213600D01*
X96195896Y-97108930D01*
X96358476Y-96865613D01*
X96415566Y-96578600D01*
X96358476Y-96291587D01*
X96195896Y-96048270D01*
X96039247Y-95943600D01*
X96195896Y-95838930D01*
X96358476Y-95595613D01*
X96415566Y-95308600D01*
X96358476Y-95021587D01*
X96195896Y-94778270D01*
X96039247Y-94673600D01*
X96195896Y-94568930D01*
X96358476Y-94325613D01*
X96415566Y-94038600D01*
X96358476Y-93751587D01*
X96195896Y-93508270D01*
X96039247Y-93403600D01*
X96195896Y-93298930D01*
X96358476Y-93055613D01*
X96415566Y-92768600D01*
X96358476Y-92481587D01*
X96195896Y-92238270D01*
X96039247Y-92133600D01*
X96195896Y-92028930D01*
X96358476Y-91785613D01*
X96415566Y-91498600D01*
X96358476Y-91211587D01*
X96195896Y-90968270D01*
X96039247Y-90863600D01*
X96195896Y-90758930D01*
X96358476Y-90515613D01*
X96415566Y-90228600D01*
X96358476Y-89941587D01*
X96195896Y-89698270D01*
X96039247Y-89593600D01*
X96195896Y-89488930D01*
X96219125Y-89454166D01*
X96219479Y-89454520D01*
G36*
X115145000Y-103046041D02*
X115145000Y-115393959D01*
X114123960Y-116415000D01*
X113030000Y-116415000D01*
X112867359Y-116447351D01*
X112729480Y-116539479D01*
X112094480Y-117174480D01*
X112002351Y-117312359D01*
X112002351Y-117312360D01*
X111970000Y-117475000D01*
X111970000Y-120346959D01*
X111141980Y-121174980D01*
X111049851Y-121312859D01*
X111044484Y-121339843D01*
X111017500Y-121475500D01*
X111017500Y-121807459D01*
X110171461Y-122653499D01*
X110053676Y-122653396D01*
X109833071Y-122744548D01*
X109664141Y-122913183D01*
X109572604Y-123133629D01*
X109572396Y-123372324D01*
X109663548Y-123592929D01*
X109832183Y-123761859D01*
X110052629Y-123853396D01*
X110291324Y-123853604D01*
X110511929Y-123762452D01*
X110680859Y-123593817D01*
X110772396Y-123373371D01*
X110772500Y-123254541D01*
X111743020Y-122284021D01*
X111835148Y-122146141D01*
X111835149Y-122146140D01*
X111867500Y-121983500D01*
X111867500Y-121651540D01*
X112695520Y-120823521D01*
X112787648Y-120685641D01*
X112787649Y-120685640D01*
X112820000Y-120523000D01*
X112820000Y-117651040D01*
X113206041Y-117265000D01*
X114179667Y-117265000D01*
X113730035Y-117565435D01*
X113337277Y-118153238D01*
X113199359Y-118846600D01*
X113337277Y-119539962D01*
X113730035Y-120127765D01*
X114317838Y-120520523D01*
X115011200Y-120658441D01*
X115704562Y-120520523D01*
X116292365Y-120127765D01*
X116465000Y-119869399D01*
X116465000Y-127928959D01*
X115530520Y-126994480D01*
X115392641Y-126902351D01*
X115365657Y-126896984D01*
X115230000Y-126870000D01*
X115200877Y-126870000D01*
X115200877Y-125920000D01*
X115179958Y-125808827D01*
X115114255Y-125706721D01*
X115014003Y-125638222D01*
X114895000Y-125614123D01*
X113895000Y-125614123D01*
X113783827Y-125635042D01*
X113681721Y-125700745D01*
X113613222Y-125800997D01*
X113594498Y-125893458D01*
X112813020Y-125111980D01*
X112675141Y-125019851D01*
X112648157Y-125014484D01*
X112512500Y-124987500D01*
X108946500Y-124987500D01*
X108946500Y-122555000D01*
X108933869Y-122491500D01*
X108914149Y-122392359D01*
X108883000Y-122345741D01*
X108883000Y-121930041D01*
X109046479Y-122093520D01*
X109104711Y-122132429D01*
X109184360Y-122185649D01*
X109347000Y-122218000D01*
X109685470Y-122218000D01*
X109768683Y-122301359D01*
X109989129Y-122392896D01*
X110227824Y-122393104D01*
X110448429Y-122301952D01*
X110617359Y-122133317D01*
X110708896Y-121912871D01*
X110709104Y-121674176D01*
X110617952Y-121453571D01*
X110449317Y-121284641D01*
X110228871Y-121193104D01*
X109990176Y-121192896D01*
X109769571Y-121284048D01*
X109685472Y-121368000D01*
X109523041Y-121368000D01*
X108375000Y-120219960D01*
X108375000Y-119186980D01*
X108729114Y-119423591D01*
X109169200Y-119511130D01*
X109609286Y-119423591D01*
X109982373Y-119174303D01*
X110231661Y-118801216D01*
X110319200Y-118361130D01*
X110319200Y-118316070D01*
X110231661Y-117875984D01*
X109982373Y-117502897D01*
X109609286Y-117253609D01*
X109579290Y-117247642D01*
X109561849Y-117159959D01*
X109469721Y-117022080D01*
X107691720Y-115244080D01*
X107553841Y-115151951D01*
X107518900Y-115145001D01*
X107452417Y-115131777D01*
X107435200Y-115114560D01*
X107435200Y-114732864D01*
X107437264Y-114734928D01*
X107547527Y-114780600D01*
X108282200Y-114780600D01*
X108357200Y-114705600D01*
X108357200Y-113530600D01*
X108457200Y-113530600D01*
X108457200Y-114705600D01*
X108532200Y-114780600D01*
X109266873Y-114780600D01*
X109377136Y-114734928D01*
X109461528Y-114650537D01*
X109507200Y-114540274D01*
X109507200Y-113605600D01*
X109432200Y-113530600D01*
X108457200Y-113530600D01*
X108357200Y-113530600D01*
X108337200Y-113530600D01*
X108337200Y-113430600D01*
X108357200Y-113430600D01*
X108357200Y-112255600D01*
X108457200Y-112255600D01*
X108457200Y-113430600D01*
X109432200Y-113430600D01*
X109507200Y-113355600D01*
X109507200Y-113305600D01*
X111829200Y-113305600D01*
X111829200Y-113690274D01*
X111874872Y-113800537D01*
X111959264Y-113884928D01*
X112069527Y-113930600D01*
X112854200Y-113930600D01*
X112929200Y-113855600D01*
X112929200Y-113230600D01*
X113029200Y-113230600D01*
X113029200Y-113855600D01*
X113104200Y-113930600D01*
X113888873Y-113930600D01*
X113999136Y-113884928D01*
X114083528Y-113800537D01*
X114129200Y-113690274D01*
X114129200Y-113305600D01*
X114054200Y-113230600D01*
X113029200Y-113230600D01*
X112929200Y-113230600D01*
X111904200Y-113230600D01*
X111829200Y-113305600D01*
X109507200Y-113305600D01*
X109507200Y-112670926D01*
X111829200Y-112670926D01*
X111829200Y-113055600D01*
X111904200Y-113130600D01*
X112929200Y-113130600D01*
X112929200Y-112505600D01*
X113029200Y-112505600D01*
X113029200Y-113130600D01*
X114054200Y-113130600D01*
X114129200Y-113055600D01*
X114129200Y-112670926D01*
X114083528Y-112560663D01*
X113999136Y-112476272D01*
X113888873Y-112430600D01*
X113104200Y-112430600D01*
X113029200Y-112505600D01*
X112929200Y-112505600D01*
X112854200Y-112430600D01*
X112069527Y-112430600D01*
X111959264Y-112476272D01*
X111874872Y-112560663D01*
X111829200Y-112670926D01*
X109507200Y-112670926D01*
X109507200Y-112420926D01*
X109461528Y-112310663D01*
X109377136Y-112226272D01*
X109266873Y-112180600D01*
X108532200Y-112180600D01*
X108457200Y-112255600D01*
X108357200Y-112255600D01*
X108282200Y-112180600D01*
X107547527Y-112180600D01*
X107437264Y-112226272D01*
X107435200Y-112228336D01*
X107435200Y-110726167D01*
X107488197Y-110762378D01*
X107607200Y-110786477D01*
X109207200Y-110786477D01*
X109318373Y-110765558D01*
X109420479Y-110699855D01*
X109488978Y-110599603D01*
X109513077Y-110480600D01*
X109513077Y-109905600D01*
X111823323Y-109905600D01*
X111823323Y-110230600D01*
X111844242Y-110341773D01*
X111909945Y-110443879D01*
X112010197Y-110512378D01*
X112129200Y-110536477D01*
X113829200Y-110536477D01*
X113940373Y-110515558D01*
X114042479Y-110449855D01*
X114110978Y-110349603D01*
X114135077Y-110230600D01*
X114135077Y-109330600D01*
X114114158Y-109219427D01*
X114048455Y-109117321D01*
X113948203Y-109048822D01*
X113829200Y-109024723D01*
X112972400Y-109024723D01*
X112972400Y-108363400D01*
X113654300Y-108363400D01*
X113729300Y-108288400D01*
X113729300Y-107263400D01*
X113829300Y-107263400D01*
X113829300Y-108288400D01*
X113904300Y-108363400D01*
X114688973Y-108363400D01*
X114799236Y-108317728D01*
X114883628Y-108233337D01*
X114929300Y-108123074D01*
X114929300Y-107338400D01*
X114854300Y-107263400D01*
X113829300Y-107263400D01*
X113729300Y-107263400D01*
X113709300Y-107263400D01*
X113709300Y-107163400D01*
X113729300Y-107163400D01*
X113729300Y-106138400D01*
X113829300Y-106138400D01*
X113829300Y-107163400D01*
X114854300Y-107163400D01*
X114929300Y-107088400D01*
X114929300Y-106303726D01*
X114883628Y-106193463D01*
X114799236Y-106109072D01*
X114688973Y-106063400D01*
X113904300Y-106063400D01*
X113829300Y-106138400D01*
X113729300Y-106138400D01*
X113654300Y-106063400D01*
X112869627Y-106063400D01*
X112845400Y-106073435D01*
X112845400Y-104773240D01*
X113135721Y-104482920D01*
X113227849Y-104345041D01*
X113260200Y-104182400D01*
X113260200Y-103678600D01*
X113665566Y-103678600D01*
X113952579Y-103621510D01*
X114195896Y-103458930D01*
X114358476Y-103215613D01*
X114415566Y-102928600D01*
X114358476Y-102641587D01*
X114195896Y-102398270D01*
X114039247Y-102293600D01*
X114195896Y-102188930D01*
X114232744Y-102133784D01*
X115145000Y-103046041D01*
X115145000Y-103046041D01*
G37*
X115145000Y-103046041D02*
X115145000Y-115393959D01*
X114123960Y-116415000D01*
X113030000Y-116415000D01*
X112867359Y-116447351D01*
X112729480Y-116539479D01*
X112094480Y-117174480D01*
X112002351Y-117312359D01*
X112002351Y-117312360D01*
X111970000Y-117475000D01*
X111970000Y-120346959D01*
X111141980Y-121174980D01*
X111049851Y-121312859D01*
X111044484Y-121339843D01*
X111017500Y-121475500D01*
X111017500Y-121807459D01*
X110171461Y-122653499D01*
X110053676Y-122653396D01*
X109833071Y-122744548D01*
X109664141Y-122913183D01*
X109572604Y-123133629D01*
X109572396Y-123372324D01*
X109663548Y-123592929D01*
X109832183Y-123761859D01*
X110052629Y-123853396D01*
X110291324Y-123853604D01*
X110511929Y-123762452D01*
X110680859Y-123593817D01*
X110772396Y-123373371D01*
X110772500Y-123254541D01*
X111743020Y-122284021D01*
X111835148Y-122146141D01*
X111835149Y-122146140D01*
X111867500Y-121983500D01*
X111867500Y-121651540D01*
X112695520Y-120823521D01*
X112787648Y-120685641D01*
X112787649Y-120685640D01*
X112820000Y-120523000D01*
X112820000Y-117651040D01*
X113206041Y-117265000D01*
X114179667Y-117265000D01*
X113730035Y-117565435D01*
X113337277Y-118153238D01*
X113199359Y-118846600D01*
X113337277Y-119539962D01*
X113730035Y-120127765D01*
X114317838Y-120520523D01*
X115011200Y-120658441D01*
X115704562Y-120520523D01*
X116292365Y-120127765D01*
X116465000Y-119869399D01*
X116465000Y-127928959D01*
X115530520Y-126994480D01*
X115392641Y-126902351D01*
X115365657Y-126896984D01*
X115230000Y-126870000D01*
X115200877Y-126870000D01*
X115200877Y-125920000D01*
X115179958Y-125808827D01*
X115114255Y-125706721D01*
X115014003Y-125638222D01*
X114895000Y-125614123D01*
X113895000Y-125614123D01*
X113783827Y-125635042D01*
X113681721Y-125700745D01*
X113613222Y-125800997D01*
X113594498Y-125893458D01*
X112813020Y-125111980D01*
X112675141Y-125019851D01*
X112648157Y-125014484D01*
X112512500Y-124987500D01*
X108946500Y-124987500D01*
X108946500Y-122555000D01*
X108933869Y-122491500D01*
X108914149Y-122392359D01*
X108883000Y-122345741D01*
X108883000Y-121930041D01*
X109046479Y-122093520D01*
X109104711Y-122132429D01*
X109184360Y-122185649D01*
X109347000Y-122218000D01*
X109685470Y-122218000D01*
X109768683Y-122301359D01*
X109989129Y-122392896D01*
X110227824Y-122393104D01*
X110448429Y-122301952D01*
X110617359Y-122133317D01*
X110708896Y-121912871D01*
X110709104Y-121674176D01*
X110617952Y-121453571D01*
X110449317Y-121284641D01*
X110228871Y-121193104D01*
X109990176Y-121192896D01*
X109769571Y-121284048D01*
X109685472Y-121368000D01*
X109523041Y-121368000D01*
X108375000Y-120219960D01*
X108375000Y-119186980D01*
X108729114Y-119423591D01*
X109169200Y-119511130D01*
X109609286Y-119423591D01*
X109982373Y-119174303D01*
X110231661Y-118801216D01*
X110319200Y-118361130D01*
X110319200Y-118316070D01*
X110231661Y-117875984D01*
X109982373Y-117502897D01*
X109609286Y-117253609D01*
X109579290Y-117247642D01*
X109561849Y-117159959D01*
X109469721Y-117022080D01*
X107691720Y-115244080D01*
X107553841Y-115151951D01*
X107518900Y-115145001D01*
X107452417Y-115131777D01*
X107435200Y-115114560D01*
X107435200Y-114732864D01*
X107437264Y-114734928D01*
X107547527Y-114780600D01*
X108282200Y-114780600D01*
X108357200Y-114705600D01*
X108357200Y-113530600D01*
X108457200Y-113530600D01*
X108457200Y-114705600D01*
X108532200Y-114780600D01*
X109266873Y-114780600D01*
X109377136Y-114734928D01*
X109461528Y-114650537D01*
X109507200Y-114540274D01*
X109507200Y-113605600D01*
X109432200Y-113530600D01*
X108457200Y-113530600D01*
X108357200Y-113530600D01*
X108337200Y-113530600D01*
X108337200Y-113430600D01*
X108357200Y-113430600D01*
X108357200Y-112255600D01*
X108457200Y-112255600D01*
X108457200Y-113430600D01*
X109432200Y-113430600D01*
X109507200Y-113355600D01*
X109507200Y-113305600D01*
X111829200Y-113305600D01*
X111829200Y-113690274D01*
X111874872Y-113800537D01*
X111959264Y-113884928D01*
X112069527Y-113930600D01*
X112854200Y-113930600D01*
X112929200Y-113855600D01*
X112929200Y-113230600D01*
X113029200Y-113230600D01*
X113029200Y-113855600D01*
X113104200Y-113930600D01*
X113888873Y-113930600D01*
X113999136Y-113884928D01*
X114083528Y-113800537D01*
X114129200Y-113690274D01*
X114129200Y-113305600D01*
X114054200Y-113230600D01*
X113029200Y-113230600D01*
X112929200Y-113230600D01*
X111904200Y-113230600D01*
X111829200Y-113305600D01*
X109507200Y-113305600D01*
X109507200Y-112670926D01*
X111829200Y-112670926D01*
X111829200Y-113055600D01*
X111904200Y-113130600D01*
X112929200Y-113130600D01*
X112929200Y-112505600D01*
X113029200Y-112505600D01*
X113029200Y-113130600D01*
X114054200Y-113130600D01*
X114129200Y-113055600D01*
X114129200Y-112670926D01*
X114083528Y-112560663D01*
X113999136Y-112476272D01*
X113888873Y-112430600D01*
X113104200Y-112430600D01*
X113029200Y-112505600D01*
X112929200Y-112505600D01*
X112854200Y-112430600D01*
X112069527Y-112430600D01*
X111959264Y-112476272D01*
X111874872Y-112560663D01*
X111829200Y-112670926D01*
X109507200Y-112670926D01*
X109507200Y-112420926D01*
X109461528Y-112310663D01*
X109377136Y-112226272D01*
X109266873Y-112180600D01*
X108532200Y-112180600D01*
X108457200Y-112255600D01*
X108357200Y-112255600D01*
X108282200Y-112180600D01*
X107547527Y-112180600D01*
X107437264Y-112226272D01*
X107435200Y-112228336D01*
X107435200Y-110726167D01*
X107488197Y-110762378D01*
X107607200Y-110786477D01*
X109207200Y-110786477D01*
X109318373Y-110765558D01*
X109420479Y-110699855D01*
X109488978Y-110599603D01*
X109513077Y-110480600D01*
X109513077Y-109905600D01*
X111823323Y-109905600D01*
X111823323Y-110230600D01*
X111844242Y-110341773D01*
X111909945Y-110443879D01*
X112010197Y-110512378D01*
X112129200Y-110536477D01*
X113829200Y-110536477D01*
X113940373Y-110515558D01*
X114042479Y-110449855D01*
X114110978Y-110349603D01*
X114135077Y-110230600D01*
X114135077Y-109330600D01*
X114114158Y-109219427D01*
X114048455Y-109117321D01*
X113948203Y-109048822D01*
X113829200Y-109024723D01*
X112972400Y-109024723D01*
X112972400Y-108363400D01*
X113654300Y-108363400D01*
X113729300Y-108288400D01*
X113729300Y-107263400D01*
X113829300Y-107263400D01*
X113829300Y-108288400D01*
X113904300Y-108363400D01*
X114688973Y-108363400D01*
X114799236Y-108317728D01*
X114883628Y-108233337D01*
X114929300Y-108123074D01*
X114929300Y-107338400D01*
X114854300Y-107263400D01*
X113829300Y-107263400D01*
X113729300Y-107263400D01*
X113709300Y-107263400D01*
X113709300Y-107163400D01*
X113729300Y-107163400D01*
X113729300Y-106138400D01*
X113829300Y-106138400D01*
X113829300Y-107163400D01*
X114854300Y-107163400D01*
X114929300Y-107088400D01*
X114929300Y-106303726D01*
X114883628Y-106193463D01*
X114799236Y-106109072D01*
X114688973Y-106063400D01*
X113904300Y-106063400D01*
X113829300Y-106138400D01*
X113729300Y-106138400D01*
X113654300Y-106063400D01*
X112869627Y-106063400D01*
X112845400Y-106073435D01*
X112845400Y-104773240D01*
X113135721Y-104482920D01*
X113227849Y-104345041D01*
X113260200Y-104182400D01*
X113260200Y-103678600D01*
X113665566Y-103678600D01*
X113952579Y-103621510D01*
X114195896Y-103458930D01*
X114358476Y-103215613D01*
X114415566Y-102928600D01*
X114358476Y-102641587D01*
X114195896Y-102398270D01*
X114039247Y-102293600D01*
X114195896Y-102188930D01*
X114232744Y-102133784D01*
X115145000Y-103046041D01*
G36*
X116465000Y-47190177D02*
X116465000Y-58815559D01*
X114803720Y-57154280D01*
X114665841Y-57062151D01*
X114638857Y-57056784D01*
X114503200Y-57029800D01*
X111269130Y-57029800D01*
X111185917Y-56946441D01*
X110965471Y-56854904D01*
X110726776Y-56854696D01*
X110506171Y-56945848D01*
X110337241Y-57114483D01*
X110245704Y-57334929D01*
X110245496Y-57573624D01*
X110336648Y-57794229D01*
X110505283Y-57963159D01*
X110725729Y-58054696D01*
X110964424Y-58054904D01*
X111185029Y-57963752D01*
X111269128Y-57879800D01*
X114327160Y-57879800D01*
X115830800Y-59383441D01*
X115830800Y-86437960D01*
X115005160Y-87263600D01*
X114266276Y-87263600D01*
X114195896Y-87158270D01*
X114028318Y-87046297D01*
X114200886Y-86913574D01*
X114347244Y-86659418D01*
X114366496Y-86585049D01*
X114308346Y-86468600D01*
X112885200Y-86468600D01*
X112885200Y-86488600D01*
X112785200Y-86488600D01*
X112785200Y-86468600D01*
X111362054Y-86468600D01*
X111303904Y-86585049D01*
X111323156Y-86659418D01*
X111469514Y-86913574D01*
X111642082Y-87046297D01*
X111474504Y-87158270D01*
X111311924Y-87401587D01*
X111254834Y-87688600D01*
X111311924Y-87975613D01*
X111474504Y-88218930D01*
X111631153Y-88323600D01*
X111474504Y-88428270D01*
X111311924Y-88671587D01*
X111254834Y-88958600D01*
X111311924Y-89245613D01*
X111474504Y-89488930D01*
X111631153Y-89593600D01*
X111474504Y-89698270D01*
X111404124Y-89803600D01*
X109974200Y-89803600D01*
X109811559Y-89835951D01*
X109673680Y-89928079D01*
X107979680Y-91622080D01*
X107887551Y-91759959D01*
X107887551Y-91759960D01*
X107855200Y-91922600D01*
X107855200Y-100177600D01*
X107882184Y-100313257D01*
X107887551Y-100340241D01*
X107979680Y-100478120D01*
X109263597Y-101762038D01*
X109101176Y-101761896D01*
X108880571Y-101853048D01*
X108711641Y-102021683D01*
X108620104Y-102242129D01*
X108620000Y-102360960D01*
X108108591Y-102872369D01*
X107993187Y-102895324D01*
X107749870Y-103057904D01*
X107645200Y-103214553D01*
X107540530Y-103057904D01*
X107297213Y-102895324D01*
X107010200Y-102838234D01*
X106723187Y-102895324D01*
X106479870Y-103057904D01*
X106375200Y-103214553D01*
X106270530Y-103057904D01*
X106027213Y-102895324D01*
X105740200Y-102838234D01*
X105453187Y-102895324D01*
X105209870Y-103057904D01*
X105105200Y-103214553D01*
X105000530Y-103057904D01*
X104757213Y-102895324D01*
X104470200Y-102838234D01*
X104183187Y-102895324D01*
X103939870Y-103057904D01*
X103835200Y-103214553D01*
X103730530Y-103057904D01*
X103487213Y-102895324D01*
X103200200Y-102838234D01*
X102913187Y-102895324D01*
X102669870Y-103057904D01*
X102565200Y-103214553D01*
X102460530Y-103057904D01*
X102217213Y-102895324D01*
X101930200Y-102838234D01*
X101643187Y-102895324D01*
X101399870Y-103057904D01*
X101295200Y-103214553D01*
X101190530Y-103057904D01*
X100947213Y-102895324D01*
X100660200Y-102838234D01*
X100373187Y-102895324D01*
X100129870Y-103057904D01*
X100025200Y-103214553D01*
X99920530Y-103057904D01*
X99677213Y-102895324D01*
X99390200Y-102838234D01*
X99103187Y-102895324D01*
X98859870Y-103057904D01*
X98747897Y-103225482D01*
X98615174Y-103052914D01*
X98361018Y-102906556D01*
X98286649Y-102887304D01*
X98170200Y-102945454D01*
X98170200Y-104368600D01*
X98190200Y-104368600D01*
X98190200Y-104468600D01*
X98170200Y-104468600D01*
X98170200Y-104488600D01*
X98070200Y-104488600D01*
X98070200Y-104468600D01*
X98050200Y-104468600D01*
X98050200Y-104368600D01*
X98070200Y-104368600D01*
X98070200Y-102945454D01*
X97953751Y-102887304D01*
X97879382Y-102906556D01*
X97625226Y-103052914D01*
X97453000Y-103276844D01*
X97453000Y-103046040D01*
X99106521Y-101392520D01*
X99198649Y-101254641D01*
X99231000Y-101092000D01*
X99231000Y-94243600D01*
X100235200Y-94243600D01*
X100235200Y-97178273D01*
X100280872Y-97288536D01*
X100365263Y-97372928D01*
X100475526Y-97418600D01*
X103410200Y-97418600D01*
X103485200Y-97343600D01*
X103485200Y-94168600D01*
X103585200Y-94168600D01*
X103585200Y-97343600D01*
X103660200Y-97418600D01*
X106594874Y-97418600D01*
X106705137Y-97372928D01*
X106789528Y-97288536D01*
X106835200Y-97178273D01*
X106835200Y-94243600D01*
X106760200Y-94168600D01*
X103585200Y-94168600D01*
X103485200Y-94168600D01*
X100310200Y-94168600D01*
X100235200Y-94243600D01*
X99231000Y-94243600D01*
X99231000Y-93726000D01*
X99198649Y-93563360D01*
X99130595Y-93461510D01*
X99106520Y-93425479D01*
X97707000Y-92025960D01*
X97707000Y-91468949D01*
X97779883Y-91541959D01*
X98000329Y-91633496D01*
X98239024Y-91633704D01*
X98459629Y-91542552D01*
X98628559Y-91373917D01*
X98720096Y-91153471D01*
X98720178Y-91058927D01*
X100235200Y-91058927D01*
X100235200Y-93993600D01*
X100310200Y-94068600D01*
X103485200Y-94068600D01*
X103485200Y-90893600D01*
X103585200Y-90893600D01*
X103585200Y-94068600D01*
X106760200Y-94068600D01*
X106835200Y-93993600D01*
X106835200Y-91058927D01*
X106789528Y-90948664D01*
X106705137Y-90864272D01*
X106594874Y-90818600D01*
X103660200Y-90818600D01*
X103585200Y-90893600D01*
X103485200Y-90893600D01*
X103410200Y-90818600D01*
X100475526Y-90818600D01*
X100365263Y-90864272D01*
X100280872Y-90948664D01*
X100235200Y-91058927D01*
X98720178Y-91058927D01*
X98720304Y-90914776D01*
X98629152Y-90694171D01*
X98545200Y-90610072D01*
X98545200Y-90087000D01*
X100736400Y-90087000D01*
X100872057Y-90060016D01*
X100899041Y-90054649D01*
X101036920Y-89962520D01*
X103475320Y-87524121D01*
X103557955Y-87400448D01*
X103567449Y-87386240D01*
X103599800Y-87223600D01*
X103599800Y-86252151D01*
X111303904Y-86252151D01*
X111362054Y-86368600D01*
X112785200Y-86368600D01*
X112785200Y-85668600D01*
X112885200Y-85668600D01*
X112885200Y-86368600D01*
X114308346Y-86368600D01*
X114366496Y-86252151D01*
X114347244Y-86177782D01*
X114200886Y-85923626D01*
X113968407Y-85744825D01*
X113685200Y-85668600D01*
X112885200Y-85668600D01*
X112785200Y-85668600D01*
X111985200Y-85668600D01*
X111701993Y-85744825D01*
X111469514Y-85923626D01*
X111323156Y-86177782D01*
X111303904Y-86252151D01*
X103599800Y-86252151D01*
X103599800Y-78687440D01*
X108324520Y-73962721D01*
X108416648Y-73824841D01*
X108416649Y-73824840D01*
X108449000Y-73662200D01*
X108449000Y-66055626D01*
X108549000Y-66075877D01*
X108899000Y-66075877D01*
X109010173Y-66054958D01*
X109070728Y-66015992D01*
X109079063Y-66024328D01*
X109189326Y-66070000D01*
X109299000Y-66070000D01*
X109374000Y-65995000D01*
X109374000Y-64820000D01*
X109474000Y-64820000D01*
X109474000Y-65995000D01*
X109549000Y-66070000D01*
X109658674Y-66070000D01*
X109768937Y-66024328D01*
X109774000Y-66019265D01*
X109779063Y-66024328D01*
X109889326Y-66070000D01*
X109999000Y-66070000D01*
X110074000Y-65995000D01*
X110074000Y-64820000D01*
X110174000Y-64820000D01*
X110174000Y-65995000D01*
X110249000Y-66070000D01*
X110358674Y-66070000D01*
X110468937Y-66024328D01*
X110553328Y-65939936D01*
X110599000Y-65829673D01*
X110599000Y-64895000D01*
X110524000Y-64820000D01*
X110174000Y-64820000D01*
X110074000Y-64820000D01*
X109474000Y-64820000D01*
X109374000Y-64820000D01*
X109354000Y-64820000D01*
X109354000Y-64720000D01*
X109374000Y-64720000D01*
X109374000Y-63545000D01*
X109474000Y-63545000D01*
X109474000Y-64720000D01*
X110074000Y-64720000D01*
X110074000Y-63545000D01*
X110174000Y-63545000D01*
X110174000Y-64720000D01*
X110524000Y-64720000D01*
X110599000Y-64645000D01*
X110599000Y-63710327D01*
X110553328Y-63600064D01*
X110468937Y-63515672D01*
X110358674Y-63470000D01*
X110249000Y-63470000D01*
X110174000Y-63545000D01*
X110074000Y-63545000D01*
X109999000Y-63470000D01*
X109889326Y-63470000D01*
X109779063Y-63515672D01*
X109774000Y-63520735D01*
X109768937Y-63515672D01*
X109658674Y-63470000D01*
X109549000Y-63470000D01*
X109474000Y-63545000D01*
X109374000Y-63545000D01*
X109299000Y-63470000D01*
X109189326Y-63470000D01*
X109149000Y-63486703D01*
X109149000Y-57187400D01*
X109116649Y-57024760D01*
X109116649Y-57024759D01*
X109024520Y-56886880D01*
X108804001Y-56666361D01*
X108804104Y-56548576D01*
X108712952Y-56327971D01*
X108544317Y-56159041D01*
X108323871Y-56067504D01*
X108085176Y-56067296D01*
X107864571Y-56158448D01*
X107695641Y-56327083D01*
X107604104Y-56547529D01*
X107603896Y-56786224D01*
X107695048Y-57006829D01*
X107863683Y-57175759D01*
X108084129Y-57267296D01*
X108202960Y-57267400D01*
X108299000Y-57363440D01*
X108299000Y-63484374D01*
X108199000Y-63464123D01*
X107849000Y-63464123D01*
X107737827Y-63485042D01*
X107677272Y-63524008D01*
X107668937Y-63515672D01*
X107558674Y-63470000D01*
X107449000Y-63470000D01*
X107374000Y-63545000D01*
X107374000Y-64720000D01*
X107394000Y-64720000D01*
X107394000Y-64820000D01*
X107374000Y-64820000D01*
X107374000Y-65995000D01*
X107449000Y-66070000D01*
X107558674Y-66070000D01*
X107599000Y-66053297D01*
X107599000Y-73486159D01*
X102874280Y-78210880D01*
X102782151Y-78348759D01*
X102782151Y-78348760D01*
X102749800Y-78511400D01*
X102749800Y-87047559D01*
X100560360Y-89237000D01*
X98545200Y-89237000D01*
X98545200Y-88620600D01*
X98512849Y-88457960D01*
X98512849Y-88457959D01*
X98420720Y-88320080D01*
X97488720Y-87388080D01*
X97350841Y-87295951D01*
X97323857Y-87290584D01*
X97188200Y-87263600D01*
X96266276Y-87263600D01*
X96195896Y-87158270D01*
X96028318Y-87046297D01*
X96200886Y-86913574D01*
X96347244Y-86659418D01*
X96366496Y-86585049D01*
X96308346Y-86468600D01*
X94885200Y-86468600D01*
X94885200Y-86488600D01*
X94785200Y-86488600D01*
X94785200Y-86468600D01*
X93362054Y-86468600D01*
X93303904Y-86585049D01*
X93323156Y-86659418D01*
X93469514Y-86913574D01*
X93642082Y-87046297D01*
X93474504Y-87158270D01*
X93311924Y-87401587D01*
X93254834Y-87688600D01*
X93311924Y-87975613D01*
X93474504Y-88218930D01*
X93631153Y-88323600D01*
X93474504Y-88428270D01*
X93311924Y-88671587D01*
X93254834Y-88958600D01*
X93311924Y-89245613D01*
X93474504Y-89488930D01*
X93631153Y-89593600D01*
X93474504Y-89698270D01*
X93311924Y-89941587D01*
X93254834Y-90228600D01*
X93311924Y-90515613D01*
X93474504Y-90758930D01*
X93631153Y-90863600D01*
X93474504Y-90968270D01*
X93311924Y-91211587D01*
X93254834Y-91498600D01*
X93311924Y-91785613D01*
X93474504Y-92028930D01*
X93631153Y-92133600D01*
X93474504Y-92238270D01*
X93311924Y-92481587D01*
X93254834Y-92768600D01*
X93311924Y-93055613D01*
X93474504Y-93298930D01*
X93631153Y-93403600D01*
X93474504Y-93508270D01*
X93311924Y-93751587D01*
X93254834Y-94038600D01*
X93311924Y-94325613D01*
X93474504Y-94568930D01*
X93631153Y-94673600D01*
X93474504Y-94778270D01*
X93404124Y-94883600D01*
X93228372Y-94883600D01*
X93033071Y-94802504D01*
X92794376Y-94802296D01*
X92573771Y-94893448D01*
X92404841Y-95062083D01*
X92313304Y-95282529D01*
X92313096Y-95521224D01*
X92404248Y-95741829D01*
X92572883Y-95910759D01*
X92793329Y-96002296D01*
X93032024Y-96002504D01*
X93252629Y-95911352D01*
X93414755Y-95749509D01*
X93474504Y-95838930D01*
X93631153Y-95943600D01*
X93474504Y-96048270D01*
X93311924Y-96291587D01*
X93254834Y-96578600D01*
X93311924Y-96865613D01*
X93474504Y-97108930D01*
X93631153Y-97213600D01*
X93474504Y-97318270D01*
X93311924Y-97561587D01*
X93254834Y-97848600D01*
X93311924Y-98135613D01*
X93474504Y-98378930D01*
X93631153Y-98483600D01*
X93474504Y-98588270D01*
X93311924Y-98831587D01*
X93254834Y-99118600D01*
X93311924Y-99405613D01*
X93474504Y-99648930D01*
X93631153Y-99753600D01*
X93474504Y-99858270D01*
X93311924Y-100101587D01*
X93254834Y-100388600D01*
X93311924Y-100675613D01*
X93474504Y-100918930D01*
X93631153Y-101023600D01*
X93474504Y-101128270D01*
X93311924Y-101371587D01*
X93265138Y-101606800D01*
X91514441Y-101606800D01*
X91509400Y-101601760D01*
X91509400Y-86252151D01*
X93303904Y-86252151D01*
X93362054Y-86368600D01*
X94785200Y-86368600D01*
X94785200Y-85668600D01*
X94885200Y-85668600D01*
X94885200Y-86368600D01*
X96308346Y-86368600D01*
X96366496Y-86252151D01*
X96347244Y-86177782D01*
X96200886Y-85923626D01*
X95968407Y-85744825D01*
X95685200Y-85668600D01*
X94885200Y-85668600D01*
X94785200Y-85668600D01*
X93985200Y-85668600D01*
X93701993Y-85744825D01*
X93469514Y-85923626D01*
X93323156Y-86177782D01*
X93303904Y-86252151D01*
X91509400Y-86252151D01*
X91509400Y-75766440D01*
X96010241Y-71265600D01*
X99999800Y-71265600D01*
X100135457Y-71238616D01*
X100162441Y-71233249D01*
X100300320Y-71141120D01*
X103424520Y-68016920D01*
X103516649Y-67879041D01*
X103522016Y-67852057D01*
X103549000Y-67716400D01*
X103549000Y-66055626D01*
X103649000Y-66075877D01*
X103999000Y-66075877D01*
X104099000Y-66057060D01*
X104099000Y-66170000D01*
X104125984Y-66305657D01*
X104131351Y-66332641D01*
X104172200Y-66393775D01*
X104172200Y-68132361D01*
X104097376Y-68132296D01*
X103876771Y-68223448D01*
X103707841Y-68392083D01*
X103616304Y-68612529D01*
X103616096Y-68851224D01*
X103707248Y-69071829D01*
X103875883Y-69240759D01*
X104096329Y-69332296D01*
X104335024Y-69332504D01*
X104555629Y-69241352D01*
X104724559Y-69072717D01*
X104816096Y-68852271D01*
X104816200Y-68733441D01*
X104897720Y-68651921D01*
X104989848Y-68514041D01*
X104989849Y-68514040D01*
X105022200Y-68351400D01*
X105022200Y-67491471D01*
X105112329Y-67528896D01*
X105351024Y-67529104D01*
X105571629Y-67437952D01*
X105740559Y-67269317D01*
X105832096Y-67048871D01*
X105832304Y-66810176D01*
X105741152Y-66589571D01*
X105649000Y-66497258D01*
X105649000Y-66055626D01*
X105749000Y-66075877D01*
X106099000Y-66075877D01*
X106210173Y-66054958D01*
X106270728Y-66015992D01*
X106279063Y-66024328D01*
X106389326Y-66070000D01*
X106499000Y-66070000D01*
X106574000Y-65995000D01*
X106574000Y-64820000D01*
X106674000Y-64820000D01*
X106674000Y-65995000D01*
X106749000Y-66070000D01*
X106858674Y-66070000D01*
X106968937Y-66024328D01*
X106974000Y-66019265D01*
X106979063Y-66024328D01*
X107089326Y-66070000D01*
X107199000Y-66070000D01*
X107274000Y-65995000D01*
X107274000Y-64820000D01*
X106674000Y-64820000D01*
X106574000Y-64820000D01*
X106554000Y-64820000D01*
X106554000Y-64720000D01*
X106574000Y-64720000D01*
X106574000Y-63545000D01*
X106674000Y-63545000D01*
X106674000Y-64720000D01*
X107274000Y-64720000D01*
X107274000Y-63545000D01*
X107199000Y-63470000D01*
X107089326Y-63470000D01*
X106979063Y-63515672D01*
X106974000Y-63520735D01*
X106968937Y-63515672D01*
X106858674Y-63470000D01*
X106749000Y-63470000D01*
X106674000Y-63545000D01*
X106574000Y-63545000D01*
X106499000Y-63470000D01*
X106389326Y-63470000D01*
X106349000Y-63486703D01*
X106349000Y-58476800D01*
X106316649Y-58314160D01*
X106316649Y-58314159D01*
X106224520Y-58176280D01*
X104613001Y-56564761D01*
X104613104Y-56446976D01*
X104521952Y-56226371D01*
X104353317Y-56057441D01*
X104132871Y-55965904D01*
X103894176Y-55965696D01*
X103673571Y-56056848D01*
X103504641Y-56225483D01*
X103413104Y-56445929D01*
X103412896Y-56684624D01*
X103504048Y-56905229D01*
X103672683Y-57074159D01*
X103893129Y-57165696D01*
X104011960Y-57165800D01*
X105499000Y-58652840D01*
X105499000Y-63484374D01*
X105399000Y-63464123D01*
X105049000Y-63464123D01*
X104937827Y-63485042D01*
X104873721Y-63526293D01*
X104818003Y-63488222D01*
X104699000Y-63464123D01*
X104349000Y-63464123D01*
X104249000Y-63482940D01*
X104249000Y-63006200D01*
X104216649Y-62843560D01*
X104216649Y-62843559D01*
X104158600Y-62756684D01*
X104158600Y-59515365D01*
X104225429Y-59487752D01*
X104394359Y-59319117D01*
X104485896Y-59098671D01*
X104486104Y-58859976D01*
X104394952Y-58639371D01*
X104226317Y-58470441D01*
X104005871Y-58378904D01*
X103767176Y-58378696D01*
X103546571Y-58469848D01*
X103377641Y-58638483D01*
X103286104Y-58858929D01*
X103285896Y-59097624D01*
X103308600Y-59152572D01*
X103308600Y-62915800D01*
X103326582Y-63006200D01*
X103340951Y-63078441D01*
X103399000Y-63165316D01*
X103399000Y-63484374D01*
X103299000Y-63464123D01*
X102949000Y-63464123D01*
X102837827Y-63485042D01*
X102777272Y-63524008D01*
X102768937Y-63515672D01*
X102658674Y-63470000D01*
X102549000Y-63470000D01*
X102474000Y-63545000D01*
X102474000Y-64720000D01*
X102494000Y-64720000D01*
X102494000Y-64820000D01*
X102474000Y-64820000D01*
X102474000Y-65995000D01*
X102549000Y-66070000D01*
X102658674Y-66070000D01*
X102699000Y-66053297D01*
X102699000Y-67540360D01*
X99823760Y-70415600D01*
X95834200Y-70415600D01*
X95671559Y-70447951D01*
X95533680Y-70540079D01*
X90783880Y-75289880D01*
X90691751Y-75427759D01*
X90691751Y-75427760D01*
X90659400Y-75590400D01*
X90659400Y-101777800D01*
X90677573Y-101869160D01*
X90691751Y-101940441D01*
X90783880Y-102078320D01*
X91037879Y-102332320D01*
X91130008Y-102393878D01*
X91175760Y-102424449D01*
X91338400Y-102456800D01*
X93435395Y-102456800D01*
X93404124Y-102503600D01*
X91508400Y-102503600D01*
X91345759Y-102535951D01*
X91207880Y-102628079D01*
X90631480Y-103204480D01*
X90545000Y-103333905D01*
X90545000Y-64895000D01*
X101949000Y-64895000D01*
X101949000Y-65829673D01*
X101994672Y-65939936D01*
X102079063Y-66024328D01*
X102189326Y-66070000D01*
X102299000Y-66070000D01*
X102374000Y-65995000D01*
X102374000Y-64820000D01*
X102024000Y-64820000D01*
X101949000Y-64895000D01*
X90545000Y-64895000D01*
X90545000Y-63710327D01*
X101949000Y-63710327D01*
X101949000Y-64645000D01*
X102024000Y-64720000D01*
X102374000Y-64720000D01*
X102374000Y-63545000D01*
X102299000Y-63470000D01*
X102189326Y-63470000D01*
X102079063Y-63515672D01*
X101994672Y-63600064D01*
X101949000Y-63710327D01*
X90545000Y-63710327D01*
X90545000Y-47091810D01*
X116465000Y-47190177D01*
X116465000Y-47190177D01*
G37*
X116465000Y-47190177D02*
X116465000Y-58815559D01*
X114803720Y-57154280D01*
X114665841Y-57062151D01*
X114638857Y-57056784D01*
X114503200Y-57029800D01*
X111269130Y-57029800D01*
X111185917Y-56946441D01*
X110965471Y-56854904D01*
X110726776Y-56854696D01*
X110506171Y-56945848D01*
X110337241Y-57114483D01*
X110245704Y-57334929D01*
X110245496Y-57573624D01*
X110336648Y-57794229D01*
X110505283Y-57963159D01*
X110725729Y-58054696D01*
X110964424Y-58054904D01*
X111185029Y-57963752D01*
X111269128Y-57879800D01*
X114327160Y-57879800D01*
X115830800Y-59383441D01*
X115830800Y-86437960D01*
X115005160Y-87263600D01*
X114266276Y-87263600D01*
X114195896Y-87158270D01*
X114028318Y-87046297D01*
X114200886Y-86913574D01*
X114347244Y-86659418D01*
X114366496Y-86585049D01*
X114308346Y-86468600D01*
X112885200Y-86468600D01*
X112885200Y-86488600D01*
X112785200Y-86488600D01*
X112785200Y-86468600D01*
X111362054Y-86468600D01*
X111303904Y-86585049D01*
X111323156Y-86659418D01*
X111469514Y-86913574D01*
X111642082Y-87046297D01*
X111474504Y-87158270D01*
X111311924Y-87401587D01*
X111254834Y-87688600D01*
X111311924Y-87975613D01*
X111474504Y-88218930D01*
X111631153Y-88323600D01*
X111474504Y-88428270D01*
X111311924Y-88671587D01*
X111254834Y-88958600D01*
X111311924Y-89245613D01*
X111474504Y-89488930D01*
X111631153Y-89593600D01*
X111474504Y-89698270D01*
X111404124Y-89803600D01*
X109974200Y-89803600D01*
X109811559Y-89835951D01*
X109673680Y-89928079D01*
X107979680Y-91622080D01*
X107887551Y-91759959D01*
X107887551Y-91759960D01*
X107855200Y-91922600D01*
X107855200Y-100177600D01*
X107882184Y-100313257D01*
X107887551Y-100340241D01*
X107979680Y-100478120D01*
X109263597Y-101762038D01*
X109101176Y-101761896D01*
X108880571Y-101853048D01*
X108711641Y-102021683D01*
X108620104Y-102242129D01*
X108620000Y-102360960D01*
X108108591Y-102872369D01*
X107993187Y-102895324D01*
X107749870Y-103057904D01*
X107645200Y-103214553D01*
X107540530Y-103057904D01*
X107297213Y-102895324D01*
X107010200Y-102838234D01*
X106723187Y-102895324D01*
X106479870Y-103057904D01*
X106375200Y-103214553D01*
X106270530Y-103057904D01*
X106027213Y-102895324D01*
X105740200Y-102838234D01*
X105453187Y-102895324D01*
X105209870Y-103057904D01*
X105105200Y-103214553D01*
X105000530Y-103057904D01*
X104757213Y-102895324D01*
X104470200Y-102838234D01*
X104183187Y-102895324D01*
X103939870Y-103057904D01*
X103835200Y-103214553D01*
X103730530Y-103057904D01*
X103487213Y-102895324D01*
X103200200Y-102838234D01*
X102913187Y-102895324D01*
X102669870Y-103057904D01*
X102565200Y-103214553D01*
X102460530Y-103057904D01*
X102217213Y-102895324D01*
X101930200Y-102838234D01*
X101643187Y-102895324D01*
X101399870Y-103057904D01*
X101295200Y-103214553D01*
X101190530Y-103057904D01*
X100947213Y-102895324D01*
X100660200Y-102838234D01*
X100373187Y-102895324D01*
X100129870Y-103057904D01*
X100025200Y-103214553D01*
X99920530Y-103057904D01*
X99677213Y-102895324D01*
X99390200Y-102838234D01*
X99103187Y-102895324D01*
X98859870Y-103057904D01*
X98747897Y-103225482D01*
X98615174Y-103052914D01*
X98361018Y-102906556D01*
X98286649Y-102887304D01*
X98170200Y-102945454D01*
X98170200Y-104368600D01*
X98190200Y-104368600D01*
X98190200Y-104468600D01*
X98170200Y-104468600D01*
X98170200Y-104488600D01*
X98070200Y-104488600D01*
X98070200Y-104468600D01*
X98050200Y-104468600D01*
X98050200Y-104368600D01*
X98070200Y-104368600D01*
X98070200Y-102945454D01*
X97953751Y-102887304D01*
X97879382Y-102906556D01*
X97625226Y-103052914D01*
X97453000Y-103276844D01*
X97453000Y-103046040D01*
X99106521Y-101392520D01*
X99198649Y-101254641D01*
X99231000Y-101092000D01*
X99231000Y-94243600D01*
X100235200Y-94243600D01*
X100235200Y-97178273D01*
X100280872Y-97288536D01*
X100365263Y-97372928D01*
X100475526Y-97418600D01*
X103410200Y-97418600D01*
X103485200Y-97343600D01*
X103485200Y-94168600D01*
X103585200Y-94168600D01*
X103585200Y-97343600D01*
X103660200Y-97418600D01*
X106594874Y-97418600D01*
X106705137Y-97372928D01*
X106789528Y-97288536D01*
X106835200Y-97178273D01*
X106835200Y-94243600D01*
X106760200Y-94168600D01*
X103585200Y-94168600D01*
X103485200Y-94168600D01*
X100310200Y-94168600D01*
X100235200Y-94243600D01*
X99231000Y-94243600D01*
X99231000Y-93726000D01*
X99198649Y-93563360D01*
X99130595Y-93461510D01*
X99106520Y-93425479D01*
X97707000Y-92025960D01*
X97707000Y-91468949D01*
X97779883Y-91541959D01*
X98000329Y-91633496D01*
X98239024Y-91633704D01*
X98459629Y-91542552D01*
X98628559Y-91373917D01*
X98720096Y-91153471D01*
X98720178Y-91058927D01*
X100235200Y-91058927D01*
X100235200Y-93993600D01*
X100310200Y-94068600D01*
X103485200Y-94068600D01*
X103485200Y-90893600D01*
X103585200Y-90893600D01*
X103585200Y-94068600D01*
X106760200Y-94068600D01*
X106835200Y-93993600D01*
X106835200Y-91058927D01*
X106789528Y-90948664D01*
X106705137Y-90864272D01*
X106594874Y-90818600D01*
X103660200Y-90818600D01*
X103585200Y-90893600D01*
X103485200Y-90893600D01*
X103410200Y-90818600D01*
X100475526Y-90818600D01*
X100365263Y-90864272D01*
X100280872Y-90948664D01*
X100235200Y-91058927D01*
X98720178Y-91058927D01*
X98720304Y-90914776D01*
X98629152Y-90694171D01*
X98545200Y-90610072D01*
X98545200Y-90087000D01*
X100736400Y-90087000D01*
X100872057Y-90060016D01*
X100899041Y-90054649D01*
X101036920Y-89962520D01*
X103475320Y-87524121D01*
X103557955Y-87400448D01*
X103567449Y-87386240D01*
X103599800Y-87223600D01*
X103599800Y-86252151D01*
X111303904Y-86252151D01*
X111362054Y-86368600D01*
X112785200Y-86368600D01*
X112785200Y-85668600D01*
X112885200Y-85668600D01*
X112885200Y-86368600D01*
X114308346Y-86368600D01*
X114366496Y-86252151D01*
X114347244Y-86177782D01*
X114200886Y-85923626D01*
X113968407Y-85744825D01*
X113685200Y-85668600D01*
X112885200Y-85668600D01*
X112785200Y-85668600D01*
X111985200Y-85668600D01*
X111701993Y-85744825D01*
X111469514Y-85923626D01*
X111323156Y-86177782D01*
X111303904Y-86252151D01*
X103599800Y-86252151D01*
X103599800Y-78687440D01*
X108324520Y-73962721D01*
X108416648Y-73824841D01*
X108416649Y-73824840D01*
X108449000Y-73662200D01*
X108449000Y-66055626D01*
X108549000Y-66075877D01*
X108899000Y-66075877D01*
X109010173Y-66054958D01*
X109070728Y-66015992D01*
X109079063Y-66024328D01*
X109189326Y-66070000D01*
X109299000Y-66070000D01*
X109374000Y-65995000D01*
X109374000Y-64820000D01*
X109474000Y-64820000D01*
X109474000Y-65995000D01*
X109549000Y-66070000D01*
X109658674Y-66070000D01*
X109768937Y-66024328D01*
X109774000Y-66019265D01*
X109779063Y-66024328D01*
X109889326Y-66070000D01*
X109999000Y-66070000D01*
X110074000Y-65995000D01*
X110074000Y-64820000D01*
X110174000Y-64820000D01*
X110174000Y-65995000D01*
X110249000Y-66070000D01*
X110358674Y-66070000D01*
X110468937Y-66024328D01*
X110553328Y-65939936D01*
X110599000Y-65829673D01*
X110599000Y-64895000D01*
X110524000Y-64820000D01*
X110174000Y-64820000D01*
X110074000Y-64820000D01*
X109474000Y-64820000D01*
X109374000Y-64820000D01*
X109354000Y-64820000D01*
X109354000Y-64720000D01*
X109374000Y-64720000D01*
X109374000Y-63545000D01*
X109474000Y-63545000D01*
X109474000Y-64720000D01*
X110074000Y-64720000D01*
X110074000Y-63545000D01*
X110174000Y-63545000D01*
X110174000Y-64720000D01*
X110524000Y-64720000D01*
X110599000Y-64645000D01*
X110599000Y-63710327D01*
X110553328Y-63600064D01*
X110468937Y-63515672D01*
X110358674Y-63470000D01*
X110249000Y-63470000D01*
X110174000Y-63545000D01*
X110074000Y-63545000D01*
X109999000Y-63470000D01*
X109889326Y-63470000D01*
X109779063Y-63515672D01*
X109774000Y-63520735D01*
X109768937Y-63515672D01*
X109658674Y-63470000D01*
X109549000Y-63470000D01*
X109474000Y-63545000D01*
X109374000Y-63545000D01*
X109299000Y-63470000D01*
X109189326Y-63470000D01*
X109149000Y-63486703D01*
X109149000Y-57187400D01*
X109116649Y-57024760D01*
X109116649Y-57024759D01*
X109024520Y-56886880D01*
X108804001Y-56666361D01*
X108804104Y-56548576D01*
X108712952Y-56327971D01*
X108544317Y-56159041D01*
X108323871Y-56067504D01*
X108085176Y-56067296D01*
X107864571Y-56158448D01*
X107695641Y-56327083D01*
X107604104Y-56547529D01*
X107603896Y-56786224D01*
X107695048Y-57006829D01*
X107863683Y-57175759D01*
X108084129Y-57267296D01*
X108202960Y-57267400D01*
X108299000Y-57363440D01*
X108299000Y-63484374D01*
X108199000Y-63464123D01*
X107849000Y-63464123D01*
X107737827Y-63485042D01*
X107677272Y-63524008D01*
X107668937Y-63515672D01*
X107558674Y-63470000D01*
X107449000Y-63470000D01*
X107374000Y-63545000D01*
X107374000Y-64720000D01*
X107394000Y-64720000D01*
X107394000Y-64820000D01*
X107374000Y-64820000D01*
X107374000Y-65995000D01*
X107449000Y-66070000D01*
X107558674Y-66070000D01*
X107599000Y-66053297D01*
X107599000Y-73486159D01*
X102874280Y-78210880D01*
X102782151Y-78348759D01*
X102782151Y-78348760D01*
X102749800Y-78511400D01*
X102749800Y-87047559D01*
X100560360Y-89237000D01*
X98545200Y-89237000D01*
X98545200Y-88620600D01*
X98512849Y-88457960D01*
X98512849Y-88457959D01*
X98420720Y-88320080D01*
X97488720Y-87388080D01*
X97350841Y-87295951D01*
X97323857Y-87290584D01*
X97188200Y-87263600D01*
X96266276Y-87263600D01*
X96195896Y-87158270D01*
X96028318Y-87046297D01*
X96200886Y-86913574D01*
X96347244Y-86659418D01*
X96366496Y-86585049D01*
X96308346Y-86468600D01*
X94885200Y-86468600D01*
X94885200Y-86488600D01*
X94785200Y-86488600D01*
X94785200Y-86468600D01*
X93362054Y-86468600D01*
X93303904Y-86585049D01*
X93323156Y-86659418D01*
X93469514Y-86913574D01*
X93642082Y-87046297D01*
X93474504Y-87158270D01*
X93311924Y-87401587D01*
X93254834Y-87688600D01*
X93311924Y-87975613D01*
X93474504Y-88218930D01*
X93631153Y-88323600D01*
X93474504Y-88428270D01*
X93311924Y-88671587D01*
X93254834Y-88958600D01*
X93311924Y-89245613D01*
X93474504Y-89488930D01*
X93631153Y-89593600D01*
X93474504Y-89698270D01*
X93311924Y-89941587D01*
X93254834Y-90228600D01*
X93311924Y-90515613D01*
X93474504Y-90758930D01*
X93631153Y-90863600D01*
X93474504Y-90968270D01*
X93311924Y-91211587D01*
X93254834Y-91498600D01*
X93311924Y-91785613D01*
X93474504Y-92028930D01*
X93631153Y-92133600D01*
X93474504Y-92238270D01*
X93311924Y-92481587D01*
X93254834Y-92768600D01*
X93311924Y-93055613D01*
X93474504Y-93298930D01*
X93631153Y-93403600D01*
X93474504Y-93508270D01*
X93311924Y-93751587D01*
X93254834Y-94038600D01*
X93311924Y-94325613D01*
X93474504Y-94568930D01*
X93631153Y-94673600D01*
X93474504Y-94778270D01*
X93404124Y-94883600D01*
X93228372Y-94883600D01*
X93033071Y-94802504D01*
X92794376Y-94802296D01*
X92573771Y-94893448D01*
X92404841Y-95062083D01*
X92313304Y-95282529D01*
X92313096Y-95521224D01*
X92404248Y-95741829D01*
X92572883Y-95910759D01*
X92793329Y-96002296D01*
X93032024Y-96002504D01*
X93252629Y-95911352D01*
X93414755Y-95749509D01*
X93474504Y-95838930D01*
X93631153Y-95943600D01*
X93474504Y-96048270D01*
X93311924Y-96291587D01*
X93254834Y-96578600D01*
X93311924Y-96865613D01*
X93474504Y-97108930D01*
X93631153Y-97213600D01*
X93474504Y-97318270D01*
X93311924Y-97561587D01*
X93254834Y-97848600D01*
X93311924Y-98135613D01*
X93474504Y-98378930D01*
X93631153Y-98483600D01*
X93474504Y-98588270D01*
X93311924Y-98831587D01*
X93254834Y-99118600D01*
X93311924Y-99405613D01*
X93474504Y-99648930D01*
X93631153Y-99753600D01*
X93474504Y-99858270D01*
X93311924Y-100101587D01*
X93254834Y-100388600D01*
X93311924Y-100675613D01*
X93474504Y-100918930D01*
X93631153Y-101023600D01*
X93474504Y-101128270D01*
X93311924Y-101371587D01*
X93265138Y-101606800D01*
X91514441Y-101606800D01*
X91509400Y-101601760D01*
X91509400Y-86252151D01*
X93303904Y-86252151D01*
X93362054Y-86368600D01*
X94785200Y-86368600D01*
X94785200Y-85668600D01*
X94885200Y-85668600D01*
X94885200Y-86368600D01*
X96308346Y-86368600D01*
X96366496Y-86252151D01*
X96347244Y-86177782D01*
X96200886Y-85923626D01*
X95968407Y-85744825D01*
X95685200Y-85668600D01*
X94885200Y-85668600D01*
X94785200Y-85668600D01*
X93985200Y-85668600D01*
X93701993Y-85744825D01*
X93469514Y-85923626D01*
X93323156Y-86177782D01*
X93303904Y-86252151D01*
X91509400Y-86252151D01*
X91509400Y-75766440D01*
X96010241Y-71265600D01*
X99999800Y-71265600D01*
X100135457Y-71238616D01*
X100162441Y-71233249D01*
X100300320Y-71141120D01*
X103424520Y-68016920D01*
X103516649Y-67879041D01*
X103522016Y-67852057D01*
X103549000Y-67716400D01*
X103549000Y-66055626D01*
X103649000Y-66075877D01*
X103999000Y-66075877D01*
X104099000Y-66057060D01*
X104099000Y-66170000D01*
X104125984Y-66305657D01*
X104131351Y-66332641D01*
X104172200Y-66393775D01*
X104172200Y-68132361D01*
X104097376Y-68132296D01*
X103876771Y-68223448D01*
X103707841Y-68392083D01*
X103616304Y-68612529D01*
X103616096Y-68851224D01*
X103707248Y-69071829D01*
X103875883Y-69240759D01*
X104096329Y-69332296D01*
X104335024Y-69332504D01*
X104555629Y-69241352D01*
X104724559Y-69072717D01*
X104816096Y-68852271D01*
X104816200Y-68733441D01*
X104897720Y-68651921D01*
X104989848Y-68514041D01*
X104989849Y-68514040D01*
X105022200Y-68351400D01*
X105022200Y-67491471D01*
X105112329Y-67528896D01*
X105351024Y-67529104D01*
X105571629Y-67437952D01*
X105740559Y-67269317D01*
X105832096Y-67048871D01*
X105832304Y-66810176D01*
X105741152Y-66589571D01*
X105649000Y-66497258D01*
X105649000Y-66055626D01*
X105749000Y-66075877D01*
X106099000Y-66075877D01*
X106210173Y-66054958D01*
X106270728Y-66015992D01*
X106279063Y-66024328D01*
X106389326Y-66070000D01*
X106499000Y-66070000D01*
X106574000Y-65995000D01*
X106574000Y-64820000D01*
X106674000Y-64820000D01*
X106674000Y-65995000D01*
X106749000Y-66070000D01*
X106858674Y-66070000D01*
X106968937Y-66024328D01*
X106974000Y-66019265D01*
X106979063Y-66024328D01*
X107089326Y-66070000D01*
X107199000Y-66070000D01*
X107274000Y-65995000D01*
X107274000Y-64820000D01*
X106674000Y-64820000D01*
X106574000Y-64820000D01*
X106554000Y-64820000D01*
X106554000Y-64720000D01*
X106574000Y-64720000D01*
X106574000Y-63545000D01*
X106674000Y-63545000D01*
X106674000Y-64720000D01*
X107274000Y-64720000D01*
X107274000Y-63545000D01*
X107199000Y-63470000D01*
X107089326Y-63470000D01*
X106979063Y-63515672D01*
X106974000Y-63520735D01*
X106968937Y-63515672D01*
X106858674Y-63470000D01*
X106749000Y-63470000D01*
X106674000Y-63545000D01*
X106574000Y-63545000D01*
X106499000Y-63470000D01*
X106389326Y-63470000D01*
X106349000Y-63486703D01*
X106349000Y-58476800D01*
X106316649Y-58314160D01*
X106316649Y-58314159D01*
X106224520Y-58176280D01*
X104613001Y-56564761D01*
X104613104Y-56446976D01*
X104521952Y-56226371D01*
X104353317Y-56057441D01*
X104132871Y-55965904D01*
X103894176Y-55965696D01*
X103673571Y-56056848D01*
X103504641Y-56225483D01*
X103413104Y-56445929D01*
X103412896Y-56684624D01*
X103504048Y-56905229D01*
X103672683Y-57074159D01*
X103893129Y-57165696D01*
X104011960Y-57165800D01*
X105499000Y-58652840D01*
X105499000Y-63484374D01*
X105399000Y-63464123D01*
X105049000Y-63464123D01*
X104937827Y-63485042D01*
X104873721Y-63526293D01*
X104818003Y-63488222D01*
X104699000Y-63464123D01*
X104349000Y-63464123D01*
X104249000Y-63482940D01*
X104249000Y-63006200D01*
X104216649Y-62843560D01*
X104216649Y-62843559D01*
X104158600Y-62756684D01*
X104158600Y-59515365D01*
X104225429Y-59487752D01*
X104394359Y-59319117D01*
X104485896Y-59098671D01*
X104486104Y-58859976D01*
X104394952Y-58639371D01*
X104226317Y-58470441D01*
X104005871Y-58378904D01*
X103767176Y-58378696D01*
X103546571Y-58469848D01*
X103377641Y-58638483D01*
X103286104Y-58858929D01*
X103285896Y-59097624D01*
X103308600Y-59152572D01*
X103308600Y-62915800D01*
X103326582Y-63006200D01*
X103340951Y-63078441D01*
X103399000Y-63165316D01*
X103399000Y-63484374D01*
X103299000Y-63464123D01*
X102949000Y-63464123D01*
X102837827Y-63485042D01*
X102777272Y-63524008D01*
X102768937Y-63515672D01*
X102658674Y-63470000D01*
X102549000Y-63470000D01*
X102474000Y-63545000D01*
X102474000Y-64720000D01*
X102494000Y-64720000D01*
X102494000Y-64820000D01*
X102474000Y-64820000D01*
X102474000Y-65995000D01*
X102549000Y-66070000D01*
X102658674Y-66070000D01*
X102699000Y-66053297D01*
X102699000Y-67540360D01*
X99823760Y-70415600D01*
X95834200Y-70415600D01*
X95671559Y-70447951D01*
X95533680Y-70540079D01*
X90783880Y-75289880D01*
X90691751Y-75427759D01*
X90691751Y-75427760D01*
X90659400Y-75590400D01*
X90659400Y-101777800D01*
X90677573Y-101869160D01*
X90691751Y-101940441D01*
X90783880Y-102078320D01*
X91037879Y-102332320D01*
X91130008Y-102393878D01*
X91175760Y-102424449D01*
X91338400Y-102456800D01*
X93435395Y-102456800D01*
X93404124Y-102503600D01*
X91508400Y-102503600D01*
X91345759Y-102535951D01*
X91207880Y-102628079D01*
X90631480Y-103204480D01*
X90545000Y-103333905D01*
X90545000Y-64895000D01*
X101949000Y-64895000D01*
X101949000Y-65829673D01*
X101994672Y-65939936D01*
X102079063Y-66024328D01*
X102189326Y-66070000D01*
X102299000Y-66070000D01*
X102374000Y-65995000D01*
X102374000Y-64820000D01*
X102024000Y-64820000D01*
X101949000Y-64895000D01*
X90545000Y-64895000D01*
X90545000Y-63710327D01*
X101949000Y-63710327D01*
X101949000Y-64645000D01*
X102024000Y-64720000D01*
X102374000Y-64720000D01*
X102374000Y-63545000D01*
X102299000Y-63470000D01*
X102189326Y-63470000D01*
X102079063Y-63515672D01*
X101994672Y-63600064D01*
X101949000Y-63710327D01*
X90545000Y-63710327D01*
X90545000Y-47091810D01*
X116465000Y-47190177D01*
M02*
