G04 #@! TF.FileFunction,Paste,Top*
%FSLAX46Y46*%
G04 Gerber Fmt 4.6, Leading zero omitted, Abs format (unit mm)*
G04 Created by KiCad (PCBNEW 4.0.4-stable) date 04/22/19 13:39:38*
%MOMM*%
%LPD*%
G01*
G04 APERTURE LIST*
%ADD10C,0.100000*%
%ADD11R,1.600000X2.000000*%
%ADD12R,1.700000X2.000000*%
%ADD13R,1.700000X0.900000*%
%ADD14O,2.500000X0.900000*%
%ADD15O,0.900000X2.500000*%
%ADD16R,6.000000X6.000000*%
%ADD17R,0.350000X2.000000*%
%ADD18R,1.000000X2.750000*%
%ADD19R,2.750000X1.000000*%
G04 APERTURE END LIST*
D10*
D11*
X103835200Y-113480600D03*
X103835200Y-109480600D03*
X108407200Y-109480600D03*
X108407200Y-113480600D03*
D12*
X99263200Y-109480600D03*
X99263200Y-113480600D03*
D13*
X94691200Y-113180600D03*
X94691200Y-109780600D03*
X112979200Y-113180600D03*
X112979200Y-109780600D03*
D14*
X112835200Y-86418600D03*
X112835200Y-87688600D03*
X112835200Y-88958600D03*
X112835200Y-90228600D03*
X112835200Y-91498600D03*
X112835200Y-92768600D03*
X112835200Y-94038600D03*
X112835200Y-95308600D03*
X112835200Y-96578600D03*
X112835200Y-97848600D03*
X112835200Y-99118600D03*
X112835200Y-100388600D03*
X112835200Y-101658600D03*
X112835200Y-102928600D03*
D15*
X109550200Y-104418600D03*
X108280200Y-104418600D03*
X107010200Y-104418600D03*
X105740200Y-104418600D03*
X104470200Y-104418600D03*
X103200200Y-104418600D03*
X101930200Y-104418600D03*
X100660200Y-104418600D03*
X99390200Y-104418600D03*
X98120200Y-104418600D03*
D14*
X94835200Y-102928600D03*
X94835200Y-101658600D03*
X94835200Y-100388600D03*
X94835200Y-99118600D03*
X94835200Y-97848600D03*
X94835200Y-96578600D03*
X94835200Y-95308600D03*
X94835200Y-94038600D03*
X94835200Y-92768600D03*
X94835200Y-91498600D03*
X94835200Y-90228600D03*
X94835200Y-88958600D03*
X94835200Y-87688600D03*
X94835200Y-86418600D03*
D16*
X103535200Y-94118600D03*
D17*
X110124000Y-64770000D03*
X109424000Y-64770000D03*
X108724000Y-64770000D03*
X108024000Y-64770000D03*
X107324000Y-64770000D03*
X106624000Y-64770000D03*
X105924000Y-64770000D03*
X105224000Y-64770000D03*
X104524000Y-64770000D03*
X103824000Y-64770000D03*
X103124000Y-64770000D03*
X102424000Y-64770000D03*
D18*
X110395000Y-138725000D03*
X110395000Y-144485000D03*
X114395000Y-144485000D03*
X114395000Y-138725000D03*
X92615000Y-127295000D03*
X92615000Y-133055000D03*
X96615000Y-133055000D03*
X96615000Y-127295000D03*
D19*
X106385000Y-121825000D03*
X100625000Y-121825000D03*
X100625000Y-125825000D03*
X106385000Y-125825000D03*
D18*
X110395000Y-127295000D03*
X110395000Y-133055000D03*
X114395000Y-133055000D03*
X114395000Y-127295000D03*
X101505000Y-133645000D03*
X101505000Y-139405000D03*
X105505000Y-139405000D03*
X105505000Y-133645000D03*
M02*
