M48
;DRILL file {KiCad 4.0.4-stable} date 04/22/19 13:39:40
;FORMAT={3:3/ absolute / metric / suppress leading zeros}
FMAT,2
METRIC,TZ
T1C0.400
T2C1.000
%
G90
G05
M71
T1
X92710Y-130175
X92913Y-95402
X93980Y-143510
X95326Y-89002
X96672Y-99136
X96774Y-104648
X97028Y-110617
X97790Y-106426
X98120Y-91034
X98247Y-86970
X99136Y-109195
X99263Y-113481
X100838Y-116713
X102108Y-114300
X102870Y-119317
X103835Y-109449
X103886Y-58979
X104013Y-56566
X104013Y-116840
X104216Y-68732
X105029Y-107061
X105232Y-66929
X105410Y-136525
X105474Y-123889
X105918Y-116967
X107975Y-107785
X108204Y-56667
X108407Y-113481
X108788Y-86970
X109169Y-100051
X109220Y-102362
X109550Y-104419
X110109Y-121793
X110173Y-123253
X110490Y-130175
X110846Y-57455
X114300Y-141605
X115468Y-88392
X116180Y-87909
T2
X92989Y-105169
X92989Y-107709
X99009Y-118339
X101549Y-118339
X104089Y-118339
X106629Y-118339
X109169Y-118339
X111239Y-107213
X113779Y-107213
T0
M30
