G04 #@! TF.FileFunction,Legend,Bot*
%FSLAX46Y46*%
G04 Gerber Fmt 4.6, Leading zero omitted, Abs format (unit mm)*
G04 Created by KiCad (PCBNEW 4.0.4-stable) date 04/22/19 13:39:38*
%MOMM*%
%LPD*%
G01*
G04 APERTURE LIST*
%ADD10C,0.100000*%
%ADD11C,0.120000*%
%ADD12C,0.010000*%
%ADD13C,0.150000*%
G04 APERTURE END LIST*
D10*
X109723286Y-83537829D02*
X109473286Y-83537829D01*
X109366143Y-83930686D02*
X109723286Y-83930686D01*
X109723286Y-83180686D01*
X109366143Y-83180686D01*
X109080429Y-83894971D02*
X108973286Y-83930686D01*
X108794715Y-83930686D01*
X108723286Y-83894971D01*
X108687572Y-83859257D01*
X108651857Y-83787829D01*
X108651857Y-83716400D01*
X108687572Y-83644971D01*
X108723286Y-83609257D01*
X108794715Y-83573543D01*
X108937572Y-83537829D01*
X109009000Y-83502114D01*
X109044715Y-83466400D01*
X109080429Y-83394971D01*
X109080429Y-83323543D01*
X109044715Y-83252114D01*
X109009000Y-83216400D01*
X108937572Y-83180686D01*
X108759000Y-83180686D01*
X108651857Y-83216400D01*
X108330429Y-83930686D02*
X108330429Y-83180686D01*
X108044714Y-83180686D01*
X107973286Y-83216400D01*
X107937571Y-83252114D01*
X107901857Y-83323543D01*
X107901857Y-83430686D01*
X107937571Y-83502114D01*
X107973286Y-83537829D01*
X108044714Y-83573543D01*
X108330429Y-83573543D01*
X107651857Y-83180686D02*
X107187571Y-83180686D01*
X107437571Y-83466400D01*
X107330429Y-83466400D01*
X107259000Y-83502114D01*
X107223286Y-83537829D01*
X107187571Y-83609257D01*
X107187571Y-83787829D01*
X107223286Y-83859257D01*
X107259000Y-83894971D01*
X107330429Y-83930686D01*
X107544714Y-83930686D01*
X107616143Y-83894971D01*
X107651857Y-83859257D01*
X106901857Y-83252114D02*
X106866143Y-83216400D01*
X106794714Y-83180686D01*
X106616143Y-83180686D01*
X106544714Y-83216400D01*
X106509000Y-83252114D01*
X106473285Y-83323543D01*
X106473285Y-83394971D01*
X106509000Y-83502114D01*
X106937571Y-83930686D01*
X106473285Y-83930686D01*
X105580428Y-83930686D02*
X105580428Y-83180686D01*
X105330428Y-83716400D01*
X105080428Y-83180686D01*
X105080428Y-83930686D01*
X104723285Y-83930686D02*
X104723285Y-83430686D01*
X104723285Y-83180686D02*
X104758999Y-83216400D01*
X104723285Y-83252114D01*
X104687570Y-83216400D01*
X104723285Y-83180686D01*
X104723285Y-83252114D01*
X104366142Y-83430686D02*
X104366142Y-83930686D01*
X104366142Y-83502114D02*
X104330427Y-83466400D01*
X104258999Y-83430686D01*
X104151856Y-83430686D01*
X104080427Y-83466400D01*
X104044713Y-83537829D01*
X104044713Y-83930686D01*
X103687571Y-83930686D02*
X103687571Y-83430686D01*
X103687571Y-83180686D02*
X103723285Y-83216400D01*
X103687571Y-83252114D01*
X103651856Y-83216400D01*
X103687571Y-83180686D01*
X103687571Y-83252114D01*
X103330428Y-83930686D02*
X103330428Y-83430686D01*
X103330428Y-83502114D02*
X103294713Y-83466400D01*
X103223285Y-83430686D01*
X103116142Y-83430686D01*
X103044713Y-83466400D01*
X103008999Y-83537829D01*
X103008999Y-83930686D01*
X103008999Y-83537829D02*
X102973285Y-83466400D01*
X102901856Y-83430686D01*
X102794713Y-83430686D01*
X102723285Y-83466400D01*
X102687570Y-83537829D01*
X102687570Y-83930686D01*
X102008999Y-83930686D02*
X102008999Y-83537829D01*
X102044713Y-83466400D01*
X102116142Y-83430686D01*
X102258999Y-83430686D01*
X102330428Y-83466400D01*
X102008999Y-83894971D02*
X102080428Y-83930686D01*
X102258999Y-83930686D01*
X102330428Y-83894971D01*
X102366142Y-83823543D01*
X102366142Y-83752114D01*
X102330428Y-83680686D01*
X102258999Y-83644971D01*
X102080428Y-83644971D01*
X102008999Y-83609257D01*
X101544714Y-83930686D02*
X101616142Y-83894971D01*
X101651857Y-83823543D01*
X101651857Y-83180686D01*
X100437571Y-83537829D02*
X100330428Y-83573543D01*
X100294713Y-83609257D01*
X100258999Y-83680686D01*
X100258999Y-83787829D01*
X100294713Y-83859257D01*
X100330428Y-83894971D01*
X100401856Y-83930686D01*
X100687571Y-83930686D01*
X100687571Y-83180686D01*
X100437571Y-83180686D01*
X100366142Y-83216400D01*
X100330428Y-83252114D01*
X100294713Y-83323543D01*
X100294713Y-83394971D01*
X100330428Y-83466400D01*
X100366142Y-83502114D01*
X100437571Y-83537829D01*
X100687571Y-83537829D01*
X99830428Y-83930686D02*
X99901856Y-83894971D01*
X99937571Y-83859257D01*
X99973285Y-83787829D01*
X99973285Y-83573543D01*
X99937571Y-83502114D01*
X99901856Y-83466400D01*
X99830428Y-83430686D01*
X99723285Y-83430686D01*
X99651856Y-83466400D01*
X99616142Y-83502114D01*
X99580428Y-83573543D01*
X99580428Y-83787829D01*
X99616142Y-83859257D01*
X99651856Y-83894971D01*
X99723285Y-83930686D01*
X99830428Y-83930686D01*
X98937571Y-83930686D02*
X98937571Y-83537829D01*
X98973285Y-83466400D01*
X99044714Y-83430686D01*
X99187571Y-83430686D01*
X99259000Y-83466400D01*
X98937571Y-83894971D02*
X99009000Y-83930686D01*
X99187571Y-83930686D01*
X99259000Y-83894971D01*
X99294714Y-83823543D01*
X99294714Y-83752114D01*
X99259000Y-83680686D01*
X99187571Y-83644971D01*
X99009000Y-83644971D01*
X98937571Y-83609257D01*
X98580429Y-83930686D02*
X98580429Y-83430686D01*
X98580429Y-83573543D02*
X98544714Y-83502114D01*
X98509000Y-83466400D01*
X98437571Y-83430686D01*
X98366143Y-83430686D01*
X97794714Y-83930686D02*
X97794714Y-83180686D01*
X97794714Y-83894971D02*
X97866143Y-83930686D01*
X98009000Y-83930686D01*
X98080428Y-83894971D01*
X98116143Y-83859257D01*
X98151857Y-83787829D01*
X98151857Y-83573543D01*
X98116143Y-83502114D01*
X98080428Y-83466400D01*
X98009000Y-83430686D01*
X97866143Y-83430686D01*
X97794714Y-83466400D01*
X108423257Y-79622486D02*
X108423257Y-78872486D01*
X108244685Y-78872486D01*
X108137542Y-78908200D01*
X108066114Y-78979629D01*
X108030399Y-79051057D01*
X107994685Y-79193914D01*
X107994685Y-79301057D01*
X108030399Y-79443914D01*
X108066114Y-79515343D01*
X108137542Y-79586771D01*
X108244685Y-79622486D01*
X108423257Y-79622486D01*
X107673257Y-79622486D02*
X107673257Y-79122486D01*
X107673257Y-79265343D02*
X107637542Y-79193914D01*
X107601828Y-79158200D01*
X107530399Y-79122486D01*
X107458971Y-79122486D01*
X106208970Y-79551057D02*
X106244684Y-79586771D01*
X106351827Y-79622486D01*
X106423256Y-79622486D01*
X106530399Y-79586771D01*
X106601827Y-79515343D01*
X106637542Y-79443914D01*
X106673256Y-79301057D01*
X106673256Y-79193914D01*
X106637542Y-79051057D01*
X106601827Y-78979629D01*
X106530399Y-78908200D01*
X106423256Y-78872486D01*
X106351827Y-78872486D01*
X106244684Y-78908200D01*
X106208970Y-78943914D01*
X105923256Y-79408200D02*
X105566113Y-79408200D01*
X105994684Y-79622486D02*
X105744684Y-78872486D01*
X105494684Y-79622486D01*
X105244685Y-79622486D02*
X105244685Y-78872486D01*
X105066113Y-78872486D01*
X104958970Y-78908200D01*
X104887542Y-78979629D01*
X104851827Y-79051057D01*
X104816113Y-79193914D01*
X104816113Y-79301057D01*
X104851827Y-79443914D01*
X104887542Y-79515343D01*
X104958970Y-79586771D01*
X105066113Y-79622486D01*
X105244685Y-79622486D01*
X104494685Y-79622486D02*
X104494685Y-78872486D01*
X103708970Y-79551057D02*
X103744684Y-79586771D01*
X103851827Y-79622486D01*
X103923256Y-79622486D01*
X104030399Y-79586771D01*
X104101827Y-79515343D01*
X104137542Y-79443914D01*
X104173256Y-79301057D01*
X104173256Y-79193914D01*
X104137542Y-79051057D01*
X104101827Y-78979629D01*
X104030399Y-78908200D01*
X103923256Y-78872486D01*
X103851827Y-78872486D01*
X103744684Y-78908200D01*
X103708970Y-78943914D01*
X102816113Y-79622486D02*
X102816113Y-78872486D01*
X102530398Y-78872486D01*
X102458970Y-78908200D01*
X102423255Y-78943914D01*
X102387541Y-79015343D01*
X102387541Y-79122486D01*
X102423255Y-79193914D01*
X102458970Y-79229629D01*
X102530398Y-79265343D01*
X102816113Y-79265343D01*
X102066113Y-79622486D02*
X102066113Y-78872486D01*
X101744684Y-79622486D02*
X101744684Y-79229629D01*
X101780398Y-79158200D01*
X101851827Y-79122486D01*
X101958970Y-79122486D01*
X102030398Y-79158200D01*
X102066113Y-79193914D01*
X101387542Y-79622486D02*
X101387542Y-79122486D01*
X101387542Y-78872486D02*
X101423256Y-78908200D01*
X101387542Y-78943914D01*
X101351827Y-78908200D01*
X101387542Y-78872486D01*
X101387542Y-78943914D01*
X100923256Y-79622486D02*
X100994684Y-79586771D01*
X101030399Y-79515343D01*
X101030399Y-78872486D01*
X100637542Y-79622486D02*
X100637542Y-79122486D01*
X100637542Y-78872486D02*
X100673256Y-78908200D01*
X100637542Y-78943914D01*
X100601827Y-78908200D01*
X100637542Y-78872486D01*
X100637542Y-78943914D01*
X100280399Y-79122486D02*
X100280399Y-79872486D01*
X100280399Y-79158200D02*
X100208970Y-79122486D01*
X100066113Y-79122486D01*
X99994684Y-79158200D01*
X99958970Y-79193914D01*
X99923256Y-79265343D01*
X99923256Y-79479629D01*
X99958970Y-79551057D01*
X99994684Y-79586771D01*
X100066113Y-79622486D01*
X100208970Y-79622486D01*
X100280399Y-79586771D01*
X99601828Y-79122486D02*
X99601828Y-79872486D01*
X99601828Y-79158200D02*
X99530399Y-79122486D01*
X99387542Y-79122486D01*
X99316113Y-79158200D01*
X99280399Y-79193914D01*
X99244685Y-79265343D01*
X99244685Y-79479629D01*
X99280399Y-79551057D01*
X99316113Y-79586771D01*
X99387542Y-79622486D01*
X99530399Y-79622486D01*
X99601828Y-79586771D01*
X98637542Y-79586771D02*
X98708971Y-79622486D01*
X98851828Y-79622486D01*
X98923257Y-79586771D01*
X98958971Y-79515343D01*
X98958971Y-79229629D01*
X98923257Y-79158200D01*
X98851828Y-79122486D01*
X98708971Y-79122486D01*
X98637542Y-79158200D01*
X98601828Y-79229629D01*
X98601828Y-79301057D01*
X98958971Y-79372486D01*
X106191113Y-80490343D02*
X106226827Y-80454629D01*
X106298256Y-80418914D01*
X106369684Y-80418914D01*
X106441113Y-80454629D01*
X106476827Y-80490343D01*
X106512541Y-80561771D01*
X106512541Y-80633200D01*
X106476827Y-80704629D01*
X106441113Y-80740343D01*
X106369684Y-80776057D01*
X106298256Y-80776057D01*
X106226827Y-80740343D01*
X106191113Y-80704629D01*
X106191113Y-80418914D02*
X106191113Y-80704629D01*
X106155399Y-80740343D01*
X106119684Y-80740343D01*
X106048256Y-80704629D01*
X106012541Y-80633200D01*
X106012541Y-80454629D01*
X106083970Y-80347486D01*
X106191113Y-80276057D01*
X106333970Y-80240343D01*
X106476827Y-80276057D01*
X106583970Y-80347486D01*
X106655399Y-80454629D01*
X106691113Y-80597486D01*
X106655399Y-80740343D01*
X106583970Y-80847486D01*
X106476827Y-80918914D01*
X106333970Y-80954629D01*
X106191113Y-80918914D01*
X106083970Y-80847486D01*
X105691113Y-80347486D02*
X105691113Y-81097486D01*
X105691113Y-80383200D02*
X105619684Y-80347486D01*
X105476827Y-80347486D01*
X105405398Y-80383200D01*
X105369684Y-80418914D01*
X105333970Y-80490343D01*
X105333970Y-80704629D01*
X105369684Y-80776057D01*
X105405398Y-80811771D01*
X105476827Y-80847486D01*
X105619684Y-80847486D01*
X105691113Y-80811771D01*
X105083970Y-80347486D02*
X104941113Y-80847486D01*
X104798256Y-80490343D01*
X104655399Y-80847486D01*
X104512542Y-80347486D01*
X103905399Y-80847486D02*
X103905399Y-80454629D01*
X103941113Y-80383200D01*
X104012542Y-80347486D01*
X104155399Y-80347486D01*
X104226828Y-80383200D01*
X103905399Y-80811771D02*
X103976828Y-80847486D01*
X104155399Y-80847486D01*
X104226828Y-80811771D01*
X104262542Y-80740343D01*
X104262542Y-80668914D01*
X104226828Y-80597486D01*
X104155399Y-80561771D01*
X103976828Y-80561771D01*
X103905399Y-80526057D01*
X103619685Y-80347486D02*
X103441114Y-80847486D01*
X103262542Y-80347486D01*
X102976828Y-80847486D02*
X102976828Y-80347486D01*
X102976828Y-80490343D02*
X102941113Y-80418914D01*
X102905399Y-80383200D01*
X102833970Y-80347486D01*
X102762542Y-80347486D01*
X102405399Y-80847486D02*
X102476827Y-80811771D01*
X102512542Y-80776057D01*
X102548256Y-80704629D01*
X102548256Y-80490343D01*
X102512542Y-80418914D01*
X102476827Y-80383200D01*
X102405399Y-80347486D01*
X102298256Y-80347486D01*
X102226827Y-80383200D01*
X102191113Y-80418914D01*
X102155399Y-80490343D01*
X102155399Y-80704629D01*
X102191113Y-80776057D01*
X102226827Y-80811771D01*
X102298256Y-80847486D01*
X102405399Y-80847486D01*
X101833971Y-80847486D02*
X101833971Y-80097486D01*
X101833971Y-80383200D02*
X101762542Y-80347486D01*
X101619685Y-80347486D01*
X101548256Y-80383200D01*
X101512542Y-80418914D01*
X101476828Y-80490343D01*
X101476828Y-80704629D01*
X101512542Y-80776057D01*
X101548256Y-80811771D01*
X101619685Y-80847486D01*
X101762542Y-80847486D01*
X101833971Y-80811771D01*
X101048257Y-80847486D02*
X101119685Y-80811771D01*
X101155400Y-80776057D01*
X101191114Y-80704629D01*
X101191114Y-80490343D01*
X101155400Y-80418914D01*
X101119685Y-80383200D01*
X101048257Y-80347486D01*
X100941114Y-80347486D01*
X100869685Y-80383200D01*
X100833971Y-80418914D01*
X100798257Y-80490343D01*
X100798257Y-80704629D01*
X100833971Y-80776057D01*
X100869685Y-80811771D01*
X100941114Y-80847486D01*
X101048257Y-80847486D01*
X100583971Y-80347486D02*
X100298257Y-80347486D01*
X100476829Y-80097486D02*
X100476829Y-80740343D01*
X100441114Y-80811771D01*
X100369686Y-80847486D01*
X100298257Y-80847486D01*
D11*
X99267200Y-88128600D02*
X99267200Y-90128600D01*
X97227200Y-90128600D02*
X97227200Y-88128600D01*
X109935200Y-88128600D02*
X109935200Y-90128600D01*
X107895200Y-90128600D02*
X107895200Y-88128600D01*
X104035100Y-105121900D02*
X102035100Y-105121900D01*
X102035100Y-103081900D02*
X104035100Y-103081900D01*
X107895200Y-96986600D02*
X107895200Y-94986600D01*
X109935200Y-94986600D02*
X109935200Y-96986600D01*
X106185900Y-105933200D02*
X106185900Y-107833200D01*
X106185900Y-107833200D02*
X101485900Y-107833200D01*
X106185900Y-105933200D02*
X101485900Y-105933200D01*
X104098600Y-100542700D02*
X102098600Y-100542700D01*
X102098600Y-102682700D02*
X104098600Y-102682700D01*
X100056900Y-93340000D02*
X101316900Y-93340000D01*
X106876900Y-93340000D02*
X105616900Y-93340000D01*
X100056900Y-97100000D02*
X100056900Y-93340000D01*
X106876900Y-99350000D02*
X106876900Y-93340000D01*
X113395000Y-140535000D02*
X111395000Y-140535000D01*
X111395000Y-142675000D02*
X113395000Y-142675000D01*
X93615000Y-131245000D02*
X95615000Y-131245000D01*
X95615000Y-129105000D02*
X93615000Y-129105000D01*
X104505000Y-122755000D02*
X102505000Y-122755000D01*
X102505000Y-124895000D02*
X104505000Y-124895000D01*
X111395000Y-131245000D02*
X113395000Y-131245000D01*
X113395000Y-129105000D02*
X111395000Y-129105000D01*
X104505000Y-135455000D02*
X102505000Y-135455000D01*
X102505000Y-137595000D02*
X104505000Y-137595000D01*
D12*
G36*
X96847879Y-67643592D02*
X96829638Y-67652874D01*
X96692306Y-67805277D01*
X96688056Y-68001864D01*
X96795166Y-68156667D01*
X96889105Y-68314738D01*
X96922166Y-68505700D01*
X96910183Y-68655587D01*
X96843651Y-68726584D01*
X96676695Y-68748027D01*
X96541166Y-68749333D01*
X96160166Y-68749333D01*
X96160166Y-75522667D01*
X98876406Y-75522667D01*
X101020942Y-76454000D01*
X101670723Y-76735917D01*
X102181885Y-76956614D01*
X102571016Y-77122574D01*
X102854705Y-77240281D01*
X103049543Y-77316219D01*
X103172117Y-77356874D01*
X103239018Y-77368729D01*
X103266833Y-77358268D01*
X103272166Y-77333942D01*
X103226521Y-77248038D01*
X103169361Y-77158403D01*
X103018166Y-77158403D01*
X102944358Y-77136311D01*
X102736744Y-77053735D01*
X102416040Y-76919447D01*
X102002963Y-76742222D01*
X101518229Y-76530832D01*
X101092000Y-76342675D01*
X99165833Y-75488008D01*
X97726500Y-75441837D01*
X96287166Y-75395667D01*
X96264994Y-72157167D01*
X96242821Y-68918667D01*
X102825817Y-68918667D01*
X102879658Y-69311484D01*
X102892574Y-69489641D01*
X102904378Y-69813930D01*
X102914687Y-70261151D01*
X102923117Y-70808103D01*
X102929286Y-71431586D01*
X102932809Y-72108400D01*
X102933500Y-72571150D01*
X102933500Y-75438000D01*
X102481944Y-75438000D01*
X102218932Y-75447445D01*
X102030871Y-75471679D01*
X101976020Y-75492368D01*
X101999773Y-75578992D01*
X102105367Y-75773118D01*
X102275369Y-76045069D01*
X102469909Y-76333100D01*
X102688066Y-76649236D01*
X102865059Y-76911876D01*
X102981406Y-77091695D01*
X103018166Y-77158403D01*
X103169361Y-77158403D01*
X103102594Y-77053705D01*
X102919898Y-76780756D01*
X102721833Y-76493210D01*
X102503055Y-76175417D01*
X102325493Y-75909877D01*
X102208643Y-75726263D01*
X102171500Y-75655601D01*
X102247695Y-75628059D01*
X102442500Y-75610584D01*
X102594833Y-75607333D01*
X103018166Y-75607333D01*
X103018166Y-68749333D01*
X102679500Y-68749333D01*
X102462664Y-68740362D01*
X102366300Y-68684970D01*
X102341590Y-68540441D01*
X102340833Y-68453000D01*
X102359831Y-68257100D01*
X102406541Y-68159214D01*
X102416441Y-68156666D01*
X102512015Y-68085982D01*
X102560303Y-67927470D01*
X102557400Y-67902667D01*
X102425500Y-67902667D01*
X102382648Y-68041627D01*
X102277333Y-68055882D01*
X102151374Y-67972396D01*
X102129166Y-67902667D01*
X102199551Y-67783118D01*
X102277333Y-67749451D01*
X102397345Y-67778903D01*
X102425500Y-67902667D01*
X102557400Y-67902667D01*
X102543296Y-67782213D01*
X102414987Y-67634539D01*
X102220332Y-67625090D01*
X102040326Y-67721490D01*
X101839527Y-67879438D01*
X102033056Y-68061249D01*
X102178384Y-68269575D01*
X102189433Y-68496197D01*
X102152281Y-68749333D01*
X97006833Y-68749333D01*
X97006833Y-68521957D01*
X97064226Y-68298475D01*
X97197333Y-68091431D01*
X97345196Y-67933749D01*
X97152625Y-67933749D01*
X97135495Y-67984644D01*
X97011777Y-68055022D01*
X96858832Y-68022369D01*
X96773975Y-67923878D01*
X96803860Y-67814242D01*
X96926883Y-67754051D01*
X97068216Y-67771299D01*
X97106747Y-67799380D01*
X97152625Y-67933749D01*
X97345196Y-67933749D01*
X97387833Y-67888282D01*
X97189471Y-67727370D01*
X97007332Y-67621085D01*
X96847879Y-67643592D01*
X96847879Y-67643592D01*
G37*
X96847879Y-67643592D02*
X96829638Y-67652874D01*
X96692306Y-67805277D01*
X96688056Y-68001864D01*
X96795166Y-68156667D01*
X96889105Y-68314738D01*
X96922166Y-68505700D01*
X96910183Y-68655587D01*
X96843651Y-68726584D01*
X96676695Y-68748027D01*
X96541166Y-68749333D01*
X96160166Y-68749333D01*
X96160166Y-75522667D01*
X98876406Y-75522667D01*
X101020942Y-76454000D01*
X101670723Y-76735917D01*
X102181885Y-76956614D01*
X102571016Y-77122574D01*
X102854705Y-77240281D01*
X103049543Y-77316219D01*
X103172117Y-77356874D01*
X103239018Y-77368729D01*
X103266833Y-77358268D01*
X103272166Y-77333942D01*
X103226521Y-77248038D01*
X103169361Y-77158403D01*
X103018166Y-77158403D01*
X102944358Y-77136311D01*
X102736744Y-77053735D01*
X102416040Y-76919447D01*
X102002963Y-76742222D01*
X101518229Y-76530832D01*
X101092000Y-76342675D01*
X99165833Y-75488008D01*
X97726500Y-75441837D01*
X96287166Y-75395667D01*
X96264994Y-72157167D01*
X96242821Y-68918667D01*
X102825817Y-68918667D01*
X102879658Y-69311484D01*
X102892574Y-69489641D01*
X102904378Y-69813930D01*
X102914687Y-70261151D01*
X102923117Y-70808103D01*
X102929286Y-71431586D01*
X102932809Y-72108400D01*
X102933500Y-72571150D01*
X102933500Y-75438000D01*
X102481944Y-75438000D01*
X102218932Y-75447445D01*
X102030871Y-75471679D01*
X101976020Y-75492368D01*
X101999773Y-75578992D01*
X102105367Y-75773118D01*
X102275369Y-76045069D01*
X102469909Y-76333100D01*
X102688066Y-76649236D01*
X102865059Y-76911876D01*
X102981406Y-77091695D01*
X103018166Y-77158403D01*
X103169361Y-77158403D01*
X103102594Y-77053705D01*
X102919898Y-76780756D01*
X102721833Y-76493210D01*
X102503055Y-76175417D01*
X102325493Y-75909877D01*
X102208643Y-75726263D01*
X102171500Y-75655601D01*
X102247695Y-75628059D01*
X102442500Y-75610584D01*
X102594833Y-75607333D01*
X103018166Y-75607333D01*
X103018166Y-68749333D01*
X102679500Y-68749333D01*
X102462664Y-68740362D01*
X102366300Y-68684970D01*
X102341590Y-68540441D01*
X102340833Y-68453000D01*
X102359831Y-68257100D01*
X102406541Y-68159214D01*
X102416441Y-68156666D01*
X102512015Y-68085982D01*
X102560303Y-67927470D01*
X102557400Y-67902667D01*
X102425500Y-67902667D01*
X102382648Y-68041627D01*
X102277333Y-68055882D01*
X102151374Y-67972396D01*
X102129166Y-67902667D01*
X102199551Y-67783118D01*
X102277333Y-67749451D01*
X102397345Y-67778903D01*
X102425500Y-67902667D01*
X102557400Y-67902667D01*
X102543296Y-67782213D01*
X102414987Y-67634539D01*
X102220332Y-67625090D01*
X102040326Y-67721490D01*
X101839527Y-67879438D01*
X102033056Y-68061249D01*
X102178384Y-68269575D01*
X102189433Y-68496197D01*
X102152281Y-68749333D01*
X97006833Y-68749333D01*
X97006833Y-68521957D01*
X97064226Y-68298475D01*
X97197333Y-68091431D01*
X97345196Y-67933749D01*
X97152625Y-67933749D01*
X97135495Y-67984644D01*
X97011777Y-68055022D01*
X96858832Y-68022369D01*
X96773975Y-67923878D01*
X96803860Y-67814242D01*
X96926883Y-67754051D01*
X97068216Y-67771299D01*
X97106747Y-67799380D01*
X97152625Y-67933749D01*
X97345196Y-67933749D01*
X97387833Y-67888282D01*
X97189471Y-67727370D01*
X97007332Y-67621085D01*
X96847879Y-67643592D01*
G36*
X107858918Y-76183106D02*
X107844166Y-76242333D01*
X107911939Y-76354582D01*
X107971166Y-76369333D01*
X108083415Y-76301560D01*
X108098166Y-76242333D01*
X108030394Y-76130085D01*
X107971166Y-76115333D01*
X107858918Y-76183106D01*
X107858918Y-76183106D01*
G37*
X107858918Y-76183106D02*
X107844166Y-76242333D01*
X107911939Y-76354582D01*
X107971166Y-76369333D01*
X108083415Y-76301560D01*
X108098166Y-76242333D01*
X108030394Y-76130085D01*
X107971166Y-76115333D01*
X107858918Y-76183106D01*
G36*
X106611522Y-75593929D02*
X106495990Y-75699425D01*
X106489500Y-75735946D01*
X106535728Y-75847579D01*
X106574166Y-75861333D01*
X106656373Y-75796904D01*
X106658833Y-75776667D01*
X106733262Y-75720704D01*
X106916277Y-75692731D01*
X106955166Y-75692000D01*
X107154261Y-75706159D01*
X107235922Y-75777979D01*
X107251500Y-75946000D01*
X107234980Y-76116653D01*
X107151190Y-76186647D01*
X106955166Y-76200000D01*
X106759318Y-76177485D01*
X106661400Y-76122120D01*
X106658833Y-76110336D01*
X106606963Y-76059770D01*
X106574166Y-76073000D01*
X106496262Y-76195502D01*
X106489500Y-76247330D01*
X106536109Y-76321469D01*
X106695326Y-76359588D01*
X106959805Y-76369333D01*
X107430111Y-76369333D01*
X107404305Y-75967167D01*
X107379737Y-75722297D01*
X107327336Y-75598874D01*
X107217167Y-75549023D01*
X107135436Y-75537222D01*
X106838905Y-75535482D01*
X106611522Y-75593929D01*
X106611522Y-75593929D01*
G37*
X106611522Y-75593929D02*
X106495990Y-75699425D01*
X106489500Y-75735946D01*
X106535728Y-75847579D01*
X106574166Y-75861333D01*
X106656373Y-75796904D01*
X106658833Y-75776667D01*
X106733262Y-75720704D01*
X106916277Y-75692731D01*
X106955166Y-75692000D01*
X107154261Y-75706159D01*
X107235922Y-75777979D01*
X107251500Y-75946000D01*
X107234980Y-76116653D01*
X107151190Y-76186647D01*
X106955166Y-76200000D01*
X106759318Y-76177485D01*
X106661400Y-76122120D01*
X106658833Y-76110336D01*
X106606963Y-76059770D01*
X106574166Y-76073000D01*
X106496262Y-76195502D01*
X106489500Y-76247330D01*
X106536109Y-76321469D01*
X106695326Y-76359588D01*
X106959805Y-76369333D01*
X107430111Y-76369333D01*
X107404305Y-75967167D01*
X107379737Y-75722297D01*
X107327336Y-75598874D01*
X107217167Y-75549023D01*
X107135436Y-75537222D01*
X106838905Y-75535482D01*
X106611522Y-75593929D01*
G36*
X105151361Y-75967167D02*
X105125555Y-76369333D01*
X106160111Y-76369333D01*
X106134305Y-75967167D01*
X106132947Y-75946000D01*
X105981500Y-75946000D01*
X105968126Y-76108867D01*
X105895654Y-76181268D01*
X105715555Y-76199599D01*
X105642833Y-76200000D01*
X105425678Y-76189970D01*
X105329143Y-76135615D01*
X105304701Y-76000541D01*
X105304166Y-75946000D01*
X105317540Y-75783133D01*
X105390013Y-75710732D01*
X105570111Y-75692401D01*
X105642833Y-75692000D01*
X105859989Y-75702030D01*
X105956524Y-75756385D01*
X105980966Y-75891458D01*
X105981500Y-75946000D01*
X106132947Y-75946000D01*
X106108500Y-75565000D01*
X105177166Y-75565000D01*
X105151361Y-75967167D01*
X105151361Y-75967167D01*
G37*
X105151361Y-75967167D02*
X105125555Y-76369333D01*
X106160111Y-76369333D01*
X106134305Y-75967167D01*
X106132947Y-75946000D01*
X105981500Y-75946000D01*
X105968126Y-76108867D01*
X105895654Y-76181268D01*
X105715555Y-76199599D01*
X105642833Y-76200000D01*
X105425678Y-76189970D01*
X105329143Y-76135615D01*
X105304701Y-76000541D01*
X105304166Y-75946000D01*
X105317540Y-75783133D01*
X105390013Y-75710732D01*
X105570111Y-75692401D01*
X105642833Y-75692000D01*
X105859989Y-75702030D01*
X105956524Y-75756385D01*
X105980966Y-75891458D01*
X105981500Y-75946000D01*
X106132947Y-75946000D01*
X106108500Y-75565000D01*
X105177166Y-75565000D01*
X105151361Y-75967167D01*
G36*
X103697982Y-75924833D02*
X103711136Y-76173143D01*
X103747586Y-76334481D01*
X103780166Y-76369333D01*
X103838612Y-76295509D01*
X103864738Y-76116555D01*
X103864833Y-76103915D01*
X103864833Y-75838497D01*
X104049627Y-76073424D01*
X104234421Y-76308352D01*
X104430206Y-76063676D01*
X104625992Y-75819000D01*
X104626413Y-76094167D01*
X104649478Y-76281464D01*
X104705096Y-76368548D01*
X104711500Y-76369333D01*
X104762272Y-76293720D01*
X104792493Y-76102674D01*
X104796166Y-75993330D01*
X104775210Y-75707499D01*
X104708703Y-75583113D01*
X104591189Y-75617098D01*
X104431519Y-75787914D01*
X104222662Y-76054784D01*
X103961563Y-75767559D01*
X103700464Y-75480333D01*
X103697982Y-75924833D01*
X103697982Y-75924833D01*
G37*
X103697982Y-75924833D02*
X103711136Y-76173143D01*
X103747586Y-76334481D01*
X103780166Y-76369333D01*
X103838612Y-76295509D01*
X103864738Y-76116555D01*
X103864833Y-76103915D01*
X103864833Y-75838497D01*
X104049627Y-76073424D01*
X104234421Y-76308352D01*
X104430206Y-76063676D01*
X104625992Y-75819000D01*
X104626413Y-76094167D01*
X104649478Y-76281464D01*
X104705096Y-76368548D01*
X104711500Y-76369333D01*
X104762272Y-76293720D01*
X104792493Y-76102674D01*
X104796166Y-75993330D01*
X104775210Y-75707499D01*
X104708703Y-75583113D01*
X104591189Y-75617098D01*
X104431519Y-75787914D01*
X104222662Y-76054784D01*
X103961563Y-75767559D01*
X103700464Y-75480333D01*
X103697982Y-75924833D01*
G36*
X109819136Y-72493527D02*
X109615160Y-72541593D01*
X109554433Y-72576267D01*
X109506530Y-72705742D01*
X109474058Y-72986803D01*
X109456510Y-73425758D01*
X109452833Y-73843288D01*
X109454688Y-74311922D01*
X109462711Y-74639472D01*
X109480594Y-74854168D01*
X109512024Y-74984241D01*
X109560692Y-75057921D01*
X109616600Y-75096354D01*
X109868381Y-75165015D01*
X110189874Y-75169882D01*
X110493920Y-75110924D01*
X110532333Y-75096695D01*
X110608101Y-75059093D01*
X110660549Y-74999017D01*
X110693960Y-74888416D01*
X110712617Y-74699240D01*
X110720802Y-74403438D01*
X110721697Y-74210424D01*
X110204178Y-74210424D01*
X110190185Y-74526455D01*
X110153073Y-74698576D01*
X110090857Y-74738957D01*
X110039493Y-74703860D01*
X110003195Y-74582936D01*
X109980974Y-74329467D01*
X109975275Y-73979840D01*
X109978769Y-73800271D01*
X110002463Y-73365729D01*
X110038925Y-73090555D01*
X110082164Y-72976450D01*
X110126184Y-73025115D01*
X110164994Y-73238251D01*
X110192599Y-73617560D01*
X110197040Y-73738315D01*
X110204178Y-74210424D01*
X110721697Y-74210424D01*
X110722799Y-73972960D01*
X110722833Y-73848995D01*
X110715787Y-73291427D01*
X110694306Y-72896151D01*
X110657873Y-72656697D01*
X110621233Y-72576267D01*
X110482293Y-72517481D01*
X110241328Y-72480796D01*
X110087833Y-72474667D01*
X109819136Y-72493527D01*
X109819136Y-72493527D01*
G37*
X109819136Y-72493527D02*
X109615160Y-72541593D01*
X109554433Y-72576267D01*
X109506530Y-72705742D01*
X109474058Y-72986803D01*
X109456510Y-73425758D01*
X109452833Y-73843288D01*
X109454688Y-74311922D01*
X109462711Y-74639472D01*
X109480594Y-74854168D01*
X109512024Y-74984241D01*
X109560692Y-75057921D01*
X109616600Y-75096354D01*
X109868381Y-75165015D01*
X110189874Y-75169882D01*
X110493920Y-75110924D01*
X110532333Y-75096695D01*
X110608101Y-75059093D01*
X110660549Y-74999017D01*
X110693960Y-74888416D01*
X110712617Y-74699240D01*
X110720802Y-74403438D01*
X110721697Y-74210424D01*
X110204178Y-74210424D01*
X110190185Y-74526455D01*
X110153073Y-74698576D01*
X110090857Y-74738957D01*
X110039493Y-74703860D01*
X110003195Y-74582936D01*
X109980974Y-74329467D01*
X109975275Y-73979840D01*
X109978769Y-73800271D01*
X110002463Y-73365729D01*
X110038925Y-73090555D01*
X110082164Y-72976450D01*
X110126184Y-73025115D01*
X110164994Y-73238251D01*
X110192599Y-73617560D01*
X110197040Y-73738315D01*
X110204178Y-74210424D01*
X110721697Y-74210424D01*
X110722799Y-73972960D01*
X110722833Y-73848995D01*
X110715787Y-73291427D01*
X110694306Y-72896151D01*
X110657873Y-72656697D01*
X110621233Y-72576267D01*
X110482293Y-72517481D01*
X110241328Y-72480796D01*
X110087833Y-72474667D01*
X109819136Y-72493527D01*
G36*
X108724802Y-72486650D02*
X108637790Y-72549029D01*
X108576866Y-72701445D01*
X108518210Y-72961500D01*
X108446933Y-73300171D01*
X108401929Y-73476200D01*
X108376647Y-73493066D01*
X108364538Y-73354249D01*
X108359052Y-73063229D01*
X108358851Y-73046167D01*
X108352166Y-72474667D01*
X107844166Y-72474667D01*
X107844166Y-75184000D01*
X108089108Y-75184000D01*
X108245146Y-75168688D01*
X108345407Y-75099355D01*
X108411953Y-74940901D01*
X108466848Y-74658228D01*
X108482125Y-74558783D01*
X108541161Y-74266608D01*
X108599827Y-74140771D01*
X108649743Y-74178464D01*
X108682528Y-74376882D01*
X108690833Y-74628670D01*
X108694466Y-74926159D01*
X108715044Y-75092421D01*
X108767084Y-75165544D01*
X108865103Y-75183617D01*
X108902500Y-75184000D01*
X109114166Y-75184000D01*
X109114166Y-72474667D01*
X108866238Y-72474667D01*
X108724802Y-72486650D01*
X108724802Y-72486650D01*
G37*
X108724802Y-72486650D02*
X108637790Y-72549029D01*
X108576866Y-72701445D01*
X108518210Y-72961500D01*
X108446933Y-73300171D01*
X108401929Y-73476200D01*
X108376647Y-73493066D01*
X108364538Y-73354249D01*
X108359052Y-73063229D01*
X108358851Y-73046167D01*
X108352166Y-72474667D01*
X107844166Y-72474667D01*
X107844166Y-75184000D01*
X108089108Y-75184000D01*
X108245146Y-75168688D01*
X108345407Y-75099355D01*
X108411953Y-74940901D01*
X108466848Y-74658228D01*
X108482125Y-74558783D01*
X108541161Y-74266608D01*
X108599827Y-74140771D01*
X108649743Y-74178464D01*
X108682528Y-74376882D01*
X108690833Y-74628670D01*
X108694466Y-74926159D01*
X108715044Y-75092421D01*
X108767084Y-75165544D01*
X108865103Y-75183617D01*
X108902500Y-75184000D01*
X109114166Y-75184000D01*
X109114166Y-72474667D01*
X108866238Y-72474667D01*
X108724802Y-72486650D01*
G36*
X106593730Y-72498782D02*
X106490980Y-72570688D01*
X106489500Y-72584017D01*
X106478577Y-72721363D01*
X106449310Y-72985710D01*
X106406949Y-73336375D01*
X106356744Y-73732679D01*
X106303946Y-74133940D01*
X106253805Y-74499477D01*
X106211571Y-74788608D01*
X106183219Y-74957130D01*
X106163348Y-75117442D01*
X106223433Y-75175455D01*
X106406425Y-75169895D01*
X106417963Y-75168797D01*
X106615012Y-75129426D01*
X106700906Y-75025078D01*
X106728081Y-74861360D01*
X106779418Y-74664409D01*
X106859995Y-74619149D01*
X106938870Y-74718994D01*
X106981698Y-74915353D01*
X107020049Y-75101661D01*
X107122625Y-75173594D01*
X107282233Y-75184000D01*
X107556237Y-75184000D01*
X107390004Y-73829333D01*
X107382212Y-73765833D01*
X106906149Y-73765833D01*
X106897276Y-74000251D01*
X106867198Y-74145198D01*
X106845168Y-74168000D01*
X106809174Y-74093829D01*
X106804289Y-73909723D01*
X106808971Y-73850500D01*
X106842704Y-73573585D01*
X106871513Y-73459495D01*
X106893159Y-73510181D01*
X106905403Y-73727591D01*
X106906149Y-73765833D01*
X107382212Y-73765833D01*
X107223771Y-72474667D01*
X106856636Y-72474667D01*
X106593730Y-72498782D01*
X106593730Y-72498782D01*
G37*
X106593730Y-72498782D02*
X106490980Y-72570688D01*
X106489500Y-72584017D01*
X106478577Y-72721363D01*
X106449310Y-72985710D01*
X106406949Y-73336375D01*
X106356744Y-73732679D01*
X106303946Y-74133940D01*
X106253805Y-74499477D01*
X106211571Y-74788608D01*
X106183219Y-74957130D01*
X106163348Y-75117442D01*
X106223433Y-75175455D01*
X106406425Y-75169895D01*
X106417963Y-75168797D01*
X106615012Y-75129426D01*
X106700906Y-75025078D01*
X106728081Y-74861360D01*
X106779418Y-74664409D01*
X106859995Y-74619149D01*
X106938870Y-74718994D01*
X106981698Y-74915353D01*
X107020049Y-75101661D01*
X107122625Y-75173594D01*
X107282233Y-75184000D01*
X107556237Y-75184000D01*
X107390004Y-73829333D01*
X107382212Y-73765833D01*
X106906149Y-73765833D01*
X106897276Y-74000251D01*
X106867198Y-74145198D01*
X106845168Y-74168000D01*
X106809174Y-74093829D01*
X106804289Y-73909723D01*
X106808971Y-73850500D01*
X106842704Y-73573585D01*
X106871513Y-73459495D01*
X106893159Y-73510181D01*
X106905403Y-73727591D01*
X106906149Y-73765833D01*
X107382212Y-73765833D01*
X107223771Y-72474667D01*
X106856636Y-72474667D01*
X106593730Y-72498782D01*
G36*
X105304166Y-75184000D02*
X105896833Y-75184000D01*
X105896833Y-72474667D01*
X105304166Y-72474667D01*
X105304166Y-75184000D01*
X105304166Y-75184000D01*
G37*
X105304166Y-75184000D02*
X105896833Y-75184000D01*
X105896833Y-72474667D01*
X105304166Y-72474667D01*
X105304166Y-75184000D01*
G36*
X104145575Y-72489518D02*
X103901626Y-72529467D01*
X103797100Y-72576267D01*
X103735754Y-72724912D01*
X103703526Y-72976378D01*
X103700415Y-73266676D01*
X103726421Y-73531817D01*
X103781545Y-73707809D01*
X103797100Y-73727733D01*
X103855105Y-73842947D01*
X103797100Y-73930933D01*
X103741687Y-74070507D01*
X103705687Y-74332884D01*
X103695500Y-74608266D01*
X103695500Y-75184000D01*
X104288166Y-75184000D01*
X104288166Y-74633667D01*
X104300129Y-74346084D01*
X104331819Y-74149190D01*
X104372833Y-74083333D01*
X104417077Y-74161091D01*
X104447368Y-74367073D01*
X104457500Y-74633667D01*
X104460454Y-74929272D01*
X104480460Y-75093890D01*
X104534232Y-75165865D01*
X104638485Y-75183543D01*
X104697389Y-75184000D01*
X104891297Y-75165867D01*
X104993722Y-75127555D01*
X105013252Y-75027431D01*
X105029854Y-74788629D01*
X105042250Y-74441796D01*
X105049162Y-74017579D01*
X105050166Y-73772889D01*
X105050166Y-73355612D01*
X104455745Y-73355612D01*
X104433294Y-73533954D01*
X104401055Y-73603555D01*
X104335287Y-73650738D01*
X104301417Y-73602574D01*
X104289272Y-73429822D01*
X104288166Y-73279000D01*
X104304983Y-73051780D01*
X104347530Y-72915482D01*
X104372833Y-72898000D01*
X104422851Y-72971043D01*
X104451376Y-73145777D01*
X104455745Y-73355612D01*
X105050166Y-73355612D01*
X105050166Y-72474667D01*
X104474433Y-72474667D01*
X104145575Y-72489518D01*
X104145575Y-72489518D01*
G37*
X104145575Y-72489518D02*
X103901626Y-72529467D01*
X103797100Y-72576267D01*
X103735754Y-72724912D01*
X103703526Y-72976378D01*
X103700415Y-73266676D01*
X103726421Y-73531817D01*
X103781545Y-73707809D01*
X103797100Y-73727733D01*
X103855105Y-73842947D01*
X103797100Y-73930933D01*
X103741687Y-74070507D01*
X103705687Y-74332884D01*
X103695500Y-74608266D01*
X103695500Y-75184000D01*
X104288166Y-75184000D01*
X104288166Y-74633667D01*
X104300129Y-74346084D01*
X104331819Y-74149190D01*
X104372833Y-74083333D01*
X104417077Y-74161091D01*
X104447368Y-74367073D01*
X104457500Y-74633667D01*
X104460454Y-74929272D01*
X104480460Y-75093890D01*
X104534232Y-75165865D01*
X104638485Y-75183543D01*
X104697389Y-75184000D01*
X104891297Y-75165867D01*
X104993722Y-75127555D01*
X105013252Y-75027431D01*
X105029854Y-74788629D01*
X105042250Y-74441796D01*
X105049162Y-74017579D01*
X105050166Y-73772889D01*
X105050166Y-73355612D01*
X104455745Y-73355612D01*
X104433294Y-73533954D01*
X104401055Y-73603555D01*
X104335287Y-73650738D01*
X104301417Y-73602574D01*
X104289272Y-73429822D01*
X104288166Y-73279000D01*
X104304983Y-73051780D01*
X104347530Y-72915482D01*
X104372833Y-72898000D01*
X104422851Y-72971043D01*
X104451376Y-73145777D01*
X104455745Y-73355612D01*
X105050166Y-73355612D01*
X105050166Y-72474667D01*
X104474433Y-72474667D01*
X104145575Y-72489518D01*
G36*
X109579624Y-69073983D02*
X109353539Y-69175777D01*
X109235701Y-69376316D01*
X109199071Y-69700866D01*
X109198833Y-69739182D01*
X109198833Y-70104000D01*
X109537500Y-70104000D01*
X109754336Y-70095029D01*
X109850699Y-70039637D01*
X109875409Y-69895107D01*
X109876166Y-69807667D01*
X109897432Y-69611799D01*
X109949722Y-69513893D01*
X109960833Y-69511333D01*
X110016875Y-69585743D01*
X110044798Y-69768629D01*
X110045500Y-69806604D01*
X110022683Y-70008181D01*
X109927312Y-70154942D01*
X109719005Y-70307970D01*
X109710474Y-70313368D01*
X109443929Y-70509719D01*
X109287790Y-70716950D01*
X109215124Y-70988667D01*
X109198833Y-71331667D01*
X109212202Y-71705541D01*
X109271877Y-71941914D01*
X109407208Y-72071768D01*
X109647545Y-72126083D01*
X109960833Y-72136000D01*
X110283008Y-72128617D01*
X110477894Y-72099723D01*
X110587151Y-72039201D01*
X110635188Y-71972233D01*
X110684369Y-71797716D01*
X110716169Y-71526276D01*
X110722833Y-71332122D01*
X110722833Y-70855778D01*
X110405333Y-70882056D01*
X110205349Y-70909092D01*
X110109288Y-70979939D01*
X110071853Y-71145506D01*
X110061798Y-71268167D01*
X110021416Y-71524598D01*
X109963252Y-71618398D01*
X109908311Y-71551768D01*
X109877599Y-71326908D01*
X109876166Y-71248721D01*
X109888451Y-71006070D01*
X109953601Y-70862845D01*
X110114059Y-70749458D01*
X110212002Y-70698111D01*
X110477322Y-70532426D01*
X110633805Y-70338311D01*
X110707006Y-70067784D01*
X110722833Y-69738933D01*
X110699861Y-69410356D01*
X110611385Y-69203194D01*
X110428060Y-69091429D01*
X110120546Y-69049042D01*
X109940995Y-69045667D01*
X109579624Y-69073983D01*
X109579624Y-69073983D01*
G37*
X109579624Y-69073983D02*
X109353539Y-69175777D01*
X109235701Y-69376316D01*
X109199071Y-69700866D01*
X109198833Y-69739182D01*
X109198833Y-70104000D01*
X109537500Y-70104000D01*
X109754336Y-70095029D01*
X109850699Y-70039637D01*
X109875409Y-69895107D01*
X109876166Y-69807667D01*
X109897432Y-69611799D01*
X109949722Y-69513893D01*
X109960833Y-69511333D01*
X110016875Y-69585743D01*
X110044798Y-69768629D01*
X110045500Y-69806604D01*
X110022683Y-70008181D01*
X109927312Y-70154942D01*
X109719005Y-70307970D01*
X109710474Y-70313368D01*
X109443929Y-70509719D01*
X109287790Y-70716950D01*
X109215124Y-70988667D01*
X109198833Y-71331667D01*
X109212202Y-71705541D01*
X109271877Y-71941914D01*
X109407208Y-72071768D01*
X109647545Y-72126083D01*
X109960833Y-72136000D01*
X110283008Y-72128617D01*
X110477894Y-72099723D01*
X110587151Y-72039201D01*
X110635188Y-71972233D01*
X110684369Y-71797716D01*
X110716169Y-71526276D01*
X110722833Y-71332122D01*
X110722833Y-70855778D01*
X110405333Y-70882056D01*
X110205349Y-70909092D01*
X110109288Y-70979939D01*
X110071853Y-71145506D01*
X110061798Y-71268167D01*
X110021416Y-71524598D01*
X109963252Y-71618398D01*
X109908311Y-71551768D01*
X109877599Y-71326908D01*
X109876166Y-71248721D01*
X109888451Y-71006070D01*
X109953601Y-70862845D01*
X110114059Y-70749458D01*
X110212002Y-70698111D01*
X110477322Y-70532426D01*
X110633805Y-70338311D01*
X110707006Y-70067784D01*
X110722833Y-69738933D01*
X110699861Y-69410356D01*
X110611385Y-69203194D01*
X110428060Y-69091429D01*
X110120546Y-69049042D01*
X109940995Y-69045667D01*
X109579624Y-69073983D01*
G36*
X107653666Y-69019135D02*
X107378500Y-69045667D01*
X107355423Y-70590833D01*
X107332347Y-72136000D01*
X107990362Y-72136000D01*
X108098926Y-71606833D01*
X108185129Y-71224665D01*
X108252731Y-71010519D01*
X108302194Y-70964161D01*
X108333980Y-71085358D01*
X108348551Y-71373874D01*
X108349592Y-71479833D01*
X108352166Y-72136000D01*
X108860166Y-72136000D01*
X108860166Y-69003333D01*
X108569836Y-69003333D01*
X108406016Y-69011316D01*
X108309245Y-69061717D01*
X108247916Y-69194219D01*
X108190423Y-69448501D01*
X108182064Y-69490167D01*
X108093439Y-69917331D01*
X108029096Y-70181505D01*
X107985108Y-70286664D01*
X107957548Y-70236786D01*
X107942486Y-70035845D01*
X107936469Y-69738802D01*
X107928833Y-68992604D01*
X107653666Y-69019135D01*
X107653666Y-69019135D01*
G37*
X107653666Y-69019135D02*
X107378500Y-69045667D01*
X107355423Y-70590833D01*
X107332347Y-72136000D01*
X107990362Y-72136000D01*
X108098926Y-71606833D01*
X108185129Y-71224665D01*
X108252731Y-71010519D01*
X108302194Y-70964161D01*
X108333980Y-71085358D01*
X108348551Y-71373874D01*
X108349592Y-71479833D01*
X108352166Y-72136000D01*
X108860166Y-72136000D01*
X108860166Y-69003333D01*
X108569836Y-69003333D01*
X108406016Y-69011316D01*
X108309245Y-69061717D01*
X108247916Y-69194219D01*
X108190423Y-69448501D01*
X108182064Y-69490167D01*
X108093439Y-69917331D01*
X108029096Y-70181505D01*
X107985108Y-70286664D01*
X107957548Y-70236786D01*
X107942486Y-70035845D01*
X107936469Y-69738802D01*
X107928833Y-68992604D01*
X107653666Y-69019135D01*
G36*
X105835116Y-69015213D02*
X105812166Y-69023533D01*
X105801279Y-69120821D01*
X105771722Y-69351517D01*
X105728155Y-69681310D01*
X105675236Y-70075890D01*
X105617624Y-70500946D01*
X105559977Y-70922168D01*
X105506955Y-71305244D01*
X105463215Y-71615864D01*
X105433417Y-71819717D01*
X105426921Y-71860833D01*
X105406631Y-72036216D01*
X105452546Y-72114702D01*
X105606694Y-72135262D01*
X105723663Y-72136000D01*
X105942102Y-72127317D01*
X106039796Y-72073263D01*
X106065301Y-71931826D01*
X106066166Y-71839667D01*
X106097451Y-71613544D01*
X106184108Y-71543333D01*
X106316047Y-71619794D01*
X106392995Y-71823896D01*
X106404833Y-71973591D01*
X106440034Y-72085277D01*
X106574552Y-72130762D01*
X106707259Y-72136000D01*
X107009684Y-72136000D01*
X106949200Y-71649167D01*
X106913977Y-71368731D01*
X106863987Y-70974704D01*
X106858673Y-70933061D01*
X106307371Y-70933061D01*
X106264291Y-71022723D01*
X106214333Y-71035449D01*
X106153688Y-70980326D01*
X106133337Y-70799841D01*
X106144003Y-70548615D01*
X106179505Y-70061667D01*
X106244957Y-70400333D01*
X106300494Y-70734552D01*
X106307371Y-70933061D01*
X106858673Y-70933061D01*
X106806146Y-70521436D01*
X106752607Y-70104000D01*
X106616500Y-69045667D01*
X106214333Y-69019861D01*
X105980091Y-69010384D01*
X105835116Y-69015213D01*
X105835116Y-69015213D01*
G37*
X105835116Y-69015213D02*
X105812166Y-69023533D01*
X105801279Y-69120821D01*
X105771722Y-69351517D01*
X105728155Y-69681310D01*
X105675236Y-70075890D01*
X105617624Y-70500946D01*
X105559977Y-70922168D01*
X105506955Y-71305244D01*
X105463215Y-71615864D01*
X105433417Y-71819717D01*
X105426921Y-71860833D01*
X105406631Y-72036216D01*
X105452546Y-72114702D01*
X105606694Y-72135262D01*
X105723663Y-72136000D01*
X105942102Y-72127317D01*
X106039796Y-72073263D01*
X106065301Y-71931826D01*
X106066166Y-71839667D01*
X106097451Y-71613544D01*
X106184108Y-71543333D01*
X106316047Y-71619794D01*
X106392995Y-71823896D01*
X106404833Y-71973591D01*
X106440034Y-72085277D01*
X106574552Y-72130762D01*
X106707259Y-72136000D01*
X107009684Y-72136000D01*
X106949200Y-71649167D01*
X106913977Y-71368731D01*
X106863987Y-70974704D01*
X106858673Y-70933061D01*
X106307371Y-70933061D01*
X106264291Y-71022723D01*
X106214333Y-71035449D01*
X106153688Y-70980326D01*
X106133337Y-70799841D01*
X106144003Y-70548615D01*
X106179505Y-70061667D01*
X106244957Y-70400333D01*
X106300494Y-70734552D01*
X106307371Y-70933061D01*
X106858673Y-70933061D01*
X106806146Y-70521436D01*
X106752607Y-70104000D01*
X106616500Y-69045667D01*
X106214333Y-69019861D01*
X105980091Y-69010384D01*
X105835116Y-69015213D01*
G36*
X104502900Y-69021620D02*
X104177098Y-69055338D01*
X103907845Y-69106374D01*
X103748780Y-69164274D01*
X103740900Y-69170121D01*
X103673215Y-69272318D01*
X103632340Y-69462468D01*
X103613519Y-69771749D01*
X103610833Y-70022775D01*
X103616274Y-70374308D01*
X103630788Y-70669796D01*
X103651662Y-70861621D01*
X103660666Y-70897345D01*
X103774194Y-70993484D01*
X104002957Y-71068617D01*
X104083999Y-71083217D01*
X104457500Y-71139227D01*
X104457500Y-72136000D01*
X105134833Y-72136000D01*
X105134833Y-70061667D01*
X104457500Y-70061667D01*
X104445537Y-70349249D01*
X104413848Y-70546143D01*
X104372833Y-70612000D01*
X104328590Y-70534242D01*
X104298298Y-70328260D01*
X104288166Y-70061667D01*
X104300129Y-69774084D01*
X104331819Y-69577190D01*
X104372833Y-69511333D01*
X104417077Y-69589091D01*
X104447368Y-69795073D01*
X104457500Y-70061667D01*
X105134833Y-70061667D01*
X105134833Y-68981065D01*
X104502900Y-69021620D01*
X104502900Y-69021620D01*
G37*
X104502900Y-69021620D02*
X104177098Y-69055338D01*
X103907845Y-69106374D01*
X103748780Y-69164274D01*
X103740900Y-69170121D01*
X103673215Y-69272318D01*
X103632340Y-69462468D01*
X103613519Y-69771749D01*
X103610833Y-70022775D01*
X103616274Y-70374308D01*
X103630788Y-70669796D01*
X103651662Y-70861621D01*
X103660666Y-70897345D01*
X103774194Y-70993484D01*
X104002957Y-71068617D01*
X104083999Y-71083217D01*
X104457500Y-71139227D01*
X104457500Y-72136000D01*
X105134833Y-72136000D01*
X105134833Y-70061667D01*
X104457500Y-70061667D01*
X104445537Y-70349249D01*
X104413848Y-70546143D01*
X104372833Y-70612000D01*
X104328590Y-70534242D01*
X104298298Y-70328260D01*
X104288166Y-70061667D01*
X104300129Y-69774084D01*
X104331819Y-69577190D01*
X104372833Y-69511333D01*
X104417077Y-69589091D01*
X104447368Y-69795073D01*
X104457500Y-70061667D01*
X105134833Y-70061667D01*
X105134833Y-68981065D01*
X104502900Y-69021620D01*
G36*
X99758904Y-67304549D02*
X99729440Y-67520819D01*
X99716449Y-67842074D01*
X99716166Y-67902667D01*
X99726069Y-68238099D01*
X99753102Y-68473813D01*
X99793259Y-68577742D01*
X99800833Y-68580000D01*
X99842762Y-68500784D01*
X99872227Y-68284514D01*
X99885218Y-67963259D01*
X99885500Y-67902667D01*
X99875598Y-67567234D01*
X99848564Y-67331520D01*
X99808407Y-67227591D01*
X99800833Y-67225333D01*
X99758904Y-67304549D01*
X99758904Y-67304549D01*
G37*
X99758904Y-67304549D02*
X99729440Y-67520819D01*
X99716449Y-67842074D01*
X99716166Y-67902667D01*
X99726069Y-68238099D01*
X99753102Y-68473813D01*
X99793259Y-68577742D01*
X99800833Y-68580000D01*
X99842762Y-68500784D01*
X99872227Y-68284514D01*
X99885218Y-67963259D01*
X99885500Y-67902667D01*
X99875598Y-67567234D01*
X99848564Y-67331520D01*
X99808407Y-67227591D01*
X99800833Y-67225333D01*
X99758904Y-67304549D01*
G36*
X100091202Y-67555480D02*
X100060547Y-67750175D01*
X100054833Y-67902667D01*
X100070063Y-68144154D01*
X100109002Y-68297431D01*
X100139500Y-68326000D01*
X100187797Y-68249853D01*
X100218453Y-68055158D01*
X100224166Y-67902667D01*
X100208937Y-67661179D01*
X100169998Y-67507902D01*
X100139500Y-67479333D01*
X100091202Y-67555480D01*
X100091202Y-67555480D01*
G37*
X100091202Y-67555480D02*
X100060547Y-67750175D01*
X100054833Y-67902667D01*
X100070063Y-68144154D01*
X100109002Y-68297431D01*
X100139500Y-68326000D01*
X100187797Y-68249853D01*
X100218453Y-68055158D01*
X100224166Y-67902667D01*
X100208937Y-67661179D01*
X100169998Y-67507902D01*
X100139500Y-67479333D01*
X100091202Y-67555480D01*
G36*
X99339968Y-67524653D02*
X99300960Y-67681560D01*
X99292833Y-67902667D01*
X99306429Y-68168885D01*
X99353501Y-68298911D01*
X99419833Y-68326000D01*
X99499699Y-68280680D01*
X99538706Y-68123773D01*
X99546833Y-67902667D01*
X99533237Y-67636448D01*
X99486165Y-67506422D01*
X99419833Y-67479333D01*
X99339968Y-67524653D01*
X99339968Y-67524653D01*
G37*
X99339968Y-67524653D02*
X99300960Y-67681560D01*
X99292833Y-67902667D01*
X99306429Y-68168885D01*
X99353501Y-68298911D01*
X99419833Y-68326000D01*
X99499699Y-68280680D01*
X99538706Y-68123773D01*
X99546833Y-67902667D01*
X99533237Y-67636448D01*
X99486165Y-67506422D01*
X99419833Y-67479333D01*
X99339968Y-67524653D01*
G36*
X100888335Y-67582499D02*
X100816130Y-67676166D01*
X100784464Y-67848354D01*
X100794331Y-68027990D01*
X100846719Y-68144001D01*
X100880333Y-68156673D01*
X100956035Y-68079242D01*
X100986068Y-67868971D01*
X100986166Y-67853278D01*
X100962502Y-67644145D01*
X100895942Y-67580544D01*
X100888335Y-67582499D01*
X100888335Y-67582499D01*
G37*
X100888335Y-67582499D02*
X100816130Y-67676166D01*
X100784464Y-67848354D01*
X100794331Y-68027990D01*
X100846719Y-68144001D01*
X100880333Y-68156673D01*
X100956035Y-68079242D01*
X100986068Y-67868971D01*
X100986166Y-67853278D01*
X100962502Y-67644145D01*
X100895942Y-67580544D01*
X100888335Y-67582499D01*
G36*
X98980340Y-67724395D02*
X98954166Y-67902667D01*
X98992031Y-68104319D01*
X99081166Y-68156667D01*
X99181993Y-68080938D01*
X99208166Y-67902667D01*
X99170302Y-67701014D01*
X99081166Y-67648667D01*
X98980340Y-67724395D01*
X98980340Y-67724395D01*
G37*
X98980340Y-67724395D02*
X98954166Y-67902667D01*
X98992031Y-68104319D01*
X99081166Y-68156667D01*
X99181993Y-68080938D01*
X99208166Y-67902667D01*
X99170302Y-67701014D01*
X99081166Y-67648667D01*
X98980340Y-67724395D01*
G36*
X97919023Y-67771884D02*
X97895833Y-67902667D01*
X97935745Y-68070239D01*
X98001666Y-68135500D01*
X98081955Y-68091442D01*
X98107500Y-67902667D01*
X98079544Y-67708588D01*
X98001666Y-67669833D01*
X97919023Y-67771884D01*
X97919023Y-67771884D01*
G37*
X97919023Y-67771884D02*
X97895833Y-67902667D01*
X97935745Y-68070239D01*
X98001666Y-68135500D01*
X98081955Y-68091442D01*
X98107500Y-67902667D01*
X98079544Y-67708588D01*
X98001666Y-67669833D01*
X97919023Y-67771884D01*
G36*
X101171376Y-67804246D02*
X101155500Y-67902667D01*
X101190956Y-68040247D01*
X101240166Y-68072000D01*
X101308957Y-68001087D01*
X101324833Y-67902667D01*
X101289377Y-67765086D01*
X101240166Y-67733333D01*
X101171376Y-67804246D01*
X101171376Y-67804246D01*
G37*
X101171376Y-67804246D02*
X101155500Y-67902667D01*
X101190956Y-68040247D01*
X101240166Y-68072000D01*
X101308957Y-68001087D01*
X101324833Y-67902667D01*
X101289377Y-67765086D01*
X101240166Y-67733333D01*
X101171376Y-67804246D01*
G36*
X100417072Y-67803919D02*
X100393500Y-67902667D01*
X100446439Y-68040571D01*
X100520500Y-68072000D01*
X100623928Y-68001414D01*
X100647500Y-67902667D01*
X100594560Y-67764762D01*
X100520500Y-67733333D01*
X100417072Y-67803919D01*
X100417072Y-67803919D01*
G37*
X100417072Y-67803919D02*
X100393500Y-67902667D01*
X100446439Y-68040571D01*
X100520500Y-68072000D01*
X100623928Y-68001414D01*
X100647500Y-67902667D01*
X100594560Y-67764762D01*
X100520500Y-67733333D01*
X100417072Y-67803919D01*
G36*
X98631376Y-67804246D02*
X98615500Y-67902667D01*
X98650956Y-68040247D01*
X98700166Y-68072000D01*
X98768957Y-68001087D01*
X98784833Y-67902667D01*
X98749377Y-67765086D01*
X98700166Y-67733333D01*
X98631376Y-67804246D01*
X98631376Y-67804246D01*
G37*
X98631376Y-67804246D02*
X98615500Y-67902667D01*
X98650956Y-68040247D01*
X98700166Y-68072000D01*
X98768957Y-68001087D01*
X98784833Y-67902667D01*
X98749377Y-67765086D01*
X98700166Y-67733333D01*
X98631376Y-67804246D01*
G36*
X97529757Y-67804291D02*
X97514833Y-67902667D01*
X97559510Y-68046737D01*
X97658919Y-68058070D01*
X97726500Y-67987333D01*
X97736910Y-67847229D01*
X97644218Y-67743533D01*
X97594503Y-67733333D01*
X97529757Y-67804291D01*
X97529757Y-67804291D01*
G37*
X97529757Y-67804291D02*
X97514833Y-67902667D01*
X97559510Y-68046737D01*
X97658919Y-68058070D01*
X97726500Y-67987333D01*
X97736910Y-67847229D01*
X97644218Y-67743533D01*
X97594503Y-67733333D01*
X97529757Y-67804291D01*
G36*
X101508495Y-67863717D02*
X101494166Y-67902667D01*
X101562743Y-67977781D01*
X101621166Y-67987333D01*
X101733838Y-67941616D01*
X101748166Y-67902667D01*
X101679590Y-67827552D01*
X101621166Y-67818000D01*
X101508495Y-67863717D01*
X101508495Y-67863717D01*
G37*
X101508495Y-67863717D02*
X101494166Y-67902667D01*
X101562743Y-67977781D01*
X101621166Y-67987333D01*
X101733838Y-67941616D01*
X101748166Y-67902667D01*
X101679590Y-67827552D01*
X101621166Y-67818000D01*
X101508495Y-67863717D01*
G36*
X98279293Y-67882429D02*
X98276833Y-67902667D01*
X98341262Y-67984873D01*
X98361500Y-67987333D01*
X98443706Y-67922904D01*
X98446166Y-67902667D01*
X98381737Y-67820460D01*
X98361500Y-67818000D01*
X98279293Y-67882429D01*
X98279293Y-67882429D01*
G37*
X98279293Y-67882429D02*
X98276833Y-67902667D01*
X98341262Y-67984873D01*
X98361500Y-67987333D01*
X98443706Y-67922904D01*
X98446166Y-67902667D01*
X98381737Y-67820460D01*
X98361500Y-67818000D01*
X98279293Y-67882429D01*
G36*
X98615500Y-74193539D02*
X98934570Y-74322432D01*
X99262779Y-74372933D01*
X99504115Y-74340731D01*
X99563050Y-74298766D01*
X99477765Y-74262962D01*
X99250115Y-74229378D01*
X98954401Y-74189417D01*
X98696097Y-74144883D01*
X98615500Y-74127075D01*
X98403833Y-74073599D01*
X98615500Y-74193539D01*
X98615500Y-74193539D01*
G37*
X98615500Y-74193539D02*
X98934570Y-74322432D01*
X99262779Y-74372933D01*
X99504115Y-74340731D01*
X99563050Y-74298766D01*
X99477765Y-74262962D01*
X99250115Y-74229378D01*
X98954401Y-74189417D01*
X98696097Y-74144883D01*
X98615500Y-74127075D01*
X98403833Y-74073599D01*
X98615500Y-74193539D01*
G36*
X96894122Y-70237506D02*
X96802974Y-70382976D01*
X96742446Y-70632966D01*
X96724942Y-70953778D01*
X96808477Y-71658436D01*
X97016683Y-72314201D01*
X97335439Y-72886101D01*
X97653403Y-73253046D01*
X98104473Y-73573506D01*
X98658778Y-73807056D01*
X99269410Y-73945084D01*
X99889457Y-73978975D01*
X100472011Y-73900116D01*
X100729245Y-73817831D01*
X101205013Y-73551477D01*
X101657566Y-73157245D01*
X101939687Y-72814989D01*
X101748166Y-72814989D01*
X101684886Y-72916146D01*
X101523258Y-73075806D01*
X101305602Y-73258204D01*
X101074240Y-73427573D01*
X100893888Y-73536936D01*
X100366309Y-73721014D01*
X99760752Y-73780506D01*
X99114203Y-73715154D01*
X98538720Y-73553432D01*
X98269562Y-73424317D01*
X97992110Y-73243850D01*
X97736681Y-73039140D01*
X97533590Y-72837296D01*
X97413157Y-72665429D01*
X97405697Y-72550649D01*
X97410793Y-72544840D01*
X97563544Y-72477700D01*
X97834775Y-72431857D01*
X98174660Y-72409972D01*
X98533374Y-72414701D01*
X98861094Y-72448703D01*
X98938238Y-72463341D01*
X99266050Y-72511973D01*
X99567733Y-72495184D01*
X99861686Y-72431067D01*
X100206727Y-72365578D01*
X100523037Y-72346754D01*
X100645236Y-72357673D01*
X100891808Y-72418812D01*
X101171715Y-72513353D01*
X101438316Y-72621958D01*
X101644973Y-72725289D01*
X101745046Y-72804008D01*
X101748166Y-72814989D01*
X101939687Y-72814989D01*
X102054000Y-72676311D01*
X102361411Y-72149853D01*
X102546895Y-71619049D01*
X102559159Y-71554789D01*
X102335828Y-71554789D01*
X102283101Y-71809946D01*
X102239158Y-71939489D01*
X102166607Y-72098031D01*
X102066521Y-72187865D01*
X101903296Y-72216462D01*
X101641326Y-72191294D01*
X101315223Y-72133362D01*
X100990838Y-72074867D01*
X100681674Y-72024837D01*
X100560353Y-72007714D01*
X100299977Y-71967827D01*
X99971258Y-71909158D01*
X99798353Y-71875368D01*
X99474029Y-71814308D01*
X99165781Y-71763876D01*
X99038833Y-71746685D01*
X98767053Y-71705718D01*
X98530833Y-71656114D01*
X98354364Y-71616823D01*
X98271754Y-71608749D01*
X98171099Y-71599765D01*
X97948430Y-71568216D01*
X97648566Y-71520537D01*
X97594421Y-71511506D01*
X96964500Y-71405736D01*
X96938909Y-70966535D01*
X96913317Y-70527333D01*
X97199964Y-70527333D01*
X97410559Y-70542457D01*
X97537807Y-70579270D01*
X97542577Y-70583300D01*
X97661119Y-70630153D01*
X97831855Y-70655552D01*
X98034037Y-70678213D01*
X98335968Y-70721652D01*
X98657833Y-70774037D01*
X98993679Y-70831269D01*
X99294667Y-70881390D01*
X99487714Y-70912308D01*
X99700046Y-70946431D01*
X100003412Y-70997308D01*
X100249714Y-71039647D01*
X100585761Y-71096458D01*
X100902004Y-71147247D01*
X101070833Y-71172521D01*
X101309130Y-71214553D01*
X101486197Y-71260239D01*
X101494166Y-71263193D01*
X101590703Y-71294362D01*
X101719081Y-71317379D01*
X101930296Y-71339639D01*
X102150333Y-71358370D01*
X102292707Y-71411687D01*
X102335828Y-71554789D01*
X102559159Y-71554789D01*
X102565927Y-71519328D01*
X102585271Y-71432568D01*
X102601528Y-71362553D01*
X102599064Y-71304874D01*
X102562248Y-71255122D01*
X102475445Y-71208887D01*
X102323023Y-71161760D01*
X102089348Y-71109333D01*
X101758787Y-71047194D01*
X101315708Y-70970935D01*
X100744476Y-70876148D01*
X100029460Y-70758421D01*
X99639700Y-70693980D01*
X98999423Y-70586970D01*
X98413240Y-70487314D01*
X97901959Y-70398684D01*
X97486389Y-70324751D01*
X97187340Y-70269185D01*
X97025620Y-70235657D01*
X97003460Y-70228915D01*
X96894122Y-70237506D01*
X96894122Y-70237506D01*
G37*
X96894122Y-70237506D02*
X96802974Y-70382976D01*
X96742446Y-70632966D01*
X96724942Y-70953778D01*
X96808477Y-71658436D01*
X97016683Y-72314201D01*
X97335439Y-72886101D01*
X97653403Y-73253046D01*
X98104473Y-73573506D01*
X98658778Y-73807056D01*
X99269410Y-73945084D01*
X99889457Y-73978975D01*
X100472011Y-73900116D01*
X100729245Y-73817831D01*
X101205013Y-73551477D01*
X101657566Y-73157245D01*
X101939687Y-72814989D01*
X101748166Y-72814989D01*
X101684886Y-72916146D01*
X101523258Y-73075806D01*
X101305602Y-73258204D01*
X101074240Y-73427573D01*
X100893888Y-73536936D01*
X100366309Y-73721014D01*
X99760752Y-73780506D01*
X99114203Y-73715154D01*
X98538720Y-73553432D01*
X98269562Y-73424317D01*
X97992110Y-73243850D01*
X97736681Y-73039140D01*
X97533590Y-72837296D01*
X97413157Y-72665429D01*
X97405697Y-72550649D01*
X97410793Y-72544840D01*
X97563544Y-72477700D01*
X97834775Y-72431857D01*
X98174660Y-72409972D01*
X98533374Y-72414701D01*
X98861094Y-72448703D01*
X98938238Y-72463341D01*
X99266050Y-72511973D01*
X99567733Y-72495184D01*
X99861686Y-72431067D01*
X100206727Y-72365578D01*
X100523037Y-72346754D01*
X100645236Y-72357673D01*
X100891808Y-72418812D01*
X101171715Y-72513353D01*
X101438316Y-72621958D01*
X101644973Y-72725289D01*
X101745046Y-72804008D01*
X101748166Y-72814989D01*
X101939687Y-72814989D01*
X102054000Y-72676311D01*
X102361411Y-72149853D01*
X102546895Y-71619049D01*
X102559159Y-71554789D01*
X102335828Y-71554789D01*
X102283101Y-71809946D01*
X102239158Y-71939489D01*
X102166607Y-72098031D01*
X102066521Y-72187865D01*
X101903296Y-72216462D01*
X101641326Y-72191294D01*
X101315223Y-72133362D01*
X100990838Y-72074867D01*
X100681674Y-72024837D01*
X100560353Y-72007714D01*
X100299977Y-71967827D01*
X99971258Y-71909158D01*
X99798353Y-71875368D01*
X99474029Y-71814308D01*
X99165781Y-71763876D01*
X99038833Y-71746685D01*
X98767053Y-71705718D01*
X98530833Y-71656114D01*
X98354364Y-71616823D01*
X98271754Y-71608749D01*
X98171099Y-71599765D01*
X97948430Y-71568216D01*
X97648566Y-71520537D01*
X97594421Y-71511506D01*
X96964500Y-71405736D01*
X96938909Y-70966535D01*
X96913317Y-70527333D01*
X97199964Y-70527333D01*
X97410559Y-70542457D01*
X97537807Y-70579270D01*
X97542577Y-70583300D01*
X97661119Y-70630153D01*
X97831855Y-70655552D01*
X98034037Y-70678213D01*
X98335968Y-70721652D01*
X98657833Y-70774037D01*
X98993679Y-70831269D01*
X99294667Y-70881390D01*
X99487714Y-70912308D01*
X99700046Y-70946431D01*
X100003412Y-70997308D01*
X100249714Y-71039647D01*
X100585761Y-71096458D01*
X100902004Y-71147247D01*
X101070833Y-71172521D01*
X101309130Y-71214553D01*
X101486197Y-71260239D01*
X101494166Y-71263193D01*
X101590703Y-71294362D01*
X101719081Y-71317379D01*
X101930296Y-71339639D01*
X102150333Y-71358370D01*
X102292707Y-71411687D01*
X102335828Y-71554789D01*
X102559159Y-71554789D01*
X102565927Y-71519328D01*
X102585271Y-71432568D01*
X102601528Y-71362553D01*
X102599064Y-71304874D01*
X102562248Y-71255122D01*
X102475445Y-71208887D01*
X102323023Y-71161760D01*
X102089348Y-71109333D01*
X101758787Y-71047194D01*
X101315708Y-70970935D01*
X100744476Y-70876148D01*
X100029460Y-70758421D01*
X99639700Y-70693980D01*
X98999423Y-70586970D01*
X98413240Y-70487314D01*
X97901959Y-70398684D01*
X97486389Y-70324751D01*
X97187340Y-70269185D01*
X97025620Y-70235657D01*
X97003460Y-70228915D01*
X96894122Y-70237506D01*
G36*
X101755955Y-70702185D02*
X101748166Y-70715596D01*
X101820077Y-70767419D01*
X101938666Y-70782581D01*
X102259335Y-70855298D01*
X102533783Y-71041420D01*
X102655416Y-71206335D01*
X102731545Y-71346958D01*
X102758849Y-71341054D01*
X102762918Y-71229131D01*
X102686485Y-70995812D01*
X102478871Y-70807933D01*
X102177525Y-70695512D01*
X102079682Y-70681473D01*
X101870953Y-70676330D01*
X101755955Y-70702185D01*
X101755955Y-70702185D01*
G37*
X101755955Y-70702185D02*
X101748166Y-70715596D01*
X101820077Y-70767419D01*
X101938666Y-70782581D01*
X102259335Y-70855298D01*
X102533783Y-71041420D01*
X102655416Y-71206335D01*
X102731545Y-71346958D01*
X102758849Y-71341054D01*
X102762918Y-71229131D01*
X102686485Y-70995812D01*
X102478871Y-70807933D01*
X102177525Y-70695512D01*
X102079682Y-70681473D01*
X101870953Y-70676330D01*
X101755955Y-70702185D01*
G36*
X96698657Y-69932410D02*
X96470541Y-70123781D01*
X96350089Y-70312386D01*
X96343645Y-70384375D01*
X96437245Y-70334018D01*
X96598354Y-70176202D01*
X96746133Y-70031409D01*
X96886962Y-69964802D01*
X97086923Y-69956513D01*
X97275688Y-69972562D01*
X97520091Y-69995004D01*
X97609741Y-69994288D01*
X97558072Y-69966928D01*
X97442512Y-69929276D01*
X97030752Y-69860435D01*
X96698657Y-69932410D01*
X96698657Y-69932410D01*
G37*
X96698657Y-69932410D02*
X96470541Y-70123781D01*
X96350089Y-70312386D01*
X96343645Y-70384375D01*
X96437245Y-70334018D01*
X96598354Y-70176202D01*
X96746133Y-70031409D01*
X96886962Y-69964802D01*
X97086923Y-69956513D01*
X97275688Y-69972562D01*
X97520091Y-69995004D01*
X97609741Y-69994288D01*
X97558072Y-69966928D01*
X97442512Y-69929276D01*
X97030752Y-69860435D01*
X96698657Y-69932410D01*
D13*
X100354343Y-88961934D02*
X100401962Y-88914315D01*
X100449581Y-88771458D01*
X100449581Y-88676220D01*
X100401962Y-88533362D01*
X100306724Y-88438124D01*
X100211486Y-88390505D01*
X100021010Y-88342886D01*
X99878152Y-88342886D01*
X99687676Y-88390505D01*
X99592438Y-88438124D01*
X99497200Y-88533362D01*
X99449581Y-88676220D01*
X99449581Y-88771458D01*
X99497200Y-88914315D01*
X99544819Y-88961934D01*
X99544819Y-89342886D02*
X99497200Y-89390505D01*
X99449581Y-89485743D01*
X99449581Y-89723839D01*
X99497200Y-89819077D01*
X99544819Y-89866696D01*
X99640057Y-89914315D01*
X99735295Y-89914315D01*
X99878152Y-89866696D01*
X100449581Y-89295267D01*
X100449581Y-89914315D01*
X96699581Y-87580981D02*
X96699581Y-87009552D01*
X96699581Y-87295266D02*
X95699581Y-87295266D01*
X95842438Y-87200028D01*
X95937676Y-87104790D01*
X95985295Y-87009552D01*
X95699581Y-88200028D02*
X95699581Y-88295267D01*
X95747200Y-88390505D01*
X95794819Y-88438124D01*
X95890057Y-88485743D01*
X96080533Y-88533362D01*
X96318629Y-88533362D01*
X96509105Y-88485743D01*
X96604343Y-88438124D01*
X96651962Y-88390505D01*
X96699581Y-88295267D01*
X96699581Y-88200028D01*
X96651962Y-88104790D01*
X96604343Y-88057171D01*
X96509105Y-88009552D01*
X96318629Y-87961933D01*
X96080533Y-87961933D01*
X95890057Y-88009552D01*
X95794819Y-88057171D01*
X95747200Y-88104790D01*
X95699581Y-88200028D01*
X95699581Y-89152409D02*
X95699581Y-89247648D01*
X95747200Y-89342886D01*
X95794819Y-89390505D01*
X95890057Y-89438124D01*
X96080533Y-89485743D01*
X96318629Y-89485743D01*
X96509105Y-89438124D01*
X96604343Y-89390505D01*
X96651962Y-89342886D01*
X96699581Y-89247648D01*
X96699581Y-89152409D01*
X96651962Y-89057171D01*
X96604343Y-89009552D01*
X96509105Y-88961933D01*
X96318629Y-88914314D01*
X96080533Y-88914314D01*
X95890057Y-88961933D01*
X95794819Y-89009552D01*
X95747200Y-89057171D01*
X95699581Y-89152409D01*
X96032914Y-89914314D02*
X96699581Y-89914314D01*
X96128152Y-89914314D02*
X96080533Y-89961933D01*
X96032914Y-90057171D01*
X96032914Y-90200029D01*
X96080533Y-90295267D01*
X96175771Y-90342886D01*
X96699581Y-90342886D01*
X96175771Y-91152410D02*
X96175771Y-90819076D01*
X96699581Y-90819076D02*
X95699581Y-90819076D01*
X95699581Y-91295267D01*
X111022343Y-88961934D02*
X111069962Y-88914315D01*
X111117581Y-88771458D01*
X111117581Y-88676220D01*
X111069962Y-88533362D01*
X110974724Y-88438124D01*
X110879486Y-88390505D01*
X110689010Y-88342886D01*
X110546152Y-88342886D01*
X110355676Y-88390505D01*
X110260438Y-88438124D01*
X110165200Y-88533362D01*
X110117581Y-88676220D01*
X110117581Y-88771458D01*
X110165200Y-88914315D01*
X110212819Y-88961934D01*
X110117581Y-89295267D02*
X110117581Y-89914315D01*
X110498533Y-89580981D01*
X110498533Y-89723839D01*
X110546152Y-89819077D01*
X110593771Y-89866696D01*
X110689010Y-89914315D01*
X110927105Y-89914315D01*
X111022343Y-89866696D01*
X111069962Y-89819077D01*
X111117581Y-89723839D01*
X111117581Y-89438124D01*
X111069962Y-89342886D01*
X111022343Y-89295267D01*
X112517181Y-87707981D02*
X112517181Y-87136552D01*
X112517181Y-87422266D02*
X111517181Y-87422266D01*
X111660038Y-87327028D01*
X111755276Y-87231790D01*
X111802895Y-87136552D01*
X111517181Y-88327028D02*
X111517181Y-88422267D01*
X111564800Y-88517505D01*
X111612419Y-88565124D01*
X111707657Y-88612743D01*
X111898133Y-88660362D01*
X112136229Y-88660362D01*
X112326705Y-88612743D01*
X112421943Y-88565124D01*
X112469562Y-88517505D01*
X112517181Y-88422267D01*
X112517181Y-88327028D01*
X112469562Y-88231790D01*
X112421943Y-88184171D01*
X112326705Y-88136552D01*
X112136229Y-88088933D01*
X111898133Y-88088933D01*
X111707657Y-88136552D01*
X111612419Y-88184171D01*
X111564800Y-88231790D01*
X111517181Y-88327028D01*
X111517181Y-89279409D02*
X111517181Y-89374648D01*
X111564800Y-89469886D01*
X111612419Y-89517505D01*
X111707657Y-89565124D01*
X111898133Y-89612743D01*
X112136229Y-89612743D01*
X112326705Y-89565124D01*
X112421943Y-89517505D01*
X112469562Y-89469886D01*
X112517181Y-89374648D01*
X112517181Y-89279409D01*
X112469562Y-89184171D01*
X112421943Y-89136552D01*
X112326705Y-89088933D01*
X112136229Y-89041314D01*
X111898133Y-89041314D01*
X111707657Y-89088933D01*
X111612419Y-89136552D01*
X111564800Y-89184171D01*
X111517181Y-89279409D01*
X111850514Y-90041314D02*
X112517181Y-90041314D01*
X111945752Y-90041314D02*
X111898133Y-90088933D01*
X111850514Y-90184171D01*
X111850514Y-90327029D01*
X111898133Y-90422267D01*
X111993371Y-90469886D01*
X112517181Y-90469886D01*
X111993371Y-91279410D02*
X111993371Y-90946076D01*
X112517181Y-90946076D02*
X111517181Y-90946076D01*
X111517181Y-91422267D01*
X107570566Y-104624143D02*
X107618185Y-104671762D01*
X107761042Y-104719381D01*
X107856280Y-104719381D01*
X107999138Y-104671762D01*
X108094376Y-104576524D01*
X108141995Y-104481286D01*
X108189614Y-104290810D01*
X108189614Y-104147952D01*
X108141995Y-103957476D01*
X108094376Y-103862238D01*
X107999138Y-103767000D01*
X107856280Y-103719381D01*
X107761042Y-103719381D01*
X107618185Y-103767000D01*
X107570566Y-103814619D01*
X106665804Y-103719381D02*
X107141995Y-103719381D01*
X107189614Y-104195571D01*
X107141995Y-104147952D01*
X107046757Y-104100333D01*
X106808661Y-104100333D01*
X106713423Y-104147952D01*
X106665804Y-104195571D01*
X106618185Y-104290810D01*
X106618185Y-104528905D01*
X106665804Y-104624143D01*
X106713423Y-104671762D01*
X106808661Y-104719381D01*
X107046757Y-104719381D01*
X107141995Y-104671762D01*
X107189614Y-104624143D01*
X99013828Y-104744781D02*
X99585257Y-104744781D01*
X99299543Y-104744781D02*
X99299543Y-103744781D01*
X99394781Y-103887638D01*
X99490019Y-103982876D01*
X99585257Y-104030495D01*
X98394781Y-103744781D02*
X98299542Y-103744781D01*
X98204304Y-103792400D01*
X98156685Y-103840019D01*
X98109066Y-103935257D01*
X98061447Y-104125733D01*
X98061447Y-104363829D01*
X98109066Y-104554305D01*
X98156685Y-104649543D01*
X98204304Y-104697162D01*
X98299542Y-104744781D01*
X98394781Y-104744781D01*
X98490019Y-104697162D01*
X98537638Y-104649543D01*
X98585257Y-104554305D01*
X98632876Y-104363829D01*
X98632876Y-104125733D01*
X98585257Y-103935257D01*
X98537638Y-103840019D01*
X98490019Y-103792400D01*
X98394781Y-103744781D01*
X97204304Y-104078114D02*
X97204304Y-104744781D01*
X97632876Y-104078114D02*
X97632876Y-104601924D01*
X97585257Y-104697162D01*
X97490019Y-104744781D01*
X97347161Y-104744781D01*
X97251923Y-104697162D01*
X97204304Y-104649543D01*
X96394780Y-104220971D02*
X96728114Y-104220971D01*
X96728114Y-104744781D02*
X96728114Y-103744781D01*
X96251923Y-103744781D01*
X110059743Y-100036334D02*
X110107362Y-99988715D01*
X110154981Y-99845858D01*
X110154981Y-99750620D01*
X110107362Y-99607762D01*
X110012124Y-99512524D01*
X109916886Y-99464905D01*
X109726410Y-99417286D01*
X109583552Y-99417286D01*
X109393076Y-99464905D01*
X109297838Y-99512524D01*
X109202600Y-99607762D01*
X109154981Y-99750620D01*
X109154981Y-99845858D01*
X109202600Y-99988715D01*
X109250219Y-100036334D01*
X109154981Y-100893477D02*
X109154981Y-100703000D01*
X109202600Y-100607762D01*
X109250219Y-100560143D01*
X109393076Y-100464905D01*
X109583552Y-100417286D01*
X109964505Y-100417286D01*
X110059743Y-100464905D01*
X110107362Y-100512524D01*
X110154981Y-100607762D01*
X110154981Y-100798239D01*
X110107362Y-100893477D01*
X110059743Y-100941096D01*
X109964505Y-100988715D01*
X109726410Y-100988715D01*
X109631171Y-100941096D01*
X109583552Y-100893477D01*
X109535933Y-100798239D01*
X109535933Y-100607762D01*
X109583552Y-100512524D01*
X109631171Y-100464905D01*
X109726410Y-100417286D01*
X111367581Y-94915172D02*
X111367581Y-94343743D01*
X111367581Y-94629457D02*
X110367581Y-94629457D01*
X110510438Y-94534219D01*
X110605676Y-94438981D01*
X110653295Y-94343743D01*
X110367581Y-95534219D02*
X110367581Y-95629458D01*
X110415200Y-95724696D01*
X110462819Y-95772315D01*
X110558057Y-95819934D01*
X110748533Y-95867553D01*
X110986629Y-95867553D01*
X111177105Y-95819934D01*
X111272343Y-95772315D01*
X111319962Y-95724696D01*
X111367581Y-95629458D01*
X111367581Y-95534219D01*
X111319962Y-95438981D01*
X111272343Y-95391362D01*
X111177105Y-95343743D01*
X110986629Y-95296124D01*
X110748533Y-95296124D01*
X110558057Y-95343743D01*
X110462819Y-95391362D01*
X110415200Y-95438981D01*
X110367581Y-95534219D01*
X110700914Y-96724696D02*
X111367581Y-96724696D01*
X110700914Y-96296124D02*
X111224724Y-96296124D01*
X111319962Y-96343743D01*
X111367581Y-96438981D01*
X111367581Y-96581839D01*
X111319962Y-96677077D01*
X111272343Y-96724696D01*
X110843771Y-97534220D02*
X110843771Y-97200886D01*
X111367581Y-97200886D02*
X110367581Y-97200886D01*
X110367581Y-97677077D01*
X108129295Y-107360981D02*
X108129295Y-106360981D01*
X107891200Y-106360981D01*
X107748342Y-106408600D01*
X107653104Y-106503838D01*
X107605485Y-106599076D01*
X107557866Y-106789552D01*
X107557866Y-106932410D01*
X107605485Y-107122886D01*
X107653104Y-107218124D01*
X107748342Y-107313362D01*
X107891200Y-107360981D01*
X108129295Y-107360981D01*
X106605485Y-107360981D02*
X107176914Y-107360981D01*
X106891200Y-107360981D02*
X106891200Y-106360981D01*
X106986438Y-106503838D01*
X107081676Y-106599076D01*
X107176914Y-106646695D01*
X107380066Y-102090481D02*
X107713400Y-101614290D01*
X107951495Y-102090481D02*
X107951495Y-101090481D01*
X107570542Y-101090481D01*
X107475304Y-101138100D01*
X107427685Y-101185719D01*
X107380066Y-101280957D01*
X107380066Y-101423814D01*
X107427685Y-101519052D01*
X107475304Y-101566671D01*
X107570542Y-101614290D01*
X107951495Y-101614290D01*
X106999114Y-101185719D02*
X106951495Y-101138100D01*
X106856257Y-101090481D01*
X106618161Y-101090481D01*
X106522923Y-101138100D01*
X106475304Y-101185719D01*
X106427685Y-101280957D01*
X106427685Y-101376195D01*
X106475304Y-101519052D01*
X107046733Y-102090481D01*
X106427685Y-102090481D01*
X99007538Y-102014281D02*
X99578967Y-102014281D01*
X99293253Y-102014281D02*
X99293253Y-101014281D01*
X99388491Y-101157138D01*
X99483729Y-101252376D01*
X99578967Y-101299995D01*
X98388491Y-101014281D02*
X98293252Y-101014281D01*
X98198014Y-101061900D01*
X98150395Y-101109519D01*
X98102776Y-101204757D01*
X98055157Y-101395233D01*
X98055157Y-101633329D01*
X98102776Y-101823805D01*
X98150395Y-101919043D01*
X98198014Y-101966662D01*
X98293252Y-102014281D01*
X98388491Y-102014281D01*
X98483729Y-101966662D01*
X98531348Y-101919043D01*
X98578967Y-101823805D01*
X98626586Y-101633329D01*
X98626586Y-101395233D01*
X98578967Y-101204757D01*
X98531348Y-101109519D01*
X98483729Y-101061900D01*
X98388491Y-101014281D01*
X97626586Y-102014281D02*
X97626586Y-101014281D01*
X97531348Y-101633329D02*
X97245633Y-102014281D01*
X97245633Y-101347614D02*
X97626586Y-101728567D01*
X96797881Y-94881795D02*
X97607405Y-94881795D01*
X97702643Y-94929414D01*
X97750262Y-94977033D01*
X97797881Y-95072271D01*
X97797881Y-95262748D01*
X97750262Y-95357986D01*
X97702643Y-95405605D01*
X97607405Y-95453224D01*
X96797881Y-95453224D01*
X96893119Y-95881795D02*
X96845500Y-95929414D01*
X96797881Y-96024652D01*
X96797881Y-96262748D01*
X96845500Y-96357986D01*
X96893119Y-96405605D01*
X96988357Y-96453224D01*
X97083595Y-96453224D01*
X97226452Y-96405605D01*
X97797881Y-95834176D01*
X97797881Y-96453224D01*
X99290167Y-92924762D02*
X99290167Y-93400953D01*
X99575881Y-92829524D02*
X98575881Y-93162857D01*
X99575881Y-93496191D01*
X99575881Y-93829524D02*
X98575881Y-93829524D01*
X98575881Y-94210477D01*
X98623500Y-94305715D01*
X98671119Y-94353334D01*
X98766357Y-94400953D01*
X98909214Y-94400953D01*
X99004452Y-94353334D01*
X99052071Y-94305715D01*
X99099690Y-94210477D01*
X99099690Y-93829524D01*
X99575881Y-95353334D02*
X99575881Y-94781905D01*
X99575881Y-95067619D02*
X98575881Y-95067619D01*
X98718738Y-94972381D01*
X98813976Y-94877143D01*
X98861595Y-94781905D01*
X99575881Y-96305715D02*
X99575881Y-95734286D01*
X99575881Y-96020000D02*
X98575881Y-96020000D01*
X98718738Y-95924762D01*
X98813976Y-95829524D01*
X98861595Y-95734286D01*
X99575881Y-97258096D02*
X99575881Y-96686667D01*
X99575881Y-96972381D02*
X98575881Y-96972381D01*
X98718738Y-96877143D01*
X98813976Y-96781905D01*
X98861595Y-96686667D01*
X98575881Y-97591429D02*
X98575881Y-98258096D01*
X99575881Y-97829524D01*
X98575881Y-98543810D02*
X98575881Y-99162858D01*
X98956833Y-98829524D01*
X98956833Y-98972382D01*
X99004452Y-99067620D01*
X99052071Y-99115239D01*
X99147310Y-99162858D01*
X99385405Y-99162858D01*
X99480643Y-99115239D01*
X99528262Y-99067620D01*
X99575881Y-98972382D01*
X99575881Y-98686667D01*
X99528262Y-98591429D01*
X99480643Y-98543810D01*
X98575881Y-99496191D02*
X98575881Y-100115239D01*
X98956833Y-99781905D01*
X98956833Y-99924763D01*
X99004452Y-100020001D01*
X99052071Y-100067620D01*
X99147310Y-100115239D01*
X99385405Y-100115239D01*
X99480643Y-100067620D01*
X99528262Y-100020001D01*
X99575881Y-99924763D01*
X99575881Y-99639048D01*
X99528262Y-99543810D01*
X99480643Y-99496191D01*
X112561666Y-143907381D02*
X112895000Y-143431190D01*
X113133095Y-143907381D02*
X113133095Y-142907381D01*
X112752142Y-142907381D01*
X112656904Y-142955000D01*
X112609285Y-143002619D01*
X112561666Y-143097857D01*
X112561666Y-143240714D01*
X112609285Y-143335952D01*
X112656904Y-143383571D01*
X112752142Y-143431190D01*
X113133095Y-143431190D01*
X112228333Y-142907381D02*
X111609285Y-142907381D01*
X111942619Y-143288333D01*
X111799761Y-143288333D01*
X111704523Y-143335952D01*
X111656904Y-143383571D01*
X111609285Y-143478810D01*
X111609285Y-143716905D01*
X111656904Y-143812143D01*
X111704523Y-143859762D01*
X111799761Y-143907381D01*
X112085476Y-143907381D01*
X112180714Y-143859762D01*
X112228333Y-143812143D01*
X112990238Y-140157381D02*
X113561667Y-140157381D01*
X113275953Y-140157381D02*
X113275953Y-139157381D01*
X113371191Y-139300238D01*
X113466429Y-139395476D01*
X113561667Y-139443095D01*
X112371191Y-139157381D02*
X112275952Y-139157381D01*
X112180714Y-139205000D01*
X112133095Y-139252619D01*
X112085476Y-139347857D01*
X112037857Y-139538333D01*
X112037857Y-139776429D01*
X112085476Y-139966905D01*
X112133095Y-140062143D01*
X112180714Y-140109762D01*
X112275952Y-140157381D01*
X112371191Y-140157381D01*
X112466429Y-140109762D01*
X112514048Y-140062143D01*
X112561667Y-139966905D01*
X112609286Y-139776429D01*
X112609286Y-139538333D01*
X112561667Y-139347857D01*
X112514048Y-139252619D01*
X112466429Y-139205000D01*
X112371191Y-139157381D01*
X111609286Y-140157381D02*
X111609286Y-139157381D01*
X111514048Y-139776429D02*
X111228333Y-140157381D01*
X111228333Y-139490714D02*
X111609286Y-139871667D01*
X94781666Y-128777381D02*
X95115000Y-128301190D01*
X95353095Y-128777381D02*
X95353095Y-127777381D01*
X94972142Y-127777381D01*
X94876904Y-127825000D01*
X94829285Y-127872619D01*
X94781666Y-127967857D01*
X94781666Y-128110714D01*
X94829285Y-128205952D01*
X94876904Y-128253571D01*
X94972142Y-128301190D01*
X95353095Y-128301190D01*
X93924523Y-128110714D02*
X93924523Y-128777381D01*
X94162619Y-127729762D02*
X94400714Y-128444048D01*
X93781666Y-128444048D01*
X95210238Y-132527381D02*
X95781667Y-132527381D01*
X95495953Y-132527381D02*
X95495953Y-131527381D01*
X95591191Y-131670238D01*
X95686429Y-131765476D01*
X95781667Y-131813095D01*
X94591191Y-131527381D02*
X94495952Y-131527381D01*
X94400714Y-131575000D01*
X94353095Y-131622619D01*
X94305476Y-131717857D01*
X94257857Y-131908333D01*
X94257857Y-132146429D01*
X94305476Y-132336905D01*
X94353095Y-132432143D01*
X94400714Y-132479762D01*
X94495952Y-132527381D01*
X94591191Y-132527381D01*
X94686429Y-132479762D01*
X94734048Y-132432143D01*
X94781667Y-132336905D01*
X94829286Y-132146429D01*
X94829286Y-131908333D01*
X94781667Y-131717857D01*
X94734048Y-131622619D01*
X94686429Y-131575000D01*
X94591191Y-131527381D01*
X93829286Y-132527381D02*
X93829286Y-131527381D01*
X93734048Y-132146429D02*
X93448333Y-132527381D01*
X93448333Y-131860714D02*
X93829286Y-132241667D01*
X103671666Y-126127381D02*
X104005000Y-125651190D01*
X104243095Y-126127381D02*
X104243095Y-125127381D01*
X103862142Y-125127381D01*
X103766904Y-125175000D01*
X103719285Y-125222619D01*
X103671666Y-125317857D01*
X103671666Y-125460714D01*
X103719285Y-125555952D01*
X103766904Y-125603571D01*
X103862142Y-125651190D01*
X104243095Y-125651190D01*
X102766904Y-125127381D02*
X103243095Y-125127381D01*
X103290714Y-125603571D01*
X103243095Y-125555952D01*
X103147857Y-125508333D01*
X102909761Y-125508333D01*
X102814523Y-125555952D01*
X102766904Y-125603571D01*
X102719285Y-125698810D01*
X102719285Y-125936905D01*
X102766904Y-126032143D01*
X102814523Y-126079762D01*
X102909761Y-126127381D01*
X103147857Y-126127381D01*
X103243095Y-126079762D01*
X103290714Y-126032143D01*
X104100238Y-122377381D02*
X104671667Y-122377381D01*
X104385953Y-122377381D02*
X104385953Y-121377381D01*
X104481191Y-121520238D01*
X104576429Y-121615476D01*
X104671667Y-121663095D01*
X103481191Y-121377381D02*
X103385952Y-121377381D01*
X103290714Y-121425000D01*
X103243095Y-121472619D01*
X103195476Y-121567857D01*
X103147857Y-121758333D01*
X103147857Y-121996429D01*
X103195476Y-122186905D01*
X103243095Y-122282143D01*
X103290714Y-122329762D01*
X103385952Y-122377381D01*
X103481191Y-122377381D01*
X103576429Y-122329762D01*
X103624048Y-122282143D01*
X103671667Y-122186905D01*
X103719286Y-121996429D01*
X103719286Y-121758333D01*
X103671667Y-121567857D01*
X103624048Y-121472619D01*
X103576429Y-121425000D01*
X103481191Y-121377381D01*
X102719286Y-122377381D02*
X102719286Y-121377381D01*
X102624048Y-121996429D02*
X102338333Y-122377381D01*
X102338333Y-121710714D02*
X102719286Y-122091667D01*
X112561666Y-128777381D02*
X112895000Y-128301190D01*
X113133095Y-128777381D02*
X113133095Y-127777381D01*
X112752142Y-127777381D01*
X112656904Y-127825000D01*
X112609285Y-127872619D01*
X112561666Y-127967857D01*
X112561666Y-128110714D01*
X112609285Y-128205952D01*
X112656904Y-128253571D01*
X112752142Y-128301190D01*
X113133095Y-128301190D01*
X111704523Y-127777381D02*
X111895000Y-127777381D01*
X111990238Y-127825000D01*
X112037857Y-127872619D01*
X112133095Y-128015476D01*
X112180714Y-128205952D01*
X112180714Y-128586905D01*
X112133095Y-128682143D01*
X112085476Y-128729762D01*
X111990238Y-128777381D01*
X111799761Y-128777381D01*
X111704523Y-128729762D01*
X111656904Y-128682143D01*
X111609285Y-128586905D01*
X111609285Y-128348810D01*
X111656904Y-128253571D01*
X111704523Y-128205952D01*
X111799761Y-128158333D01*
X111990238Y-128158333D01*
X112085476Y-128205952D01*
X112133095Y-128253571D01*
X112180714Y-128348810D01*
X112990238Y-132527381D02*
X113561667Y-132527381D01*
X113275953Y-132527381D02*
X113275953Y-131527381D01*
X113371191Y-131670238D01*
X113466429Y-131765476D01*
X113561667Y-131813095D01*
X112371191Y-131527381D02*
X112275952Y-131527381D01*
X112180714Y-131575000D01*
X112133095Y-131622619D01*
X112085476Y-131717857D01*
X112037857Y-131908333D01*
X112037857Y-132146429D01*
X112085476Y-132336905D01*
X112133095Y-132432143D01*
X112180714Y-132479762D01*
X112275952Y-132527381D01*
X112371191Y-132527381D01*
X112466429Y-132479762D01*
X112514048Y-132432143D01*
X112561667Y-132336905D01*
X112609286Y-132146429D01*
X112609286Y-131908333D01*
X112561667Y-131717857D01*
X112514048Y-131622619D01*
X112466429Y-131575000D01*
X112371191Y-131527381D01*
X111609286Y-132527381D02*
X111609286Y-131527381D01*
X111514048Y-132146429D02*
X111228333Y-132527381D01*
X111228333Y-131860714D02*
X111609286Y-132241667D01*
X103671666Y-138827381D02*
X104005000Y-138351190D01*
X104243095Y-138827381D02*
X104243095Y-137827381D01*
X103862142Y-137827381D01*
X103766904Y-137875000D01*
X103719285Y-137922619D01*
X103671666Y-138017857D01*
X103671666Y-138160714D01*
X103719285Y-138255952D01*
X103766904Y-138303571D01*
X103862142Y-138351190D01*
X104243095Y-138351190D01*
X103338333Y-137827381D02*
X102671666Y-137827381D01*
X103100238Y-138827381D01*
X104100238Y-135077381D02*
X104671667Y-135077381D01*
X104385953Y-135077381D02*
X104385953Y-134077381D01*
X104481191Y-134220238D01*
X104576429Y-134315476D01*
X104671667Y-134363095D01*
X103481191Y-134077381D02*
X103385952Y-134077381D01*
X103290714Y-134125000D01*
X103243095Y-134172619D01*
X103195476Y-134267857D01*
X103147857Y-134458333D01*
X103147857Y-134696429D01*
X103195476Y-134886905D01*
X103243095Y-134982143D01*
X103290714Y-135029762D01*
X103385952Y-135077381D01*
X103481191Y-135077381D01*
X103576429Y-135029762D01*
X103624048Y-134982143D01*
X103671667Y-134886905D01*
X103719286Y-134696429D01*
X103719286Y-134458333D01*
X103671667Y-134267857D01*
X103624048Y-134172619D01*
X103576429Y-134125000D01*
X103481191Y-134077381D01*
X102719286Y-135077381D02*
X102719286Y-134077381D01*
X102624048Y-134696429D02*
X102338333Y-135077381D01*
X102338333Y-134410714D02*
X102719286Y-134791667D01*
M02*
