G04 #@! TF.FileFunction,Soldermask,Top*
%FSLAX46Y46*%
G04 Gerber Fmt 4.6, Leading zero omitted, Abs format (unit mm)*
G04 Created by KiCad (PCBNEW 4.0.4-stable) date 04/22/19 13:39:38*
%MOMM*%
%LPD*%
G01*
G04 APERTURE LIST*
%ADD10C,0.100000*%
%ADD11R,2.000000X2.400000*%
%ADD12R,2.100000X2.100000*%
%ADD13O,2.100000X2.100000*%
%ADD14R,2.100000X2.400000*%
%ADD15R,2.100000X1.300000*%
%ADD16O,2.900000X1.300000*%
%ADD17O,1.300000X2.900000*%
%ADD18R,6.400000X6.400000*%
%ADD19R,0.750000X2.400000*%
%ADD20R,1.400000X3.150000*%
%ADD21R,3.150000X1.400000*%
%ADD22C,2.600000*%
G04 APERTURE END LIST*
D10*
D11*
X103835200Y-113480600D03*
X103835200Y-109480600D03*
X108407200Y-109480600D03*
X108407200Y-113480600D03*
D12*
X99009200Y-118338600D03*
D13*
X101549200Y-118338600D03*
X104089200Y-118338600D03*
X106629200Y-118338600D03*
X109169200Y-118338600D03*
D14*
X99263200Y-109480600D03*
X99263200Y-113480600D03*
D15*
X94691200Y-113180600D03*
X94691200Y-109780600D03*
X112979200Y-113180600D03*
X112979200Y-109780600D03*
D16*
X112835200Y-86418600D03*
X112835200Y-87688600D03*
X112835200Y-88958600D03*
X112835200Y-90228600D03*
X112835200Y-91498600D03*
X112835200Y-92768600D03*
X112835200Y-94038600D03*
X112835200Y-95308600D03*
X112835200Y-96578600D03*
X112835200Y-97848600D03*
X112835200Y-99118600D03*
X112835200Y-100388600D03*
X112835200Y-101658600D03*
X112835200Y-102928600D03*
D17*
X109550200Y-104418600D03*
X108280200Y-104418600D03*
X107010200Y-104418600D03*
X105740200Y-104418600D03*
X104470200Y-104418600D03*
X103200200Y-104418600D03*
X101930200Y-104418600D03*
X100660200Y-104418600D03*
X99390200Y-104418600D03*
X98120200Y-104418600D03*
D16*
X94835200Y-102928600D03*
X94835200Y-101658600D03*
X94835200Y-100388600D03*
X94835200Y-99118600D03*
X94835200Y-97848600D03*
X94835200Y-96578600D03*
X94835200Y-95308600D03*
X94835200Y-94038600D03*
X94835200Y-92768600D03*
X94835200Y-91498600D03*
X94835200Y-90228600D03*
X94835200Y-88958600D03*
X94835200Y-87688600D03*
X94835200Y-86418600D03*
D18*
X103535200Y-94118600D03*
D12*
X92989400Y-105168700D03*
D13*
X92989400Y-107708700D03*
D12*
X113779300Y-107213400D03*
D13*
X111239300Y-107213400D03*
D19*
X110124000Y-64770000D03*
X109424000Y-64770000D03*
X108724000Y-64770000D03*
X108024000Y-64770000D03*
X107324000Y-64770000D03*
X106624000Y-64770000D03*
X105924000Y-64770000D03*
X105224000Y-64770000D03*
X104524000Y-64770000D03*
X103824000Y-64770000D03*
X103124000Y-64770000D03*
X102424000Y-64770000D03*
D20*
X110395000Y-138725000D03*
X110395000Y-144485000D03*
X114395000Y-144485000D03*
X114395000Y-138725000D03*
X92615000Y-127295000D03*
X92615000Y-133055000D03*
X96615000Y-133055000D03*
X96615000Y-127295000D03*
D21*
X106385000Y-121825000D03*
X100625000Y-121825000D03*
X100625000Y-125825000D03*
X106385000Y-125825000D03*
D20*
X110395000Y-127295000D03*
X110395000Y-133055000D03*
X114395000Y-133055000D03*
X114395000Y-127295000D03*
X101505000Y-133645000D03*
X101505000Y-139405000D03*
X105505000Y-139405000D03*
X105505000Y-133645000D03*
D22*
X103632000Y-144335500D03*
M02*
