G04 #@! TF.FileFunction,Copper,L2,Bot,Signal*
%FSLAX46Y46*%
G04 Gerber Fmt 4.6, Leading zero omitted, Abs format (unit mm)*
G04 Created by KiCad (PCBNEW 4.0.4-stable) date 04/22/19 13:39:38*
%MOMM*%
%LPD*%
G01*
G04 APERTURE LIST*
%ADD10C,0.100000*%
%ADD11R,1.600000X2.000000*%
%ADD12R,1.700000X1.700000*%
%ADD13O,1.700000X1.700000*%
%ADD14R,2.000000X1.600000*%
%ADD15R,2.000000X1.700000*%
%ADD16R,3.800000X2.000000*%
%ADD17R,1.500000X2.000000*%
%ADD18C,0.600000*%
%ADD19C,0.250000*%
%ADD20C,0.200000*%
G04 APERTURE END LIST*
D10*
D11*
X98247200Y-91128600D03*
X98247200Y-87128600D03*
X108915200Y-91128600D03*
X108915200Y-87128600D03*
D12*
X99009200Y-118338600D03*
D13*
X101549200Y-118338600D03*
X104089200Y-118338600D03*
X106629200Y-118338600D03*
X109169200Y-118338600D03*
D14*
X101035100Y-104101900D03*
X105035100Y-104101900D03*
D11*
X108915200Y-93986600D03*
X108915200Y-97986600D03*
D15*
X105085900Y-106883200D03*
X101085900Y-106883200D03*
D12*
X92989400Y-105168700D03*
D13*
X92989400Y-107708700D03*
D15*
X101098600Y-101612700D03*
X105098600Y-101612700D03*
D16*
X103466900Y-92100000D03*
D17*
X103466900Y-98400000D03*
X101166900Y-98400000D03*
X105766900Y-98400000D03*
D12*
X113779300Y-107213400D03*
D13*
X111239300Y-107213400D03*
D15*
X110395000Y-141605000D03*
X114395000Y-141605000D03*
X96615000Y-130175000D03*
X92615000Y-130175000D03*
X101505000Y-123825000D03*
X105505000Y-123825000D03*
X114395000Y-130175000D03*
X110395000Y-130175000D03*
X101505000Y-136525000D03*
X105505000Y-136525000D03*
D18*
X102108000Y-114300000D03*
X102870000Y-119316500D03*
X99136200Y-109194600D03*
X98120200Y-91033600D03*
X105029000Y-107061000D03*
X108407200Y-113480600D03*
X103835200Y-109448600D03*
X108788200Y-86969600D03*
X98247200Y-86969600D03*
X96774000Y-104648000D03*
X97790000Y-106426000D03*
X99263200Y-113480600D03*
X95326200Y-89001600D03*
X107975400Y-107784900D03*
X103886000Y-58978800D03*
X110845600Y-57454800D03*
X104216200Y-68732400D03*
X115468400Y-88392000D03*
X116179600Y-87909400D03*
X105232200Y-66929000D03*
X96672400Y-99136200D03*
X108204000Y-56667400D03*
X92913200Y-95402400D03*
X104013000Y-56565800D03*
X110172500Y-123253500D03*
X109550200Y-104418600D03*
X109220000Y-102362000D03*
X110109000Y-121793000D03*
X105918000Y-116967000D03*
X104013000Y-116840000D03*
X100838000Y-116713000D03*
X97028000Y-110617000D03*
X93980000Y-143510000D03*
X109169200Y-100050600D03*
X114300000Y-141605000D03*
X92710000Y-130175000D03*
X105473500Y-123888500D03*
X110490000Y-130175000D03*
X105410000Y-136525000D03*
D19*
X102743000Y-114935000D02*
X102108000Y-114300000D01*
X102743000Y-119189500D02*
X102743000Y-114935000D01*
X102870000Y-119316500D02*
X102743000Y-119189500D01*
X103466900Y-92100000D02*
X99218600Y-92100000D01*
X99218600Y-92100000D02*
X98247200Y-91128600D01*
X103022400Y-96837500D02*
X104457500Y-96837500D01*
X107308400Y-93986600D02*
X108915200Y-93986600D01*
X104457500Y-96837500D02*
X107308400Y-93986600D01*
X98247200Y-96837500D02*
X103022400Y-96837500D01*
X103466900Y-97282000D02*
X103466900Y-98400000D01*
X103022400Y-96837500D02*
X103466900Y-97282000D01*
X95453200Y-105130600D02*
X95453200Y-104952800D01*
X97586800Y-101993700D02*
X98247200Y-101333300D01*
X97586800Y-102819200D02*
X97586800Y-101993700D01*
X95453200Y-104952800D02*
X97586800Y-102819200D01*
X92964000Y-105130600D02*
X95453200Y-105130600D01*
X95453200Y-105130600D02*
X95465900Y-105130600D01*
X98348800Y-108102400D02*
X98755200Y-108508800D01*
X98348800Y-108013500D02*
X98348800Y-108102400D01*
X95465900Y-105130600D02*
X98348800Y-108013500D01*
X98247200Y-91128600D02*
X98247200Y-96837500D01*
X98247200Y-96837500D02*
X98247200Y-101333300D01*
X98247200Y-101333300D02*
X98247200Y-102082600D01*
X98247200Y-102082600D02*
X98755200Y-102590600D01*
X98755200Y-102590600D02*
X98755200Y-108508800D01*
X98755200Y-108813600D02*
X99136200Y-109194600D01*
X98755200Y-108508800D02*
X98755200Y-108813600D01*
X98120200Y-91033600D02*
X98215200Y-91128600D01*
X98215200Y-91128600D02*
X98247200Y-91128600D01*
X105085900Y-106883200D02*
X105085900Y-104152700D01*
X105085900Y-104152700D02*
X105035100Y-104101900D01*
X105766900Y-98400000D02*
X108501800Y-98400000D01*
X108501800Y-98400000D02*
X108915200Y-97986600D01*
X105035100Y-104101900D02*
X106159300Y-104101900D01*
X106730800Y-99363900D02*
X105766900Y-98400000D01*
X106730800Y-103530400D02*
X106730800Y-99363900D01*
X106159300Y-104101900D02*
X106730800Y-103530400D01*
X105029000Y-107061000D02*
X105085900Y-107004100D01*
X105085900Y-107004100D02*
X105085900Y-106883200D01*
X103835200Y-111353600D02*
X103835200Y-109448600D01*
X103962200Y-111480600D02*
X103835200Y-111353600D01*
X106407200Y-111480600D02*
X103962200Y-111480600D01*
X108407200Y-113480600D02*
X106407200Y-111480600D01*
X108788200Y-86969600D02*
X108915200Y-87096600D01*
X108915200Y-87096600D02*
X108915200Y-87128600D01*
X98247200Y-86969600D02*
X98247200Y-87128600D01*
X98247200Y-87128600D02*
X108915200Y-87128600D01*
X96774000Y-105410000D02*
X96774000Y-104648000D01*
X97790000Y-106426000D02*
X96774000Y-105410000D01*
X101549200Y-115766600D02*
X101549200Y-118338600D01*
X99263200Y-113480600D02*
X101549200Y-115766600D01*
X108915200Y-91128600D02*
X108375200Y-91128600D01*
X108375200Y-91128600D02*
X106248200Y-89001600D01*
X106248200Y-89001600D02*
X95326200Y-89001600D01*
X101035100Y-104101900D02*
X100050600Y-104101900D01*
X100050600Y-104101900D02*
X99352100Y-104800400D01*
X107581700Y-108178600D02*
X107975400Y-107784900D01*
X106794300Y-108178600D02*
X107581700Y-108178600D01*
X106273600Y-108699300D02*
X106794300Y-108178600D01*
X99936300Y-108699300D02*
X106273600Y-108699300D01*
X99352100Y-108115100D02*
X99936300Y-108699300D01*
X99352100Y-104800400D02*
X99352100Y-108115100D01*
X101098600Y-101612700D02*
X101098600Y-104038400D01*
X101098600Y-104038400D02*
X101035100Y-104101900D01*
X101098600Y-101612700D02*
X101098600Y-98468300D01*
X101098600Y-98468300D02*
X101166900Y-98400000D01*
X101085900Y-106883200D02*
X102285800Y-106883200D01*
X103212900Y-102196900D02*
X104514400Y-102196900D01*
X102565200Y-102844600D02*
X103212900Y-102196900D01*
X102565200Y-106603800D02*
X102565200Y-102844600D01*
X102285800Y-106883200D02*
X102565200Y-106603800D01*
X104514400Y-102196900D02*
X105098600Y-101612700D01*
X104394000Y-58470800D02*
X103886000Y-58978800D01*
X105283000Y-58470800D02*
X104394000Y-58470800D01*
X105867200Y-57886600D02*
X105283000Y-58470800D01*
X110413800Y-57886600D02*
X105867200Y-57886600D01*
X110845600Y-57454800D02*
X110413800Y-57886600D01*
X104546400Y-69062600D02*
X104216200Y-68732400D01*
X104546400Y-71678800D02*
X104546400Y-69062600D01*
X111353600Y-78486000D02*
X104546400Y-71678800D01*
X111353600Y-83870800D02*
X111353600Y-78486000D01*
X111734600Y-84251800D02*
X111353600Y-83870800D01*
X112369600Y-84251800D02*
X111734600Y-84251800D01*
X112674400Y-84556600D02*
X112369600Y-84251800D01*
X114884200Y-84556600D02*
X112674400Y-84556600D01*
X115544600Y-85217000D02*
X114884200Y-84556600D01*
X115544600Y-88315800D02*
X115544600Y-85217000D01*
X115468400Y-88392000D02*
X115544600Y-88315800D01*
X116179600Y-87909400D02*
X116179600Y-84937600D01*
X111988600Y-83718400D02*
X111988600Y-78359000D01*
X111988600Y-78359000D02*
X105232200Y-71602600D01*
X105232200Y-71602600D02*
X105232200Y-66929000D01*
X112496600Y-83718400D02*
X111988600Y-83718400D01*
X112877600Y-84099400D02*
X112496600Y-83718400D01*
X115341400Y-84099400D02*
X112877600Y-84099400D01*
X116179600Y-84937600D02*
X115341400Y-84099400D01*
X97307400Y-98501200D02*
X96672400Y-99136200D01*
X97307400Y-95681800D02*
X97307400Y-98501200D01*
X96367600Y-94742000D02*
X97307400Y-95681800D01*
X92557600Y-94742000D02*
X96367600Y-94742000D01*
X91389200Y-93573600D02*
X92557600Y-94742000D01*
X91389200Y-86817200D02*
X91389200Y-93573600D01*
X91617800Y-86588600D02*
X91389200Y-86817200D01*
X91617800Y-68046600D02*
X91617800Y-86588600D01*
X102057200Y-57607200D02*
X91617800Y-68046600D01*
X104470200Y-57607200D02*
X102057200Y-57607200D01*
X105232200Y-56845200D02*
X104470200Y-57607200D01*
X108026200Y-56845200D02*
X105232200Y-56845200D01*
X108204000Y-56667400D02*
X108026200Y-56845200D01*
X91744800Y-95402400D02*
X92913200Y-95402400D01*
X90830400Y-94488000D02*
X91744800Y-95402400D01*
X90830400Y-86131400D02*
X90830400Y-94488000D01*
X90957400Y-86004400D02*
X90830400Y-86131400D01*
X90957400Y-67564000D02*
X90957400Y-86004400D01*
X101676200Y-56845200D02*
X90957400Y-67564000D01*
X103733600Y-56845200D02*
X101676200Y-56845200D01*
X104013000Y-56565800D02*
X103733600Y-56845200D01*
X101505000Y-123825000D02*
X102552500Y-123825000D01*
X108966000Y-124460000D02*
X110172500Y-123253500D01*
X108966000Y-125476000D02*
X108966000Y-124460000D01*
X106997500Y-127444500D02*
X108966000Y-125476000D01*
X105346500Y-127444500D02*
X106997500Y-127444500D01*
X103568500Y-125666500D02*
X105346500Y-127444500D01*
X103568500Y-124841000D02*
X103568500Y-125666500D01*
X102552500Y-123825000D02*
X103568500Y-124841000D01*
X108585000Y-142240000D02*
X107061000Y-142240000D01*
X112395000Y-130175000D02*
X112395000Y-133985000D01*
X112395000Y-133985000D02*
X110490000Y-135890000D01*
X110490000Y-135890000D02*
X108585000Y-137795000D01*
X108585000Y-137795000D02*
X108585000Y-142240000D01*
X114395000Y-130175000D02*
X112395000Y-130175000D01*
X92075000Y-136525000D02*
X91440000Y-135890000D01*
X94170500Y-136525000D02*
X92075000Y-136525000D01*
X98171000Y-140525500D02*
X94170500Y-136525000D01*
X105346500Y-140525500D02*
X98171000Y-140525500D01*
X107061000Y-142240000D02*
X105346500Y-140525500D01*
X109779600Y-104648000D02*
X109550200Y-104418600D01*
X109779600Y-104648000D02*
X111633000Y-104648000D01*
X111633000Y-104648000D02*
X112522000Y-105537000D01*
X112522000Y-105537000D02*
X112522000Y-116713000D01*
X112522000Y-116713000D02*
X111760000Y-117475000D01*
X111760000Y-117475000D02*
X111760000Y-119507000D01*
X111760000Y-119507000D02*
X111252000Y-120015000D01*
X111252000Y-120015000D02*
X97155000Y-120015000D01*
X97155000Y-120015000D02*
X92710000Y-124460000D01*
X90805000Y-126365000D02*
X92710000Y-124460000D01*
X90805000Y-135255000D02*
X90805000Y-126365000D01*
X91440000Y-135890000D02*
X90805000Y-135255000D01*
X96615000Y-130175000D02*
X97853500Y-130175000D01*
X109728000Y-120777000D02*
X109220000Y-121285000D01*
X111379000Y-120777000D02*
X109728000Y-120777000D01*
X112903000Y-119253000D02*
X111379000Y-120777000D01*
X112903000Y-117856000D02*
X112903000Y-119253000D01*
X113919000Y-116840000D02*
X112903000Y-117856000D01*
X114427000Y-116840000D02*
X113919000Y-116840000D01*
X115951000Y-115316000D02*
X114427000Y-116840000D01*
X115951000Y-105791000D02*
X115951000Y-115316000D01*
X114046000Y-103886000D02*
X115951000Y-105791000D01*
X110744000Y-103886000D02*
X114046000Y-103886000D01*
X109220000Y-102362000D02*
X110744000Y-103886000D01*
X108775500Y-121729500D02*
X109220000Y-121285000D01*
X99631500Y-121729500D02*
X108775500Y-121729500D01*
X98742500Y-122618500D02*
X99631500Y-121729500D01*
X98742500Y-129286000D02*
X98742500Y-122618500D01*
X97853500Y-130175000D02*
X98742500Y-129286000D01*
X101505000Y-136525000D02*
X102679500Y-136525000D01*
X111379000Y-123634500D02*
X111379000Y-123063000D01*
X109664500Y-125349000D02*
X111379000Y-123634500D01*
X109664500Y-127254000D02*
X109664500Y-125349000D01*
X108140500Y-128778000D02*
X109664500Y-127254000D01*
X108140500Y-128968500D02*
X108140500Y-128778000D01*
X103886000Y-133223000D02*
X108140500Y-128968500D01*
X103886000Y-135318500D02*
X103886000Y-133223000D01*
X102679500Y-136525000D02*
X103886000Y-135318500D01*
X110109000Y-121793000D02*
X111379000Y-123063000D01*
X104140000Y-116967000D02*
X105918000Y-116967000D01*
X104013000Y-116840000D02*
X104140000Y-116967000D01*
X99949000Y-116713000D02*
X100838000Y-116713000D01*
X97409000Y-114173000D02*
X99949000Y-116713000D01*
X97409000Y-110998000D02*
X97409000Y-114173000D01*
X97028000Y-110617000D02*
X97409000Y-110998000D01*
X110395000Y-141605000D02*
X110395000Y-141700000D01*
X110395000Y-141700000D02*
X109220000Y-142875000D01*
X95186500Y-143510000D02*
X93980000Y-143510000D01*
X97472500Y-141224000D02*
X95186500Y-143510000D01*
X105283000Y-141224000D02*
X97472500Y-141224000D01*
X106934000Y-142875000D02*
X105283000Y-141224000D01*
X109220000Y-142875000D02*
X106934000Y-142875000D01*
X110395000Y-141605000D02*
X110395000Y-142335000D01*
X106629200Y-117195600D02*
X106629200Y-118338600D01*
X107391200Y-116433600D02*
X106629200Y-117195600D01*
X108534200Y-116433600D02*
X107391200Y-116433600D01*
X109804200Y-115163600D02*
X108534200Y-116433600D01*
X109804200Y-107924600D02*
X109804200Y-115163600D01*
X107645200Y-105765600D02*
X109804200Y-107924600D01*
X107645200Y-101574600D02*
X107645200Y-105765600D01*
X109169200Y-100050600D02*
X107645200Y-101574600D01*
X114300000Y-141605000D02*
X114395000Y-141605000D01*
X92710000Y-130175000D02*
X92615000Y-130175000D01*
X105473500Y-123888500D02*
X105505000Y-123857000D01*
X105505000Y-123857000D02*
X105505000Y-123825000D01*
X110490000Y-130175000D02*
X110395000Y-130175000D01*
X105410000Y-136525000D02*
X105505000Y-136525000D01*
D20*
G36*
X115119600Y-85393041D02*
X115119600Y-87892403D01*
X114960041Y-88051683D01*
X114868504Y-88272129D01*
X114868296Y-88510824D01*
X114959448Y-88731429D01*
X115128083Y-88900359D01*
X115348529Y-88991896D01*
X115587224Y-88992104D01*
X115807829Y-88900952D01*
X115976759Y-88732317D01*
X116068296Y-88511871D01*
X116068298Y-88509303D01*
X116298424Y-88509504D01*
X116465000Y-88440676D01*
X116465000Y-117823801D01*
X116292365Y-117565435D01*
X115704562Y-117172677D01*
X115011200Y-117034759D01*
X114789103Y-117078937D01*
X116251520Y-115616521D01*
X116343648Y-115478641D01*
X116343649Y-115478640D01*
X116376000Y-115316000D01*
X116376000Y-105791000D01*
X116370948Y-105765600D01*
X116343649Y-105628359D01*
X116251520Y-105490480D01*
X114346520Y-103585480D01*
X114208641Y-103493351D01*
X114181657Y-103487984D01*
X114046000Y-103461000D01*
X110920041Y-103461000D01*
X109820001Y-102360961D01*
X109820104Y-102243176D01*
X109728952Y-102022571D01*
X109560317Y-101853641D01*
X109339871Y-101762104D01*
X109101176Y-101761896D01*
X108880571Y-101853048D01*
X108711641Y-102021683D01*
X108620104Y-102242129D01*
X108619896Y-102480824D01*
X108711048Y-102701429D01*
X108879683Y-102870359D01*
X109100129Y-102961896D01*
X109218959Y-102962000D01*
X110443479Y-104186520D01*
X110498075Y-104223000D01*
X110118581Y-104223000D01*
X110059152Y-104079171D01*
X109890517Y-103910241D01*
X109670071Y-103818704D01*
X109431376Y-103818496D01*
X109210771Y-103909648D01*
X109041841Y-104078283D01*
X108950304Y-104298729D01*
X108950096Y-104537424D01*
X109041248Y-104758029D01*
X109209883Y-104926959D01*
X109430329Y-105018496D01*
X109584005Y-105018630D01*
X109616959Y-105040649D01*
X109779600Y-105073000D01*
X111456960Y-105073000D01*
X112097000Y-105713040D01*
X112097000Y-106444337D01*
X112052473Y-106377697D01*
X111679386Y-106128409D01*
X111239300Y-106040870D01*
X110799214Y-106128409D01*
X110426127Y-106377697D01*
X110176839Y-106750784D01*
X110089300Y-107190870D01*
X110089300Y-107235930D01*
X110176839Y-107676016D01*
X110426127Y-108049103D01*
X110799214Y-108298391D01*
X111239300Y-108385930D01*
X111679386Y-108298391D01*
X112052473Y-108049103D01*
X112097000Y-107982463D01*
X112097000Y-116536959D01*
X111459480Y-117174480D01*
X111367351Y-117312359D01*
X111367351Y-117312360D01*
X111335000Y-117475000D01*
X111335000Y-119330959D01*
X111075960Y-119590000D01*
X103406104Y-119590000D01*
X103469896Y-119436371D01*
X103470011Y-119303919D01*
X103649114Y-119423591D01*
X104089200Y-119511130D01*
X104529286Y-119423591D01*
X104902373Y-119174303D01*
X105151661Y-118801216D01*
X105239200Y-118361130D01*
X105239200Y-118316070D01*
X105151661Y-117875984D01*
X104902373Y-117502897D01*
X104736403Y-117392000D01*
X105494470Y-117392000D01*
X105577683Y-117475359D01*
X105778665Y-117558814D01*
X105566739Y-117875984D01*
X105479200Y-118316070D01*
X105479200Y-118361130D01*
X105566739Y-118801216D01*
X105816027Y-119174303D01*
X106189114Y-119423591D01*
X106629200Y-119511130D01*
X107069286Y-119423591D01*
X107442373Y-119174303D01*
X107691661Y-118801216D01*
X107779200Y-118361130D01*
X107779200Y-118316070D01*
X108019200Y-118316070D01*
X108019200Y-118361130D01*
X108106739Y-118801216D01*
X108356027Y-119174303D01*
X108729114Y-119423591D01*
X109169200Y-119511130D01*
X109609286Y-119423591D01*
X109982373Y-119174303D01*
X110231661Y-118801216D01*
X110319200Y-118361130D01*
X110319200Y-118316070D01*
X110231661Y-117875984D01*
X109982373Y-117502897D01*
X109609286Y-117253609D01*
X109169200Y-117166070D01*
X108729114Y-117253609D01*
X108356027Y-117502897D01*
X108106739Y-117875984D01*
X108019200Y-118316070D01*
X107779200Y-118316070D01*
X107691661Y-117875984D01*
X107442373Y-117502897D01*
X107130997Y-117294843D01*
X107567241Y-116858600D01*
X108534200Y-116858600D01*
X108669857Y-116831616D01*
X108696841Y-116826249D01*
X108834720Y-116734120D01*
X110104720Y-115464121D01*
X110174291Y-115360000D01*
X110196849Y-115326240D01*
X110229200Y-115163600D01*
X110229200Y-107924600D01*
X110196849Y-107761960D01*
X110196849Y-107761959D01*
X110104720Y-107624080D01*
X108070200Y-105589560D01*
X108070200Y-101750640D01*
X109170239Y-100650601D01*
X109288024Y-100650704D01*
X109508629Y-100559552D01*
X109677559Y-100390917D01*
X109769096Y-100170471D01*
X109769304Y-99931776D01*
X109678152Y-99711171D01*
X109509517Y-99542241D01*
X109289071Y-99450704D01*
X109050376Y-99450496D01*
X108829771Y-99541648D01*
X108660841Y-99710283D01*
X108569304Y-99930729D01*
X108569200Y-100049559D01*
X107344680Y-101274080D01*
X107252551Y-101411959D01*
X107252551Y-101411960D01*
X107220200Y-101574600D01*
X107220200Y-105765600D01*
X107234506Y-105837520D01*
X107252551Y-105928241D01*
X107344680Y-106066120D01*
X109379200Y-108100640D01*
X109379200Y-114987559D01*
X108358160Y-116008600D01*
X107391200Y-116008600D01*
X107228559Y-116040951D01*
X107090680Y-116133079D01*
X106476434Y-116747326D01*
X106426952Y-116627571D01*
X106258317Y-116458641D01*
X106037871Y-116367104D01*
X105799176Y-116366896D01*
X105578571Y-116458048D01*
X105494472Y-116542000D01*
X104539070Y-116542000D01*
X104521952Y-116500571D01*
X104353317Y-116331641D01*
X104132871Y-116240104D01*
X103894176Y-116239896D01*
X103673571Y-116331048D01*
X103504641Y-116499683D01*
X103413104Y-116720129D01*
X103412896Y-116958824D01*
X103504048Y-117179429D01*
X103606513Y-117282074D01*
X103276027Y-117502897D01*
X103168000Y-117664571D01*
X103168000Y-114935000D01*
X103135649Y-114772360D01*
X103135649Y-114772359D01*
X103043521Y-114634480D01*
X102708001Y-114298961D01*
X102708104Y-114181176D01*
X102616952Y-113960571D01*
X102448317Y-113791641D01*
X102227871Y-113700104D01*
X101989176Y-113699896D01*
X101768571Y-113791048D01*
X101599641Y-113959683D01*
X101508104Y-114180129D01*
X101507896Y-114418824D01*
X101599048Y-114639429D01*
X101767683Y-114808359D01*
X101988129Y-114899896D01*
X102106959Y-114900000D01*
X102318000Y-115111041D01*
X102318000Y-117473248D01*
X101989286Y-117253609D01*
X101974200Y-117250608D01*
X101974200Y-115766600D01*
X101941849Y-115603960D01*
X101909969Y-115556249D01*
X101849720Y-115466079D01*
X99863201Y-113479561D01*
X99863304Y-113361776D01*
X99772152Y-113141171D01*
X99603517Y-112972241D01*
X99383071Y-112880704D01*
X99144376Y-112880496D01*
X98923771Y-112971648D01*
X98754841Y-113140283D01*
X98663304Y-113360729D01*
X98663096Y-113599424D01*
X98754248Y-113820029D01*
X98922883Y-113988959D01*
X99143329Y-114080496D01*
X99262159Y-114080600D01*
X101124200Y-115942641D01*
X101124200Y-116182170D01*
X100957871Y-116113104D01*
X100719176Y-116112896D01*
X100498571Y-116204048D01*
X100414472Y-116288000D01*
X100125041Y-116288000D01*
X97834000Y-113996960D01*
X97834000Y-110998000D01*
X97801649Y-110835360D01*
X97764419Y-110779641D01*
X97709520Y-110697479D01*
X97628001Y-110615961D01*
X97628104Y-110498176D01*
X97536952Y-110277571D01*
X97368317Y-110108641D01*
X97147871Y-110017104D01*
X96909176Y-110016896D01*
X96688571Y-110108048D01*
X96519641Y-110276683D01*
X96428104Y-110497129D01*
X96427896Y-110735824D01*
X96519048Y-110956429D01*
X96687683Y-111125359D01*
X96908129Y-111216896D01*
X96984000Y-111216962D01*
X96984000Y-114173000D01*
X97009262Y-114300000D01*
X97016351Y-114335641D01*
X97108480Y-114473520D01*
X99648479Y-117013520D01*
X99706711Y-117052429D01*
X99786360Y-117105649D01*
X99949000Y-117138000D01*
X100414470Y-117138000D01*
X100497683Y-117221359D01*
X100718129Y-117312896D01*
X100956824Y-117313104D01*
X101124200Y-117243946D01*
X101124200Y-117250608D01*
X101109114Y-117253609D01*
X100736027Y-117502897D01*
X100486739Y-117875984D01*
X100399200Y-118316070D01*
X100399200Y-118361130D01*
X100486739Y-118801216D01*
X100736027Y-119174303D01*
X101109114Y-119423591D01*
X101549200Y-119511130D01*
X101989286Y-119423591D01*
X102270070Y-119235978D01*
X102269896Y-119435324D01*
X102333807Y-119590000D01*
X97155000Y-119590000D01*
X96992360Y-119622351D01*
X96992358Y-119622352D01*
X96992359Y-119622352D01*
X96854479Y-119714480D01*
X92409480Y-124159480D01*
X90545000Y-126023960D01*
X90545000Y-120021454D01*
X90616035Y-120127765D01*
X91203838Y-120520523D01*
X91897200Y-120658441D01*
X92590562Y-120520523D01*
X93178365Y-120127765D01*
X93571123Y-119539962D01*
X93709041Y-118846600D01*
X93632858Y-118463600D01*
X97859200Y-118463600D01*
X97859200Y-119248274D01*
X97904872Y-119358537D01*
X97989264Y-119442928D01*
X98099527Y-119488600D01*
X98884200Y-119488600D01*
X98959200Y-119413600D01*
X98959200Y-118388600D01*
X99059200Y-118388600D01*
X99059200Y-119413600D01*
X99134200Y-119488600D01*
X99918873Y-119488600D01*
X100029136Y-119442928D01*
X100113528Y-119358537D01*
X100159200Y-119248274D01*
X100159200Y-118463600D01*
X100084200Y-118388600D01*
X99059200Y-118388600D01*
X98959200Y-118388600D01*
X97934200Y-118388600D01*
X97859200Y-118463600D01*
X93632858Y-118463600D01*
X93571123Y-118153238D01*
X93178365Y-117565435D01*
X92974066Y-117428926D01*
X97859200Y-117428926D01*
X97859200Y-118213600D01*
X97934200Y-118288600D01*
X98959200Y-118288600D01*
X98959200Y-117263600D01*
X99059200Y-117263600D01*
X99059200Y-118288600D01*
X100084200Y-118288600D01*
X100159200Y-118213600D01*
X100159200Y-117428926D01*
X100113528Y-117318663D01*
X100029136Y-117234272D01*
X99918873Y-117188600D01*
X99134200Y-117188600D01*
X99059200Y-117263600D01*
X98959200Y-117263600D01*
X98884200Y-117188600D01*
X98099527Y-117188600D01*
X97989264Y-117234272D01*
X97904872Y-117318663D01*
X97859200Y-117428926D01*
X92974066Y-117428926D01*
X92590562Y-117172677D01*
X91897200Y-117034759D01*
X91203838Y-117172677D01*
X90616035Y-117565435D01*
X90545000Y-117671746D01*
X90545000Y-107937814D01*
X91862454Y-107937814D01*
X92030517Y-108343566D01*
X92346460Y-108662188D01*
X92760285Y-108835650D01*
X92939400Y-108782617D01*
X92939400Y-107758700D01*
X93039400Y-107758700D01*
X93039400Y-108782617D01*
X93218515Y-108835650D01*
X93632340Y-108662188D01*
X93948283Y-108343566D01*
X94116346Y-107937814D01*
X94063237Y-107758700D01*
X93039400Y-107758700D01*
X92939400Y-107758700D01*
X91915563Y-107758700D01*
X91862454Y-107937814D01*
X90545000Y-107937814D01*
X90545000Y-107479586D01*
X91862454Y-107479586D01*
X91915563Y-107658700D01*
X92939400Y-107658700D01*
X92939400Y-106634783D01*
X93039400Y-106634783D01*
X93039400Y-107658700D01*
X94063237Y-107658700D01*
X94116346Y-107479586D01*
X93948283Y-107073834D01*
X93632340Y-106755212D01*
X93218515Y-106581750D01*
X93039400Y-106634783D01*
X92939400Y-106634783D01*
X92760285Y-106581750D01*
X92346460Y-106755212D01*
X92030517Y-107073834D01*
X91862454Y-107479586D01*
X90545000Y-107479586D01*
X90545000Y-104318700D01*
X91833523Y-104318700D01*
X91833523Y-106018700D01*
X91854442Y-106129873D01*
X91920145Y-106231979D01*
X92020397Y-106300478D01*
X92139400Y-106324577D01*
X93839400Y-106324577D01*
X93950573Y-106303658D01*
X94052679Y-106237955D01*
X94121178Y-106137703D01*
X94145277Y-106018700D01*
X94145277Y-105555600D01*
X95289860Y-105555600D01*
X97945437Y-108211178D01*
X97949845Y-108233337D01*
X97956151Y-108265041D01*
X98048280Y-108402920D01*
X98330200Y-108684841D01*
X98330200Y-108813600D01*
X98354109Y-108933799D01*
X98362551Y-108976241D01*
X98454680Y-109114120D01*
X98536199Y-109195639D01*
X98536096Y-109313424D01*
X98627248Y-109534029D01*
X98795883Y-109702959D01*
X99016329Y-109794496D01*
X99255024Y-109794704D01*
X99475629Y-109703552D01*
X99644559Y-109534917D01*
X99736096Y-109314471D01*
X99736304Y-109075776D01*
X99731289Y-109063638D01*
X99773659Y-109091949D01*
X99936300Y-109124300D01*
X106273600Y-109124300D01*
X106409257Y-109097316D01*
X106436241Y-109091949D01*
X106574120Y-108999820D01*
X106970340Y-108603600D01*
X107581700Y-108603600D01*
X107717357Y-108576616D01*
X107744341Y-108571249D01*
X107882220Y-108479120D01*
X107976439Y-108384901D01*
X108094224Y-108385004D01*
X108314829Y-108293852D01*
X108483759Y-108125217D01*
X108575296Y-107904771D01*
X108575504Y-107666076D01*
X108484352Y-107445471D01*
X108315717Y-107276541D01*
X108095271Y-107185004D01*
X107856576Y-107184796D01*
X107635971Y-107275948D01*
X107467041Y-107444583D01*
X107375504Y-107665029D01*
X107375427Y-107753600D01*
X106794300Y-107753600D01*
X106658643Y-107780584D01*
X106631659Y-107785951D01*
X106493780Y-107878080D01*
X106097560Y-108274300D01*
X100112341Y-108274300D01*
X99777100Y-107939060D01*
X99777100Y-105054967D01*
X99815845Y-105115179D01*
X99916097Y-105183678D01*
X100035100Y-105207777D01*
X102035100Y-105207777D01*
X102140200Y-105188001D01*
X102140200Y-105738319D01*
X102085900Y-105727323D01*
X100085900Y-105727323D01*
X99974727Y-105748242D01*
X99872621Y-105813945D01*
X99804122Y-105914197D01*
X99780023Y-106033200D01*
X99780023Y-107733200D01*
X99800942Y-107844373D01*
X99866645Y-107946479D01*
X99966897Y-108014978D01*
X100085900Y-108039077D01*
X102085900Y-108039077D01*
X102197073Y-108018158D01*
X102299179Y-107952455D01*
X102367678Y-107852203D01*
X102391777Y-107733200D01*
X102391777Y-107287120D01*
X102421457Y-107281216D01*
X102448441Y-107275849D01*
X102586320Y-107183720D01*
X102761840Y-107008200D01*
X103785900Y-107008200D01*
X103785900Y-107792873D01*
X103831572Y-107903136D01*
X103915963Y-107987528D01*
X104026226Y-108033200D01*
X104960900Y-108033200D01*
X105035900Y-107958200D01*
X105035900Y-106933200D01*
X105135900Y-106933200D01*
X105135900Y-107958200D01*
X105210900Y-108033200D01*
X106145574Y-108033200D01*
X106255837Y-107987528D01*
X106340228Y-107903136D01*
X106385900Y-107792873D01*
X106385900Y-107008200D01*
X106310900Y-106933200D01*
X105135900Y-106933200D01*
X105035900Y-106933200D01*
X103860900Y-106933200D01*
X103785900Y-107008200D01*
X102761840Y-107008200D01*
X102865720Y-106904321D01*
X102957848Y-106766441D01*
X102957849Y-106766440D01*
X102990200Y-106603800D01*
X102990200Y-105973527D01*
X103785900Y-105973527D01*
X103785900Y-106758200D01*
X103860900Y-106833200D01*
X105035900Y-106833200D01*
X105035900Y-105808200D01*
X105135900Y-105808200D01*
X105135900Y-106833200D01*
X106310900Y-106833200D01*
X106385900Y-106758200D01*
X106385900Y-105973527D01*
X106340228Y-105863264D01*
X106255837Y-105778872D01*
X106145574Y-105733200D01*
X105210900Y-105733200D01*
X105135900Y-105808200D01*
X105035900Y-105808200D01*
X104960900Y-105733200D01*
X104026226Y-105733200D01*
X103915963Y-105778872D01*
X103831572Y-105863264D01*
X103785900Y-105973527D01*
X102990200Y-105973527D01*
X102990200Y-104226900D01*
X103735100Y-104226900D01*
X103735100Y-104961573D01*
X103780772Y-105071836D01*
X103865163Y-105156228D01*
X103975426Y-105201900D01*
X104910100Y-105201900D01*
X104985100Y-105126900D01*
X104985100Y-104151900D01*
X105085100Y-104151900D01*
X105085100Y-105126900D01*
X105160100Y-105201900D01*
X106094774Y-105201900D01*
X106205037Y-105156228D01*
X106289428Y-105071836D01*
X106335100Y-104961573D01*
X106335100Y-104226900D01*
X106260100Y-104151900D01*
X105085100Y-104151900D01*
X104985100Y-104151900D01*
X103810100Y-104151900D01*
X103735100Y-104226900D01*
X102990200Y-104226900D01*
X102990200Y-103242227D01*
X103735100Y-103242227D01*
X103735100Y-103976900D01*
X103810100Y-104051900D01*
X104985100Y-104051900D01*
X104985100Y-103076900D01*
X105085100Y-103076900D01*
X105085100Y-104051900D01*
X106260100Y-104051900D01*
X106335100Y-103976900D01*
X106335100Y-103242227D01*
X106289428Y-103131964D01*
X106205037Y-103047572D01*
X106094774Y-103001900D01*
X105160100Y-103001900D01*
X105085100Y-103076900D01*
X104985100Y-103076900D01*
X104910100Y-103001900D01*
X103975426Y-103001900D01*
X103865163Y-103047572D01*
X103780772Y-103131964D01*
X103735100Y-103242227D01*
X102990200Y-103242227D01*
X102990200Y-103020640D01*
X103388940Y-102621900D01*
X103844546Y-102621900D01*
X103879345Y-102675979D01*
X103979597Y-102744478D01*
X104098600Y-102768577D01*
X106098600Y-102768577D01*
X106209773Y-102747658D01*
X106311879Y-102681955D01*
X106380378Y-102581703D01*
X106404477Y-102462700D01*
X106404477Y-100762700D01*
X106383558Y-100651527D01*
X106317855Y-100549421D01*
X106217603Y-100480922D01*
X106098600Y-100456823D01*
X104098600Y-100456823D01*
X103987427Y-100477742D01*
X103885321Y-100543445D01*
X103816822Y-100643697D01*
X103792723Y-100762700D01*
X103792723Y-101771900D01*
X103212900Y-101771900D01*
X103077243Y-101798884D01*
X103050259Y-101804251D01*
X102912380Y-101896380D01*
X102404477Y-102404283D01*
X102404477Y-100762700D01*
X102383558Y-100651527D01*
X102317855Y-100549421D01*
X102217603Y-100480922D01*
X102098600Y-100456823D01*
X101523600Y-100456823D01*
X101523600Y-99705877D01*
X101916900Y-99705877D01*
X102028073Y-99684958D01*
X102130179Y-99619255D01*
X102198678Y-99519003D01*
X102222777Y-99400000D01*
X102222777Y-97400000D01*
X102201858Y-97288827D01*
X102184917Y-97262500D01*
X102447760Y-97262500D01*
X102435122Y-97280997D01*
X102411023Y-97400000D01*
X102411023Y-99400000D01*
X102431942Y-99511173D01*
X102497645Y-99613279D01*
X102597897Y-99681778D01*
X102716900Y-99705877D01*
X104216900Y-99705877D01*
X104328073Y-99684958D01*
X104430179Y-99619255D01*
X104498678Y-99519003D01*
X104522777Y-99400000D01*
X104522777Y-98525000D01*
X104716900Y-98525000D01*
X104716900Y-99459674D01*
X104762572Y-99569937D01*
X104846964Y-99654328D01*
X104957227Y-99700000D01*
X105641900Y-99700000D01*
X105716900Y-99625000D01*
X105716900Y-98450000D01*
X105816900Y-98450000D01*
X105816900Y-99625000D01*
X105891900Y-99700000D01*
X106576573Y-99700000D01*
X106686836Y-99654328D01*
X106771228Y-99569937D01*
X106816900Y-99459674D01*
X106816900Y-98525000D01*
X106741900Y-98450000D01*
X105816900Y-98450000D01*
X105716900Y-98450000D01*
X104791900Y-98450000D01*
X104716900Y-98525000D01*
X104522777Y-98525000D01*
X104522777Y-97400000D01*
X104511549Y-97340326D01*
X104716900Y-97340326D01*
X104716900Y-98275000D01*
X104791900Y-98350000D01*
X105716900Y-98350000D01*
X105716900Y-97175000D01*
X105816900Y-97175000D01*
X105816900Y-98350000D01*
X106741900Y-98350000D01*
X106816900Y-98275000D01*
X106816900Y-98111600D01*
X107815200Y-98111600D01*
X107815200Y-99046274D01*
X107860872Y-99156537D01*
X107945264Y-99240928D01*
X108055527Y-99286600D01*
X108790200Y-99286600D01*
X108865200Y-99211600D01*
X108865200Y-98036600D01*
X108965200Y-98036600D01*
X108965200Y-99211600D01*
X109040200Y-99286600D01*
X109774873Y-99286600D01*
X109885136Y-99240928D01*
X109969528Y-99156537D01*
X110015200Y-99046274D01*
X110015200Y-98111600D01*
X109940200Y-98036600D01*
X108965200Y-98036600D01*
X108865200Y-98036600D01*
X107890200Y-98036600D01*
X107815200Y-98111600D01*
X106816900Y-98111600D01*
X106816900Y-97340326D01*
X106771228Y-97230063D01*
X106686836Y-97145672D01*
X106576573Y-97100000D01*
X105891900Y-97100000D01*
X105816900Y-97175000D01*
X105716900Y-97175000D01*
X105641900Y-97100000D01*
X104957227Y-97100000D01*
X104846964Y-97145672D01*
X104762572Y-97230063D01*
X104716900Y-97340326D01*
X104511549Y-97340326D01*
X104501858Y-97288827D01*
X104481806Y-97257665D01*
X104593157Y-97235516D01*
X104620141Y-97230149D01*
X104758020Y-97138020D01*
X104969114Y-96926926D01*
X107815200Y-96926926D01*
X107815200Y-97861600D01*
X107890200Y-97936600D01*
X108865200Y-97936600D01*
X108865200Y-96761600D01*
X108965200Y-96761600D01*
X108965200Y-97936600D01*
X109940200Y-97936600D01*
X110015200Y-97861600D01*
X110015200Y-96926926D01*
X109969528Y-96816663D01*
X109885136Y-96732272D01*
X109774873Y-96686600D01*
X109040200Y-96686600D01*
X108965200Y-96761600D01*
X108865200Y-96761600D01*
X108790200Y-96686600D01*
X108055527Y-96686600D01*
X107945264Y-96732272D01*
X107860872Y-96816663D01*
X107815200Y-96926926D01*
X104969114Y-96926926D01*
X107484441Y-94411600D01*
X107809323Y-94411600D01*
X107809323Y-94986600D01*
X107830242Y-95097773D01*
X107895945Y-95199879D01*
X107996197Y-95268378D01*
X108115200Y-95292477D01*
X109715200Y-95292477D01*
X109826373Y-95271558D01*
X109928479Y-95205855D01*
X109996978Y-95105603D01*
X110021077Y-94986600D01*
X110021077Y-92986600D01*
X110000158Y-92875427D01*
X109934455Y-92773321D01*
X109834203Y-92704822D01*
X109715200Y-92680723D01*
X108115200Y-92680723D01*
X108004027Y-92701642D01*
X107901921Y-92767345D01*
X107833422Y-92867597D01*
X107809323Y-92986600D01*
X107809323Y-93561600D01*
X107308400Y-93561600D01*
X107145760Y-93593951D01*
X107145758Y-93593952D01*
X107145759Y-93593952D01*
X107007879Y-93686080D01*
X104281460Y-96412500D01*
X98672200Y-96412500D01*
X98672200Y-92434477D01*
X98968900Y-92434477D01*
X99055959Y-92492649D01*
X99082943Y-92498016D01*
X99218600Y-92525000D01*
X101261023Y-92525000D01*
X101261023Y-93100000D01*
X101281942Y-93211173D01*
X101347645Y-93313279D01*
X101447897Y-93381778D01*
X101566900Y-93405877D01*
X105366900Y-93405877D01*
X105478073Y-93384958D01*
X105580179Y-93319255D01*
X105648678Y-93219003D01*
X105672777Y-93100000D01*
X105672777Y-91100000D01*
X105651858Y-90988827D01*
X105586155Y-90886721D01*
X105485903Y-90818222D01*
X105366900Y-90794123D01*
X101566900Y-90794123D01*
X101455727Y-90815042D01*
X101353621Y-90880745D01*
X101285122Y-90980997D01*
X101261023Y-91100000D01*
X101261023Y-91675000D01*
X99394640Y-91675000D01*
X99353077Y-91633437D01*
X99353077Y-90128600D01*
X99332158Y-90017427D01*
X99266455Y-89915321D01*
X99166203Y-89846822D01*
X99047200Y-89822723D01*
X97447200Y-89822723D01*
X97336027Y-89843642D01*
X97233921Y-89909345D01*
X97165422Y-90009597D01*
X97141323Y-90128600D01*
X97141323Y-92128600D01*
X97162242Y-92239773D01*
X97227945Y-92341879D01*
X97328197Y-92410378D01*
X97447200Y-92434477D01*
X97822200Y-92434477D01*
X97822200Y-101157259D01*
X97286280Y-101693180D01*
X97194151Y-101831059D01*
X97194151Y-101831060D01*
X97161800Y-101993700D01*
X97161800Y-102643160D01*
X95152680Y-104652280D01*
X95117052Y-104705600D01*
X94145277Y-104705600D01*
X94145277Y-104318700D01*
X94124358Y-104207527D01*
X94058655Y-104105421D01*
X93958403Y-104036922D01*
X93839400Y-104012823D01*
X92139400Y-104012823D01*
X92028227Y-104033742D01*
X91926121Y-104099445D01*
X91857622Y-104199697D01*
X91833523Y-104318700D01*
X90545000Y-104318700D01*
X90545000Y-94803640D01*
X91444280Y-95702920D01*
X91582159Y-95795049D01*
X91744800Y-95827400D01*
X92489670Y-95827400D01*
X92572883Y-95910759D01*
X92793329Y-96002296D01*
X93032024Y-96002504D01*
X93252629Y-95911352D01*
X93421559Y-95742717D01*
X93513096Y-95522271D01*
X93513304Y-95283576D01*
X93465136Y-95167000D01*
X96191560Y-95167000D01*
X96882400Y-95857840D01*
X96882400Y-98325159D01*
X96671361Y-98536199D01*
X96553576Y-98536096D01*
X96332971Y-98627248D01*
X96164041Y-98795883D01*
X96072504Y-99016329D01*
X96072296Y-99255024D01*
X96163448Y-99475629D01*
X96332083Y-99644559D01*
X96552529Y-99736096D01*
X96791224Y-99736304D01*
X97011829Y-99645152D01*
X97180759Y-99476517D01*
X97272296Y-99256071D01*
X97272400Y-99137241D01*
X97607921Y-98801720D01*
X97700049Y-98663841D01*
X97732400Y-98501200D01*
X97732400Y-95681800D01*
X97700049Y-95519160D01*
X97700049Y-95519159D01*
X97607920Y-95381280D01*
X96668120Y-94441480D01*
X96530241Y-94349351D01*
X96503257Y-94343984D01*
X96367600Y-94317000D01*
X92733640Y-94317000D01*
X91814200Y-93397560D01*
X91814200Y-89120424D01*
X94726096Y-89120424D01*
X94817248Y-89341029D01*
X94985883Y-89509959D01*
X95206329Y-89601496D01*
X95445024Y-89601704D01*
X95665629Y-89510552D01*
X95749728Y-89426600D01*
X106072160Y-89426600D01*
X107809323Y-91163764D01*
X107809323Y-92128600D01*
X107830242Y-92239773D01*
X107895945Y-92341879D01*
X107996197Y-92410378D01*
X108115200Y-92434477D01*
X109715200Y-92434477D01*
X109826373Y-92413558D01*
X109928479Y-92347855D01*
X109996978Y-92247603D01*
X110021077Y-92128600D01*
X110021077Y-90128600D01*
X110000158Y-90017427D01*
X109934455Y-89915321D01*
X109834203Y-89846822D01*
X109715200Y-89822723D01*
X108115200Y-89822723D01*
X108004027Y-89843642D01*
X107901921Y-89909345D01*
X107843089Y-89995449D01*
X106548720Y-88701080D01*
X106410841Y-88608951D01*
X106383857Y-88603584D01*
X106248200Y-88576600D01*
X95749730Y-88576600D01*
X95666517Y-88493241D01*
X95446071Y-88401704D01*
X95207376Y-88401496D01*
X94986771Y-88492648D01*
X94817841Y-88661283D01*
X94726304Y-88881729D01*
X94726096Y-89120424D01*
X91814200Y-89120424D01*
X91814200Y-87253600D01*
X97147200Y-87253600D01*
X97147200Y-88188274D01*
X97192872Y-88298537D01*
X97277264Y-88382928D01*
X97387527Y-88428600D01*
X98122200Y-88428600D01*
X98197200Y-88353600D01*
X98197200Y-87178600D01*
X98297200Y-87178600D01*
X98297200Y-88353600D01*
X98372200Y-88428600D01*
X99106873Y-88428600D01*
X99217136Y-88382928D01*
X99301528Y-88298537D01*
X99347200Y-88188274D01*
X99347200Y-87253600D01*
X107815200Y-87253600D01*
X107815200Y-88188274D01*
X107860872Y-88298537D01*
X107945264Y-88382928D01*
X108055527Y-88428600D01*
X108790200Y-88428600D01*
X108865200Y-88353600D01*
X108865200Y-87178600D01*
X108965200Y-87178600D01*
X108965200Y-88353600D01*
X109040200Y-88428600D01*
X109774873Y-88428600D01*
X109885136Y-88382928D01*
X109969528Y-88298537D01*
X110015200Y-88188274D01*
X110015200Y-87253600D01*
X109940200Y-87178600D01*
X108965200Y-87178600D01*
X108865200Y-87178600D01*
X107890200Y-87178600D01*
X107815200Y-87253600D01*
X99347200Y-87253600D01*
X99272200Y-87178600D01*
X98297200Y-87178600D01*
X98197200Y-87178600D01*
X97222200Y-87178600D01*
X97147200Y-87253600D01*
X91814200Y-87253600D01*
X91814200Y-86993241D01*
X91918320Y-86889121D01*
X92010448Y-86751241D01*
X92010449Y-86751240D01*
X92042800Y-86588600D01*
X92042800Y-86068926D01*
X97147200Y-86068926D01*
X97147200Y-87003600D01*
X97222200Y-87078600D01*
X98197200Y-87078600D01*
X98197200Y-85903600D01*
X98297200Y-85903600D01*
X98297200Y-87078600D01*
X99272200Y-87078600D01*
X99347200Y-87003600D01*
X99347200Y-86068926D01*
X107815200Y-86068926D01*
X107815200Y-87003600D01*
X107890200Y-87078600D01*
X108865200Y-87078600D01*
X108865200Y-85903600D01*
X108965200Y-85903600D01*
X108965200Y-87078600D01*
X109940200Y-87078600D01*
X110015200Y-87003600D01*
X110015200Y-86068926D01*
X109969528Y-85958663D01*
X109885136Y-85874272D01*
X109774873Y-85828600D01*
X109040200Y-85828600D01*
X108965200Y-85903600D01*
X108865200Y-85903600D01*
X108790200Y-85828600D01*
X108055527Y-85828600D01*
X107945264Y-85874272D01*
X107860872Y-85958663D01*
X107815200Y-86068926D01*
X99347200Y-86068926D01*
X99301528Y-85958663D01*
X99217136Y-85874272D01*
X99106873Y-85828600D01*
X98372200Y-85828600D01*
X98297200Y-85903600D01*
X98197200Y-85903600D01*
X98122200Y-85828600D01*
X97387527Y-85828600D01*
X97277264Y-85874272D01*
X97192872Y-85958663D01*
X97147200Y-86068926D01*
X92042800Y-86068926D01*
X92042800Y-85190000D01*
X114916559Y-85190000D01*
X115119600Y-85393041D01*
X115119600Y-85393041D01*
G37*
X115119600Y-85393041D02*
X115119600Y-87892403D01*
X114960041Y-88051683D01*
X114868504Y-88272129D01*
X114868296Y-88510824D01*
X114959448Y-88731429D01*
X115128083Y-88900359D01*
X115348529Y-88991896D01*
X115587224Y-88992104D01*
X115807829Y-88900952D01*
X115976759Y-88732317D01*
X116068296Y-88511871D01*
X116068298Y-88509303D01*
X116298424Y-88509504D01*
X116465000Y-88440676D01*
X116465000Y-117823801D01*
X116292365Y-117565435D01*
X115704562Y-117172677D01*
X115011200Y-117034759D01*
X114789103Y-117078937D01*
X116251520Y-115616521D01*
X116343648Y-115478641D01*
X116343649Y-115478640D01*
X116376000Y-115316000D01*
X116376000Y-105791000D01*
X116370948Y-105765600D01*
X116343649Y-105628359D01*
X116251520Y-105490480D01*
X114346520Y-103585480D01*
X114208641Y-103493351D01*
X114181657Y-103487984D01*
X114046000Y-103461000D01*
X110920041Y-103461000D01*
X109820001Y-102360961D01*
X109820104Y-102243176D01*
X109728952Y-102022571D01*
X109560317Y-101853641D01*
X109339871Y-101762104D01*
X109101176Y-101761896D01*
X108880571Y-101853048D01*
X108711641Y-102021683D01*
X108620104Y-102242129D01*
X108619896Y-102480824D01*
X108711048Y-102701429D01*
X108879683Y-102870359D01*
X109100129Y-102961896D01*
X109218959Y-102962000D01*
X110443479Y-104186520D01*
X110498075Y-104223000D01*
X110118581Y-104223000D01*
X110059152Y-104079171D01*
X109890517Y-103910241D01*
X109670071Y-103818704D01*
X109431376Y-103818496D01*
X109210771Y-103909648D01*
X109041841Y-104078283D01*
X108950304Y-104298729D01*
X108950096Y-104537424D01*
X109041248Y-104758029D01*
X109209883Y-104926959D01*
X109430329Y-105018496D01*
X109584005Y-105018630D01*
X109616959Y-105040649D01*
X109779600Y-105073000D01*
X111456960Y-105073000D01*
X112097000Y-105713040D01*
X112097000Y-106444337D01*
X112052473Y-106377697D01*
X111679386Y-106128409D01*
X111239300Y-106040870D01*
X110799214Y-106128409D01*
X110426127Y-106377697D01*
X110176839Y-106750784D01*
X110089300Y-107190870D01*
X110089300Y-107235930D01*
X110176839Y-107676016D01*
X110426127Y-108049103D01*
X110799214Y-108298391D01*
X111239300Y-108385930D01*
X111679386Y-108298391D01*
X112052473Y-108049103D01*
X112097000Y-107982463D01*
X112097000Y-116536959D01*
X111459480Y-117174480D01*
X111367351Y-117312359D01*
X111367351Y-117312360D01*
X111335000Y-117475000D01*
X111335000Y-119330959D01*
X111075960Y-119590000D01*
X103406104Y-119590000D01*
X103469896Y-119436371D01*
X103470011Y-119303919D01*
X103649114Y-119423591D01*
X104089200Y-119511130D01*
X104529286Y-119423591D01*
X104902373Y-119174303D01*
X105151661Y-118801216D01*
X105239200Y-118361130D01*
X105239200Y-118316070D01*
X105151661Y-117875984D01*
X104902373Y-117502897D01*
X104736403Y-117392000D01*
X105494470Y-117392000D01*
X105577683Y-117475359D01*
X105778665Y-117558814D01*
X105566739Y-117875984D01*
X105479200Y-118316070D01*
X105479200Y-118361130D01*
X105566739Y-118801216D01*
X105816027Y-119174303D01*
X106189114Y-119423591D01*
X106629200Y-119511130D01*
X107069286Y-119423591D01*
X107442373Y-119174303D01*
X107691661Y-118801216D01*
X107779200Y-118361130D01*
X107779200Y-118316070D01*
X108019200Y-118316070D01*
X108019200Y-118361130D01*
X108106739Y-118801216D01*
X108356027Y-119174303D01*
X108729114Y-119423591D01*
X109169200Y-119511130D01*
X109609286Y-119423591D01*
X109982373Y-119174303D01*
X110231661Y-118801216D01*
X110319200Y-118361130D01*
X110319200Y-118316070D01*
X110231661Y-117875984D01*
X109982373Y-117502897D01*
X109609286Y-117253609D01*
X109169200Y-117166070D01*
X108729114Y-117253609D01*
X108356027Y-117502897D01*
X108106739Y-117875984D01*
X108019200Y-118316070D01*
X107779200Y-118316070D01*
X107691661Y-117875984D01*
X107442373Y-117502897D01*
X107130997Y-117294843D01*
X107567241Y-116858600D01*
X108534200Y-116858600D01*
X108669857Y-116831616D01*
X108696841Y-116826249D01*
X108834720Y-116734120D01*
X110104720Y-115464121D01*
X110174291Y-115360000D01*
X110196849Y-115326240D01*
X110229200Y-115163600D01*
X110229200Y-107924600D01*
X110196849Y-107761960D01*
X110196849Y-107761959D01*
X110104720Y-107624080D01*
X108070200Y-105589560D01*
X108070200Y-101750640D01*
X109170239Y-100650601D01*
X109288024Y-100650704D01*
X109508629Y-100559552D01*
X109677559Y-100390917D01*
X109769096Y-100170471D01*
X109769304Y-99931776D01*
X109678152Y-99711171D01*
X109509517Y-99542241D01*
X109289071Y-99450704D01*
X109050376Y-99450496D01*
X108829771Y-99541648D01*
X108660841Y-99710283D01*
X108569304Y-99930729D01*
X108569200Y-100049559D01*
X107344680Y-101274080D01*
X107252551Y-101411959D01*
X107252551Y-101411960D01*
X107220200Y-101574600D01*
X107220200Y-105765600D01*
X107234506Y-105837520D01*
X107252551Y-105928241D01*
X107344680Y-106066120D01*
X109379200Y-108100640D01*
X109379200Y-114987559D01*
X108358160Y-116008600D01*
X107391200Y-116008600D01*
X107228559Y-116040951D01*
X107090680Y-116133079D01*
X106476434Y-116747326D01*
X106426952Y-116627571D01*
X106258317Y-116458641D01*
X106037871Y-116367104D01*
X105799176Y-116366896D01*
X105578571Y-116458048D01*
X105494472Y-116542000D01*
X104539070Y-116542000D01*
X104521952Y-116500571D01*
X104353317Y-116331641D01*
X104132871Y-116240104D01*
X103894176Y-116239896D01*
X103673571Y-116331048D01*
X103504641Y-116499683D01*
X103413104Y-116720129D01*
X103412896Y-116958824D01*
X103504048Y-117179429D01*
X103606513Y-117282074D01*
X103276027Y-117502897D01*
X103168000Y-117664571D01*
X103168000Y-114935000D01*
X103135649Y-114772360D01*
X103135649Y-114772359D01*
X103043521Y-114634480D01*
X102708001Y-114298961D01*
X102708104Y-114181176D01*
X102616952Y-113960571D01*
X102448317Y-113791641D01*
X102227871Y-113700104D01*
X101989176Y-113699896D01*
X101768571Y-113791048D01*
X101599641Y-113959683D01*
X101508104Y-114180129D01*
X101507896Y-114418824D01*
X101599048Y-114639429D01*
X101767683Y-114808359D01*
X101988129Y-114899896D01*
X102106959Y-114900000D01*
X102318000Y-115111041D01*
X102318000Y-117473248D01*
X101989286Y-117253609D01*
X101974200Y-117250608D01*
X101974200Y-115766600D01*
X101941849Y-115603960D01*
X101909969Y-115556249D01*
X101849720Y-115466079D01*
X99863201Y-113479561D01*
X99863304Y-113361776D01*
X99772152Y-113141171D01*
X99603517Y-112972241D01*
X99383071Y-112880704D01*
X99144376Y-112880496D01*
X98923771Y-112971648D01*
X98754841Y-113140283D01*
X98663304Y-113360729D01*
X98663096Y-113599424D01*
X98754248Y-113820029D01*
X98922883Y-113988959D01*
X99143329Y-114080496D01*
X99262159Y-114080600D01*
X101124200Y-115942641D01*
X101124200Y-116182170D01*
X100957871Y-116113104D01*
X100719176Y-116112896D01*
X100498571Y-116204048D01*
X100414472Y-116288000D01*
X100125041Y-116288000D01*
X97834000Y-113996960D01*
X97834000Y-110998000D01*
X97801649Y-110835360D01*
X97764419Y-110779641D01*
X97709520Y-110697479D01*
X97628001Y-110615961D01*
X97628104Y-110498176D01*
X97536952Y-110277571D01*
X97368317Y-110108641D01*
X97147871Y-110017104D01*
X96909176Y-110016896D01*
X96688571Y-110108048D01*
X96519641Y-110276683D01*
X96428104Y-110497129D01*
X96427896Y-110735824D01*
X96519048Y-110956429D01*
X96687683Y-111125359D01*
X96908129Y-111216896D01*
X96984000Y-111216962D01*
X96984000Y-114173000D01*
X97009262Y-114300000D01*
X97016351Y-114335641D01*
X97108480Y-114473520D01*
X99648479Y-117013520D01*
X99706711Y-117052429D01*
X99786360Y-117105649D01*
X99949000Y-117138000D01*
X100414470Y-117138000D01*
X100497683Y-117221359D01*
X100718129Y-117312896D01*
X100956824Y-117313104D01*
X101124200Y-117243946D01*
X101124200Y-117250608D01*
X101109114Y-117253609D01*
X100736027Y-117502897D01*
X100486739Y-117875984D01*
X100399200Y-118316070D01*
X100399200Y-118361130D01*
X100486739Y-118801216D01*
X100736027Y-119174303D01*
X101109114Y-119423591D01*
X101549200Y-119511130D01*
X101989286Y-119423591D01*
X102270070Y-119235978D01*
X102269896Y-119435324D01*
X102333807Y-119590000D01*
X97155000Y-119590000D01*
X96992360Y-119622351D01*
X96992358Y-119622352D01*
X96992359Y-119622352D01*
X96854479Y-119714480D01*
X92409480Y-124159480D01*
X90545000Y-126023960D01*
X90545000Y-120021454D01*
X90616035Y-120127765D01*
X91203838Y-120520523D01*
X91897200Y-120658441D01*
X92590562Y-120520523D01*
X93178365Y-120127765D01*
X93571123Y-119539962D01*
X93709041Y-118846600D01*
X93632858Y-118463600D01*
X97859200Y-118463600D01*
X97859200Y-119248274D01*
X97904872Y-119358537D01*
X97989264Y-119442928D01*
X98099527Y-119488600D01*
X98884200Y-119488600D01*
X98959200Y-119413600D01*
X98959200Y-118388600D01*
X99059200Y-118388600D01*
X99059200Y-119413600D01*
X99134200Y-119488600D01*
X99918873Y-119488600D01*
X100029136Y-119442928D01*
X100113528Y-119358537D01*
X100159200Y-119248274D01*
X100159200Y-118463600D01*
X100084200Y-118388600D01*
X99059200Y-118388600D01*
X98959200Y-118388600D01*
X97934200Y-118388600D01*
X97859200Y-118463600D01*
X93632858Y-118463600D01*
X93571123Y-118153238D01*
X93178365Y-117565435D01*
X92974066Y-117428926D01*
X97859200Y-117428926D01*
X97859200Y-118213600D01*
X97934200Y-118288600D01*
X98959200Y-118288600D01*
X98959200Y-117263600D01*
X99059200Y-117263600D01*
X99059200Y-118288600D01*
X100084200Y-118288600D01*
X100159200Y-118213600D01*
X100159200Y-117428926D01*
X100113528Y-117318663D01*
X100029136Y-117234272D01*
X99918873Y-117188600D01*
X99134200Y-117188600D01*
X99059200Y-117263600D01*
X98959200Y-117263600D01*
X98884200Y-117188600D01*
X98099527Y-117188600D01*
X97989264Y-117234272D01*
X97904872Y-117318663D01*
X97859200Y-117428926D01*
X92974066Y-117428926D01*
X92590562Y-117172677D01*
X91897200Y-117034759D01*
X91203838Y-117172677D01*
X90616035Y-117565435D01*
X90545000Y-117671746D01*
X90545000Y-107937814D01*
X91862454Y-107937814D01*
X92030517Y-108343566D01*
X92346460Y-108662188D01*
X92760285Y-108835650D01*
X92939400Y-108782617D01*
X92939400Y-107758700D01*
X93039400Y-107758700D01*
X93039400Y-108782617D01*
X93218515Y-108835650D01*
X93632340Y-108662188D01*
X93948283Y-108343566D01*
X94116346Y-107937814D01*
X94063237Y-107758700D01*
X93039400Y-107758700D01*
X92939400Y-107758700D01*
X91915563Y-107758700D01*
X91862454Y-107937814D01*
X90545000Y-107937814D01*
X90545000Y-107479586D01*
X91862454Y-107479586D01*
X91915563Y-107658700D01*
X92939400Y-107658700D01*
X92939400Y-106634783D01*
X93039400Y-106634783D01*
X93039400Y-107658700D01*
X94063237Y-107658700D01*
X94116346Y-107479586D01*
X93948283Y-107073834D01*
X93632340Y-106755212D01*
X93218515Y-106581750D01*
X93039400Y-106634783D01*
X92939400Y-106634783D01*
X92760285Y-106581750D01*
X92346460Y-106755212D01*
X92030517Y-107073834D01*
X91862454Y-107479586D01*
X90545000Y-107479586D01*
X90545000Y-104318700D01*
X91833523Y-104318700D01*
X91833523Y-106018700D01*
X91854442Y-106129873D01*
X91920145Y-106231979D01*
X92020397Y-106300478D01*
X92139400Y-106324577D01*
X93839400Y-106324577D01*
X93950573Y-106303658D01*
X94052679Y-106237955D01*
X94121178Y-106137703D01*
X94145277Y-106018700D01*
X94145277Y-105555600D01*
X95289860Y-105555600D01*
X97945437Y-108211178D01*
X97949845Y-108233337D01*
X97956151Y-108265041D01*
X98048280Y-108402920D01*
X98330200Y-108684841D01*
X98330200Y-108813600D01*
X98354109Y-108933799D01*
X98362551Y-108976241D01*
X98454680Y-109114120D01*
X98536199Y-109195639D01*
X98536096Y-109313424D01*
X98627248Y-109534029D01*
X98795883Y-109702959D01*
X99016329Y-109794496D01*
X99255024Y-109794704D01*
X99475629Y-109703552D01*
X99644559Y-109534917D01*
X99736096Y-109314471D01*
X99736304Y-109075776D01*
X99731289Y-109063638D01*
X99773659Y-109091949D01*
X99936300Y-109124300D01*
X106273600Y-109124300D01*
X106409257Y-109097316D01*
X106436241Y-109091949D01*
X106574120Y-108999820D01*
X106970340Y-108603600D01*
X107581700Y-108603600D01*
X107717357Y-108576616D01*
X107744341Y-108571249D01*
X107882220Y-108479120D01*
X107976439Y-108384901D01*
X108094224Y-108385004D01*
X108314829Y-108293852D01*
X108483759Y-108125217D01*
X108575296Y-107904771D01*
X108575504Y-107666076D01*
X108484352Y-107445471D01*
X108315717Y-107276541D01*
X108095271Y-107185004D01*
X107856576Y-107184796D01*
X107635971Y-107275948D01*
X107467041Y-107444583D01*
X107375504Y-107665029D01*
X107375427Y-107753600D01*
X106794300Y-107753600D01*
X106658643Y-107780584D01*
X106631659Y-107785951D01*
X106493780Y-107878080D01*
X106097560Y-108274300D01*
X100112341Y-108274300D01*
X99777100Y-107939060D01*
X99777100Y-105054967D01*
X99815845Y-105115179D01*
X99916097Y-105183678D01*
X100035100Y-105207777D01*
X102035100Y-105207777D01*
X102140200Y-105188001D01*
X102140200Y-105738319D01*
X102085900Y-105727323D01*
X100085900Y-105727323D01*
X99974727Y-105748242D01*
X99872621Y-105813945D01*
X99804122Y-105914197D01*
X99780023Y-106033200D01*
X99780023Y-107733200D01*
X99800942Y-107844373D01*
X99866645Y-107946479D01*
X99966897Y-108014978D01*
X100085900Y-108039077D01*
X102085900Y-108039077D01*
X102197073Y-108018158D01*
X102299179Y-107952455D01*
X102367678Y-107852203D01*
X102391777Y-107733200D01*
X102391777Y-107287120D01*
X102421457Y-107281216D01*
X102448441Y-107275849D01*
X102586320Y-107183720D01*
X102761840Y-107008200D01*
X103785900Y-107008200D01*
X103785900Y-107792873D01*
X103831572Y-107903136D01*
X103915963Y-107987528D01*
X104026226Y-108033200D01*
X104960900Y-108033200D01*
X105035900Y-107958200D01*
X105035900Y-106933200D01*
X105135900Y-106933200D01*
X105135900Y-107958200D01*
X105210900Y-108033200D01*
X106145574Y-108033200D01*
X106255837Y-107987528D01*
X106340228Y-107903136D01*
X106385900Y-107792873D01*
X106385900Y-107008200D01*
X106310900Y-106933200D01*
X105135900Y-106933200D01*
X105035900Y-106933200D01*
X103860900Y-106933200D01*
X103785900Y-107008200D01*
X102761840Y-107008200D01*
X102865720Y-106904321D01*
X102957848Y-106766441D01*
X102957849Y-106766440D01*
X102990200Y-106603800D01*
X102990200Y-105973527D01*
X103785900Y-105973527D01*
X103785900Y-106758200D01*
X103860900Y-106833200D01*
X105035900Y-106833200D01*
X105035900Y-105808200D01*
X105135900Y-105808200D01*
X105135900Y-106833200D01*
X106310900Y-106833200D01*
X106385900Y-106758200D01*
X106385900Y-105973527D01*
X106340228Y-105863264D01*
X106255837Y-105778872D01*
X106145574Y-105733200D01*
X105210900Y-105733200D01*
X105135900Y-105808200D01*
X105035900Y-105808200D01*
X104960900Y-105733200D01*
X104026226Y-105733200D01*
X103915963Y-105778872D01*
X103831572Y-105863264D01*
X103785900Y-105973527D01*
X102990200Y-105973527D01*
X102990200Y-104226900D01*
X103735100Y-104226900D01*
X103735100Y-104961573D01*
X103780772Y-105071836D01*
X103865163Y-105156228D01*
X103975426Y-105201900D01*
X104910100Y-105201900D01*
X104985100Y-105126900D01*
X104985100Y-104151900D01*
X105085100Y-104151900D01*
X105085100Y-105126900D01*
X105160100Y-105201900D01*
X106094774Y-105201900D01*
X106205037Y-105156228D01*
X106289428Y-105071836D01*
X106335100Y-104961573D01*
X106335100Y-104226900D01*
X106260100Y-104151900D01*
X105085100Y-104151900D01*
X104985100Y-104151900D01*
X103810100Y-104151900D01*
X103735100Y-104226900D01*
X102990200Y-104226900D01*
X102990200Y-103242227D01*
X103735100Y-103242227D01*
X103735100Y-103976900D01*
X103810100Y-104051900D01*
X104985100Y-104051900D01*
X104985100Y-103076900D01*
X105085100Y-103076900D01*
X105085100Y-104051900D01*
X106260100Y-104051900D01*
X106335100Y-103976900D01*
X106335100Y-103242227D01*
X106289428Y-103131964D01*
X106205037Y-103047572D01*
X106094774Y-103001900D01*
X105160100Y-103001900D01*
X105085100Y-103076900D01*
X104985100Y-103076900D01*
X104910100Y-103001900D01*
X103975426Y-103001900D01*
X103865163Y-103047572D01*
X103780772Y-103131964D01*
X103735100Y-103242227D01*
X102990200Y-103242227D01*
X102990200Y-103020640D01*
X103388940Y-102621900D01*
X103844546Y-102621900D01*
X103879345Y-102675979D01*
X103979597Y-102744478D01*
X104098600Y-102768577D01*
X106098600Y-102768577D01*
X106209773Y-102747658D01*
X106311879Y-102681955D01*
X106380378Y-102581703D01*
X106404477Y-102462700D01*
X106404477Y-100762700D01*
X106383558Y-100651527D01*
X106317855Y-100549421D01*
X106217603Y-100480922D01*
X106098600Y-100456823D01*
X104098600Y-100456823D01*
X103987427Y-100477742D01*
X103885321Y-100543445D01*
X103816822Y-100643697D01*
X103792723Y-100762700D01*
X103792723Y-101771900D01*
X103212900Y-101771900D01*
X103077243Y-101798884D01*
X103050259Y-101804251D01*
X102912380Y-101896380D01*
X102404477Y-102404283D01*
X102404477Y-100762700D01*
X102383558Y-100651527D01*
X102317855Y-100549421D01*
X102217603Y-100480922D01*
X102098600Y-100456823D01*
X101523600Y-100456823D01*
X101523600Y-99705877D01*
X101916900Y-99705877D01*
X102028073Y-99684958D01*
X102130179Y-99619255D01*
X102198678Y-99519003D01*
X102222777Y-99400000D01*
X102222777Y-97400000D01*
X102201858Y-97288827D01*
X102184917Y-97262500D01*
X102447760Y-97262500D01*
X102435122Y-97280997D01*
X102411023Y-97400000D01*
X102411023Y-99400000D01*
X102431942Y-99511173D01*
X102497645Y-99613279D01*
X102597897Y-99681778D01*
X102716900Y-99705877D01*
X104216900Y-99705877D01*
X104328073Y-99684958D01*
X104430179Y-99619255D01*
X104498678Y-99519003D01*
X104522777Y-99400000D01*
X104522777Y-98525000D01*
X104716900Y-98525000D01*
X104716900Y-99459674D01*
X104762572Y-99569937D01*
X104846964Y-99654328D01*
X104957227Y-99700000D01*
X105641900Y-99700000D01*
X105716900Y-99625000D01*
X105716900Y-98450000D01*
X105816900Y-98450000D01*
X105816900Y-99625000D01*
X105891900Y-99700000D01*
X106576573Y-99700000D01*
X106686836Y-99654328D01*
X106771228Y-99569937D01*
X106816900Y-99459674D01*
X106816900Y-98525000D01*
X106741900Y-98450000D01*
X105816900Y-98450000D01*
X105716900Y-98450000D01*
X104791900Y-98450000D01*
X104716900Y-98525000D01*
X104522777Y-98525000D01*
X104522777Y-97400000D01*
X104511549Y-97340326D01*
X104716900Y-97340326D01*
X104716900Y-98275000D01*
X104791900Y-98350000D01*
X105716900Y-98350000D01*
X105716900Y-97175000D01*
X105816900Y-97175000D01*
X105816900Y-98350000D01*
X106741900Y-98350000D01*
X106816900Y-98275000D01*
X106816900Y-98111600D01*
X107815200Y-98111600D01*
X107815200Y-99046274D01*
X107860872Y-99156537D01*
X107945264Y-99240928D01*
X108055527Y-99286600D01*
X108790200Y-99286600D01*
X108865200Y-99211600D01*
X108865200Y-98036600D01*
X108965200Y-98036600D01*
X108965200Y-99211600D01*
X109040200Y-99286600D01*
X109774873Y-99286600D01*
X109885136Y-99240928D01*
X109969528Y-99156537D01*
X110015200Y-99046274D01*
X110015200Y-98111600D01*
X109940200Y-98036600D01*
X108965200Y-98036600D01*
X108865200Y-98036600D01*
X107890200Y-98036600D01*
X107815200Y-98111600D01*
X106816900Y-98111600D01*
X106816900Y-97340326D01*
X106771228Y-97230063D01*
X106686836Y-97145672D01*
X106576573Y-97100000D01*
X105891900Y-97100000D01*
X105816900Y-97175000D01*
X105716900Y-97175000D01*
X105641900Y-97100000D01*
X104957227Y-97100000D01*
X104846964Y-97145672D01*
X104762572Y-97230063D01*
X104716900Y-97340326D01*
X104511549Y-97340326D01*
X104501858Y-97288827D01*
X104481806Y-97257665D01*
X104593157Y-97235516D01*
X104620141Y-97230149D01*
X104758020Y-97138020D01*
X104969114Y-96926926D01*
X107815200Y-96926926D01*
X107815200Y-97861600D01*
X107890200Y-97936600D01*
X108865200Y-97936600D01*
X108865200Y-96761600D01*
X108965200Y-96761600D01*
X108965200Y-97936600D01*
X109940200Y-97936600D01*
X110015200Y-97861600D01*
X110015200Y-96926926D01*
X109969528Y-96816663D01*
X109885136Y-96732272D01*
X109774873Y-96686600D01*
X109040200Y-96686600D01*
X108965200Y-96761600D01*
X108865200Y-96761600D01*
X108790200Y-96686600D01*
X108055527Y-96686600D01*
X107945264Y-96732272D01*
X107860872Y-96816663D01*
X107815200Y-96926926D01*
X104969114Y-96926926D01*
X107484441Y-94411600D01*
X107809323Y-94411600D01*
X107809323Y-94986600D01*
X107830242Y-95097773D01*
X107895945Y-95199879D01*
X107996197Y-95268378D01*
X108115200Y-95292477D01*
X109715200Y-95292477D01*
X109826373Y-95271558D01*
X109928479Y-95205855D01*
X109996978Y-95105603D01*
X110021077Y-94986600D01*
X110021077Y-92986600D01*
X110000158Y-92875427D01*
X109934455Y-92773321D01*
X109834203Y-92704822D01*
X109715200Y-92680723D01*
X108115200Y-92680723D01*
X108004027Y-92701642D01*
X107901921Y-92767345D01*
X107833422Y-92867597D01*
X107809323Y-92986600D01*
X107809323Y-93561600D01*
X107308400Y-93561600D01*
X107145760Y-93593951D01*
X107145758Y-93593952D01*
X107145759Y-93593952D01*
X107007879Y-93686080D01*
X104281460Y-96412500D01*
X98672200Y-96412500D01*
X98672200Y-92434477D01*
X98968900Y-92434477D01*
X99055959Y-92492649D01*
X99082943Y-92498016D01*
X99218600Y-92525000D01*
X101261023Y-92525000D01*
X101261023Y-93100000D01*
X101281942Y-93211173D01*
X101347645Y-93313279D01*
X101447897Y-93381778D01*
X101566900Y-93405877D01*
X105366900Y-93405877D01*
X105478073Y-93384958D01*
X105580179Y-93319255D01*
X105648678Y-93219003D01*
X105672777Y-93100000D01*
X105672777Y-91100000D01*
X105651858Y-90988827D01*
X105586155Y-90886721D01*
X105485903Y-90818222D01*
X105366900Y-90794123D01*
X101566900Y-90794123D01*
X101455727Y-90815042D01*
X101353621Y-90880745D01*
X101285122Y-90980997D01*
X101261023Y-91100000D01*
X101261023Y-91675000D01*
X99394640Y-91675000D01*
X99353077Y-91633437D01*
X99353077Y-90128600D01*
X99332158Y-90017427D01*
X99266455Y-89915321D01*
X99166203Y-89846822D01*
X99047200Y-89822723D01*
X97447200Y-89822723D01*
X97336027Y-89843642D01*
X97233921Y-89909345D01*
X97165422Y-90009597D01*
X97141323Y-90128600D01*
X97141323Y-92128600D01*
X97162242Y-92239773D01*
X97227945Y-92341879D01*
X97328197Y-92410378D01*
X97447200Y-92434477D01*
X97822200Y-92434477D01*
X97822200Y-101157259D01*
X97286280Y-101693180D01*
X97194151Y-101831059D01*
X97194151Y-101831060D01*
X97161800Y-101993700D01*
X97161800Y-102643160D01*
X95152680Y-104652280D01*
X95117052Y-104705600D01*
X94145277Y-104705600D01*
X94145277Y-104318700D01*
X94124358Y-104207527D01*
X94058655Y-104105421D01*
X93958403Y-104036922D01*
X93839400Y-104012823D01*
X92139400Y-104012823D01*
X92028227Y-104033742D01*
X91926121Y-104099445D01*
X91857622Y-104199697D01*
X91833523Y-104318700D01*
X90545000Y-104318700D01*
X90545000Y-94803640D01*
X91444280Y-95702920D01*
X91582159Y-95795049D01*
X91744800Y-95827400D01*
X92489670Y-95827400D01*
X92572883Y-95910759D01*
X92793329Y-96002296D01*
X93032024Y-96002504D01*
X93252629Y-95911352D01*
X93421559Y-95742717D01*
X93513096Y-95522271D01*
X93513304Y-95283576D01*
X93465136Y-95167000D01*
X96191560Y-95167000D01*
X96882400Y-95857840D01*
X96882400Y-98325159D01*
X96671361Y-98536199D01*
X96553576Y-98536096D01*
X96332971Y-98627248D01*
X96164041Y-98795883D01*
X96072504Y-99016329D01*
X96072296Y-99255024D01*
X96163448Y-99475629D01*
X96332083Y-99644559D01*
X96552529Y-99736096D01*
X96791224Y-99736304D01*
X97011829Y-99645152D01*
X97180759Y-99476517D01*
X97272296Y-99256071D01*
X97272400Y-99137241D01*
X97607921Y-98801720D01*
X97700049Y-98663841D01*
X97732400Y-98501200D01*
X97732400Y-95681800D01*
X97700049Y-95519160D01*
X97700049Y-95519159D01*
X97607920Y-95381280D01*
X96668120Y-94441480D01*
X96530241Y-94349351D01*
X96503257Y-94343984D01*
X96367600Y-94317000D01*
X92733640Y-94317000D01*
X91814200Y-93397560D01*
X91814200Y-89120424D01*
X94726096Y-89120424D01*
X94817248Y-89341029D01*
X94985883Y-89509959D01*
X95206329Y-89601496D01*
X95445024Y-89601704D01*
X95665629Y-89510552D01*
X95749728Y-89426600D01*
X106072160Y-89426600D01*
X107809323Y-91163764D01*
X107809323Y-92128600D01*
X107830242Y-92239773D01*
X107895945Y-92341879D01*
X107996197Y-92410378D01*
X108115200Y-92434477D01*
X109715200Y-92434477D01*
X109826373Y-92413558D01*
X109928479Y-92347855D01*
X109996978Y-92247603D01*
X110021077Y-92128600D01*
X110021077Y-90128600D01*
X110000158Y-90017427D01*
X109934455Y-89915321D01*
X109834203Y-89846822D01*
X109715200Y-89822723D01*
X108115200Y-89822723D01*
X108004027Y-89843642D01*
X107901921Y-89909345D01*
X107843089Y-89995449D01*
X106548720Y-88701080D01*
X106410841Y-88608951D01*
X106383857Y-88603584D01*
X106248200Y-88576600D01*
X95749730Y-88576600D01*
X95666517Y-88493241D01*
X95446071Y-88401704D01*
X95207376Y-88401496D01*
X94986771Y-88492648D01*
X94817841Y-88661283D01*
X94726304Y-88881729D01*
X94726096Y-89120424D01*
X91814200Y-89120424D01*
X91814200Y-87253600D01*
X97147200Y-87253600D01*
X97147200Y-88188274D01*
X97192872Y-88298537D01*
X97277264Y-88382928D01*
X97387527Y-88428600D01*
X98122200Y-88428600D01*
X98197200Y-88353600D01*
X98197200Y-87178600D01*
X98297200Y-87178600D01*
X98297200Y-88353600D01*
X98372200Y-88428600D01*
X99106873Y-88428600D01*
X99217136Y-88382928D01*
X99301528Y-88298537D01*
X99347200Y-88188274D01*
X99347200Y-87253600D01*
X107815200Y-87253600D01*
X107815200Y-88188274D01*
X107860872Y-88298537D01*
X107945264Y-88382928D01*
X108055527Y-88428600D01*
X108790200Y-88428600D01*
X108865200Y-88353600D01*
X108865200Y-87178600D01*
X108965200Y-87178600D01*
X108965200Y-88353600D01*
X109040200Y-88428600D01*
X109774873Y-88428600D01*
X109885136Y-88382928D01*
X109969528Y-88298537D01*
X110015200Y-88188274D01*
X110015200Y-87253600D01*
X109940200Y-87178600D01*
X108965200Y-87178600D01*
X108865200Y-87178600D01*
X107890200Y-87178600D01*
X107815200Y-87253600D01*
X99347200Y-87253600D01*
X99272200Y-87178600D01*
X98297200Y-87178600D01*
X98197200Y-87178600D01*
X97222200Y-87178600D01*
X97147200Y-87253600D01*
X91814200Y-87253600D01*
X91814200Y-86993241D01*
X91918320Y-86889121D01*
X92010448Y-86751241D01*
X92010449Y-86751240D01*
X92042800Y-86588600D01*
X92042800Y-86068926D01*
X97147200Y-86068926D01*
X97147200Y-87003600D01*
X97222200Y-87078600D01*
X98197200Y-87078600D01*
X98197200Y-85903600D01*
X98297200Y-85903600D01*
X98297200Y-87078600D01*
X99272200Y-87078600D01*
X99347200Y-87003600D01*
X99347200Y-86068926D01*
X107815200Y-86068926D01*
X107815200Y-87003600D01*
X107890200Y-87078600D01*
X108865200Y-87078600D01*
X108865200Y-85903600D01*
X108965200Y-85903600D01*
X108965200Y-87078600D01*
X109940200Y-87078600D01*
X110015200Y-87003600D01*
X110015200Y-86068926D01*
X109969528Y-85958663D01*
X109885136Y-85874272D01*
X109774873Y-85828600D01*
X109040200Y-85828600D01*
X108965200Y-85903600D01*
X108865200Y-85903600D01*
X108790200Y-85828600D01*
X108055527Y-85828600D01*
X107945264Y-85874272D01*
X107860872Y-85958663D01*
X107815200Y-86068926D01*
X99347200Y-86068926D01*
X99301528Y-85958663D01*
X99217136Y-85874272D01*
X99106873Y-85828600D01*
X98372200Y-85828600D01*
X98297200Y-85903600D01*
X98197200Y-85903600D01*
X98122200Y-85828600D01*
X97387527Y-85828600D01*
X97277264Y-85874272D01*
X97192872Y-85958663D01*
X97147200Y-86068926D01*
X92042800Y-86068926D01*
X92042800Y-85190000D01*
X114916559Y-85190000D01*
X115119600Y-85393041D01*
G36*
X115526000Y-105967040D02*
X115526000Y-115139959D01*
X114250960Y-116415000D01*
X113919000Y-116415000D01*
X113783343Y-116441984D01*
X113756359Y-116447351D01*
X113618480Y-116539480D01*
X112602480Y-117555480D01*
X112510351Y-117693359D01*
X112510351Y-117693360D01*
X112478000Y-117856000D01*
X112478000Y-119076959D01*
X112185000Y-119369959D01*
X112185000Y-117651040D01*
X112822521Y-117013520D01*
X112914649Y-116875641D01*
X112947000Y-116713000D01*
X112947000Y-108363400D01*
X113654300Y-108363400D01*
X113729300Y-108288400D01*
X113729300Y-107263400D01*
X113829300Y-107263400D01*
X113829300Y-108288400D01*
X113904300Y-108363400D01*
X114688973Y-108363400D01*
X114799236Y-108317728D01*
X114883628Y-108233337D01*
X114929300Y-108123074D01*
X114929300Y-107338400D01*
X114854300Y-107263400D01*
X113829300Y-107263400D01*
X113729300Y-107263400D01*
X113709300Y-107263400D01*
X113709300Y-107163400D01*
X113729300Y-107163400D01*
X113729300Y-106138400D01*
X113829300Y-106138400D01*
X113829300Y-107163400D01*
X114854300Y-107163400D01*
X114929300Y-107088400D01*
X114929300Y-106303726D01*
X114883628Y-106193463D01*
X114799236Y-106109072D01*
X114688973Y-106063400D01*
X113904300Y-106063400D01*
X113829300Y-106138400D01*
X113729300Y-106138400D01*
X113654300Y-106063400D01*
X112947000Y-106063400D01*
X112947000Y-105537000D01*
X112914649Y-105374360D01*
X112914649Y-105374359D01*
X112822520Y-105236480D01*
X111933520Y-104347480D01*
X111878925Y-104311000D01*
X113869960Y-104311000D01*
X115526000Y-105967040D01*
X115526000Y-105967040D01*
G37*
X115526000Y-105967040D02*
X115526000Y-115139959D01*
X114250960Y-116415000D01*
X113919000Y-116415000D01*
X113783343Y-116441984D01*
X113756359Y-116447351D01*
X113618480Y-116539480D01*
X112602480Y-117555480D01*
X112510351Y-117693359D01*
X112510351Y-117693360D01*
X112478000Y-117856000D01*
X112478000Y-119076959D01*
X112185000Y-119369959D01*
X112185000Y-117651040D01*
X112822521Y-117013520D01*
X112914649Y-116875641D01*
X112947000Y-116713000D01*
X112947000Y-108363400D01*
X113654300Y-108363400D01*
X113729300Y-108288400D01*
X113729300Y-107263400D01*
X113829300Y-107263400D01*
X113829300Y-108288400D01*
X113904300Y-108363400D01*
X114688973Y-108363400D01*
X114799236Y-108317728D01*
X114883628Y-108233337D01*
X114929300Y-108123074D01*
X114929300Y-107338400D01*
X114854300Y-107263400D01*
X113829300Y-107263400D01*
X113729300Y-107263400D01*
X113709300Y-107263400D01*
X113709300Y-107163400D01*
X113729300Y-107163400D01*
X113729300Y-106138400D01*
X113829300Y-106138400D01*
X113829300Y-107163400D01*
X114854300Y-107163400D01*
X114929300Y-107088400D01*
X114929300Y-106303726D01*
X114883628Y-106193463D01*
X114799236Y-106109072D01*
X114688973Y-106063400D01*
X113904300Y-106063400D01*
X113829300Y-106138400D01*
X113729300Y-106138400D01*
X113654300Y-106063400D01*
X112947000Y-106063400D01*
X112947000Y-105537000D01*
X112914649Y-105374360D01*
X112914649Y-105374359D01*
X112822520Y-105236480D01*
X111933520Y-104347480D01*
X111878925Y-104311000D01*
X113869960Y-104311000D01*
X115526000Y-105967040D01*
M02*
